M48
;Layer_Color=9474304
;FILE_FORMAT=4:4
METRIC,LZ
;TYPE=PLATED
T1F00S00C0.7112
T2F00S00C0.9000
%
T01
X001575Y002976
X001775Y00305
X002125Y003625
X002875Y003375
X003075Y0023
X00345Y0036
X004375Y003725
T02
X002794Y000254
X003048
X003302
X003556
X00381
X004064
X004318
X004572
X005008
X005262
X005516
X00577
X006024
X006278
X00635Y00508
X006096
X005842
X005588
X005334
X00508
X004826
X004572
X0041656
X0039116
X0036576
X0034036
X0031496
X0028956
X0026416
X0023876
X0021336
X0018796
M30
