G04*
G04 #@! TF.GenerationSoftware,Altium Limited,Altium Designer,20.2.6 (244)*
G04*
G04 Layer_Color=16711935*
%FSLAX44Y44*%
%MOMM*%
G71*
G04*
G04 #@! TF.SameCoordinates,9515D0E1-E452-41A6-BF4E-AEEE6F90C87A*
G04*
G04*
G04 #@! TF.FilePolarity,Positive*
G04*
G01*
G75*
%ADD10C,0.2000*%
%ADD11C,0.1000*%
%ADD13C,0.1270*%
D10*
X324500Y355000D02*
G03*
X324500Y355000I-1000J0D01*
G01*
D11*
X470750Y340500D02*
X484250D01*
X470750Y319500D02*
X484250D01*
Y340500D01*
X470750Y319500D02*
Y340500D01*
X419000Y302250D02*
X441000D01*
X419000Y287750D02*
X441000D01*
X419000D02*
Y302250D01*
X441000Y287750D02*
Y302250D01*
X282250Y306500D02*
Y328500D01*
X267750Y306500D02*
Y328500D01*
X282250D01*
X267750Y306500D02*
X282250D01*
X117750Y231000D02*
X132250D01*
X117750Y253000D02*
X132250D01*
X117750Y231000D02*
Y253000D01*
X132250Y231000D02*
Y253000D01*
X503250Y372000D02*
X516750D01*
X503250Y393000D02*
X516750D01*
X503250Y372000D02*
Y393000D01*
X516750Y372000D02*
Y393000D01*
X87750Y359000D02*
X102250D01*
X87750Y337000D02*
X102250D01*
Y359000D01*
X87750Y337000D02*
Y359000D01*
X314000Y322250D02*
X336000D01*
X314000Y307750D02*
X336000D01*
X314000D02*
Y322250D01*
X336000Y307750D02*
Y322250D01*
X287000Y265750D02*
Y279250D01*
X308000Y265750D02*
Y279250D01*
X287000D02*
X308000D01*
X287000Y265750D02*
X308000D01*
X117750Y321500D02*
Y343500D01*
X132250Y321500D02*
Y343500D01*
X117750Y321500D02*
X132250D01*
X117750Y343500D02*
X132250D01*
D13*
X289500Y368000D02*
X315500D01*
X289500Y352000D02*
X315500D01*
X289500D02*
Y368000D01*
X315500Y352000D02*
Y368000D01*
M02*
