G04*
G04 #@! TF.GenerationSoftware,Altium Limited,Altium Designer,20.2.6 (244)*
G04*
G04 Layer_Color=8388736*
%FSLAX44Y44*%
%MOMM*%
G71*
G04*
G04 #@! TF.SameCoordinates,9515D0E1-E452-41A6-BF4E-AEEE6F90C87A*
G04*
G04*
G04 #@! TF.FilePolarity,Positive*
G04*
G01*
G75*
G36*
X272786Y-9883D02*
X276437Y-15000D01*
X274844D01*
X272378Y-11532D01*
X272363Y-11518D01*
X272335Y-11476D01*
X272307Y-11419D01*
X272251Y-11349D01*
X272124Y-11151D01*
X271983Y-10940D01*
X271969Y-10954D01*
X271926Y-11011D01*
X271870Y-11095D01*
X271800Y-11208D01*
X271644Y-11434D01*
X271574Y-11532D01*
X271518Y-11617D01*
X269051Y-15000D01*
X267500D01*
X271264Y-9953D01*
X267937Y-5245D01*
X269474D01*
X271250Y-7754D01*
Y-7768D01*
X271278Y-7782D01*
X271306Y-7825D01*
X271348Y-7881D01*
X271433Y-8022D01*
X271560Y-8191D01*
X271687Y-8389D01*
X271814Y-8586D01*
X271926Y-8769D01*
X272025Y-8938D01*
X272039Y-8910D01*
X272082Y-8854D01*
X272152Y-8741D01*
X272251Y-8600D01*
X272363Y-8445D01*
X272504Y-8248D01*
X272645Y-8050D01*
X272815Y-7839D01*
X274760Y-5245D01*
X276170D01*
X272786Y-9883D01*
D02*
G37*
G36*
X341876Y-7782D02*
X341974D01*
X342073Y-7796D01*
X342313Y-7839D01*
X342566Y-7909D01*
X342834Y-8022D01*
X343102Y-8163D01*
X343328Y-8360D01*
X343356Y-8389D01*
X343412Y-8473D01*
X343511Y-8600D01*
X343553Y-8699D01*
X343610Y-8797D01*
X343666Y-8924D01*
X343708Y-9051D01*
X343765Y-9192D01*
X343807Y-9361D01*
X343835Y-9530D01*
X343863Y-9728D01*
X343892Y-9925D01*
Y-10151D01*
Y-15000D01*
X342693D01*
Y-10560D01*
Y-10545D01*
Y-10531D01*
Y-10447D01*
Y-10320D01*
X342679Y-10165D01*
X342665Y-9996D01*
X342651Y-9826D01*
X342623Y-9657D01*
X342581Y-9530D01*
Y-9516D01*
X342552Y-9474D01*
X342524Y-9418D01*
X342482Y-9347D01*
X342426Y-9262D01*
X342355Y-9178D01*
X342271Y-9093D01*
X342158Y-9009D01*
X342144Y-8995D01*
X342101Y-8981D01*
X342045Y-8952D01*
X341946Y-8910D01*
X341848Y-8868D01*
X341721Y-8840D01*
X341594Y-8826D01*
X341439Y-8811D01*
X341368D01*
X341312Y-8826D01*
X341171Y-8840D01*
X341002Y-8868D01*
X340804Y-8938D01*
X340593Y-9023D01*
X340382Y-9150D01*
X340184Y-9319D01*
X340170Y-9347D01*
X340114Y-9418D01*
X340029Y-9530D01*
X339944Y-9700D01*
X339846Y-9925D01*
X339775Y-10193D01*
X339719Y-10517D01*
X339691Y-10898D01*
Y-15000D01*
X338493D01*
Y-10418D01*
Y-10404D01*
Y-10376D01*
Y-10348D01*
Y-10292D01*
X338478Y-10137D01*
X338450Y-9967D01*
X338422Y-9770D01*
X338366Y-9573D01*
X338295Y-9389D01*
X338196Y-9220D01*
X338182Y-9206D01*
X338140Y-9150D01*
X338070Y-9093D01*
X337971Y-9009D01*
X337844Y-8938D01*
X337675Y-8868D01*
X337477Y-8826D01*
X337238Y-8811D01*
X337153D01*
X337055Y-8826D01*
X336942Y-8840D01*
X336801Y-8882D01*
X336632Y-8924D01*
X336477Y-8995D01*
X336307Y-9079D01*
X336293Y-9093D01*
X336237Y-9136D01*
X336166Y-9192D01*
X336068Y-9277D01*
X335969Y-9389D01*
X335870Y-9530D01*
X335772Y-9686D01*
X335687Y-9869D01*
X335673Y-9897D01*
X335659Y-9967D01*
X335631Y-10080D01*
X335588Y-10235D01*
X335546Y-10447D01*
X335518Y-10700D01*
X335504Y-10997D01*
X335490Y-11335D01*
Y-15000D01*
X334292D01*
Y-7923D01*
X335363D01*
Y-8938D01*
X335377Y-8910D01*
X335419Y-8854D01*
X335504Y-8755D01*
X335603Y-8642D01*
X335729Y-8501D01*
X335885Y-8360D01*
X336054Y-8219D01*
X336251Y-8092D01*
X336279Y-8078D01*
X336350Y-8036D01*
X336463Y-7994D01*
X336618Y-7923D01*
X336801Y-7867D01*
X337012Y-7825D01*
X337252Y-7782D01*
X337506Y-7768D01*
X337633D01*
X337788Y-7782D01*
X337957Y-7811D01*
X338168Y-7853D01*
X338380Y-7909D01*
X338591Y-7994D01*
X338788Y-8107D01*
X338817Y-8121D01*
X338873Y-8163D01*
X338958Y-8234D01*
X339071Y-8346D01*
X339183Y-8473D01*
X339310Y-8628D01*
X339423Y-8811D01*
X339507Y-9023D01*
X339522Y-9009D01*
X339550Y-8967D01*
X339592Y-8910D01*
X339663Y-8826D01*
X339747Y-8727D01*
X339846Y-8628D01*
X339959Y-8515D01*
X340099Y-8389D01*
X340255Y-8276D01*
X340410Y-8163D01*
X340593Y-8064D01*
X340790Y-7966D01*
X341002Y-7881D01*
X341227Y-7825D01*
X341453Y-7782D01*
X341707Y-7768D01*
X341805D01*
X341876Y-7782D01*
D02*
G37*
G36*
X330514D02*
X330612D01*
X330711Y-7796D01*
X330951Y-7839D01*
X331204Y-7909D01*
X331472Y-8022D01*
X331740Y-8163D01*
X331966Y-8360D01*
X331994Y-8389D01*
X332050Y-8473D01*
X332149Y-8600D01*
X332191Y-8699D01*
X332248Y-8797D01*
X332304Y-8924D01*
X332346Y-9051D01*
X332403Y-9192D01*
X332445Y-9361D01*
X332473Y-9530D01*
X332501Y-9728D01*
X332529Y-9925D01*
Y-10151D01*
Y-15000D01*
X331331D01*
Y-10560D01*
Y-10545D01*
Y-10531D01*
Y-10447D01*
Y-10320D01*
X331317Y-10165D01*
X331303Y-9996D01*
X331289Y-9826D01*
X331261Y-9657D01*
X331218Y-9530D01*
Y-9516D01*
X331190Y-9474D01*
X331162Y-9418D01*
X331120Y-9347D01*
X331063Y-9262D01*
X330993Y-9178D01*
X330908Y-9093D01*
X330796Y-9009D01*
X330781Y-8995D01*
X330739Y-8981D01*
X330683Y-8952D01*
X330584Y-8910D01*
X330485Y-8868D01*
X330359Y-8840D01*
X330232Y-8826D01*
X330077Y-8811D01*
X330006D01*
X329950Y-8826D01*
X329809Y-8840D01*
X329640Y-8868D01*
X329442Y-8938D01*
X329231Y-9023D01*
X329019Y-9150D01*
X328822Y-9319D01*
X328808Y-9347D01*
X328751Y-9418D01*
X328667Y-9530D01*
X328582Y-9700D01*
X328484Y-9925D01*
X328413Y-10193D01*
X328357Y-10517D01*
X328329Y-10898D01*
Y-15000D01*
X327130D01*
Y-10418D01*
Y-10404D01*
Y-10376D01*
Y-10348D01*
Y-10292D01*
X327116Y-10137D01*
X327088Y-9967D01*
X327060Y-9770D01*
X327003Y-9573D01*
X326933Y-9389D01*
X326834Y-9220D01*
X326820Y-9206D01*
X326778Y-9150D01*
X326707Y-9093D01*
X326609Y-9009D01*
X326482Y-8938D01*
X326313Y-8868D01*
X326115Y-8826D01*
X325876Y-8811D01*
X325791D01*
X325692Y-8826D01*
X325580Y-8840D01*
X325439Y-8882D01*
X325270Y-8924D01*
X325114Y-8995D01*
X324945Y-9079D01*
X324931Y-9093D01*
X324875Y-9136D01*
X324804Y-9192D01*
X324706Y-9277D01*
X324607Y-9389D01*
X324508Y-9530D01*
X324410Y-9686D01*
X324325Y-9869D01*
X324311Y-9897D01*
X324297Y-9967D01*
X324269Y-10080D01*
X324226Y-10235D01*
X324184Y-10447D01*
X324156Y-10700D01*
X324142Y-10997D01*
X324128Y-11335D01*
Y-15000D01*
X322929D01*
Y-7923D01*
X324001D01*
Y-8938D01*
X324015Y-8910D01*
X324057Y-8854D01*
X324142Y-8755D01*
X324240Y-8642D01*
X324367Y-8501D01*
X324522Y-8360D01*
X324692Y-8219D01*
X324889Y-8092D01*
X324917Y-8078D01*
X324988Y-8036D01*
X325100Y-7994D01*
X325255Y-7923D01*
X325439Y-7867D01*
X325650Y-7825D01*
X325890Y-7782D01*
X326143Y-7768D01*
X326270D01*
X326426Y-7782D01*
X326595Y-7811D01*
X326806Y-7853D01*
X327018Y-7909D01*
X327229Y-7994D01*
X327426Y-8107D01*
X327454Y-8121D01*
X327511Y-8163D01*
X327595Y-8234D01*
X327708Y-8346D01*
X327821Y-8473D01*
X327948Y-8628D01*
X328061Y-8811D01*
X328145Y-9023D01*
X328159Y-9009D01*
X328188Y-8967D01*
X328230Y-8910D01*
X328300Y-8826D01*
X328385Y-8727D01*
X328484Y-8628D01*
X328596Y-8515D01*
X328737Y-8389D01*
X328892Y-8276D01*
X329048Y-8163D01*
X329231Y-8064D01*
X329428Y-7966D01*
X329640Y-7881D01*
X329865Y-7825D01*
X330091Y-7782D01*
X330344Y-7768D01*
X330443D01*
X330514Y-7782D01*
D02*
G37*
G36*
X282922Y-9291D02*
X281555D01*
Y-7923D01*
X282922D01*
Y-9291D01*
D02*
G37*
G36*
X310665Y-5217D02*
X310735D01*
X310834Y-5231D01*
X311074Y-5273D01*
X311342Y-5329D01*
X311638Y-5428D01*
X311934Y-5555D01*
X312230Y-5724D01*
X312244D01*
X312258Y-5752D01*
X312300Y-5781D01*
X312357Y-5823D01*
X312498Y-5936D01*
X312681Y-6091D01*
X312864Y-6302D01*
X313076Y-6556D01*
X313259Y-6852D01*
X313428Y-7190D01*
Y-7204D01*
X313442Y-7233D01*
X313470Y-7289D01*
X313498Y-7359D01*
X313527Y-7458D01*
X313569Y-7585D01*
X313597Y-7726D01*
X313640Y-7881D01*
X313682Y-8064D01*
X313724Y-8276D01*
X313752Y-8501D01*
X313780Y-8741D01*
X313809Y-9009D01*
X313837Y-9291D01*
X313851Y-9601D01*
Y-9925D01*
Y-9939D01*
Y-10010D01*
Y-10108D01*
Y-10235D01*
X313837Y-10390D01*
Y-10574D01*
X313823Y-10785D01*
X313794Y-10997D01*
X313752Y-11476D01*
X313682Y-11983D01*
X313583Y-12463D01*
X313513Y-12702D01*
X313442Y-12914D01*
Y-12928D01*
X313428Y-12956D01*
X313400Y-13012D01*
X313372Y-13097D01*
X313329Y-13182D01*
X313273Y-13294D01*
X313132Y-13534D01*
X312963Y-13802D01*
X312766Y-14084D01*
X312512Y-14352D01*
X312230Y-14591D01*
X312216D01*
X312188Y-14619D01*
X312145Y-14648D01*
X312089Y-14676D01*
X312004Y-14718D01*
X311920Y-14775D01*
X311807Y-14831D01*
X311694Y-14873D01*
X311426Y-14986D01*
X311102Y-15085D01*
X310750Y-15141D01*
X310355Y-15169D01*
X310242D01*
X310172Y-15155D01*
X310073D01*
X309960Y-15141D01*
X309692Y-15085D01*
X309396Y-15014D01*
X309086Y-14901D01*
X308776Y-14746D01*
X308621Y-14648D01*
X308480Y-14535D01*
X308466Y-14521D01*
X308452Y-14507D01*
X308410Y-14464D01*
X308367Y-14422D01*
X308311Y-14352D01*
X308240Y-14267D01*
X308099Y-14070D01*
X307958Y-13816D01*
X307817Y-13506D01*
X307705Y-13153D01*
X307620Y-12744D01*
X308776Y-12646D01*
Y-12660D01*
X308790Y-12688D01*
Y-12716D01*
X308804Y-12773D01*
X308846Y-12928D01*
X308903Y-13097D01*
X308973Y-13294D01*
X309072Y-13492D01*
X309185Y-13675D01*
X309326Y-13830D01*
X309340Y-13844D01*
X309396Y-13886D01*
X309495Y-13943D01*
X309608Y-13999D01*
X309763Y-14070D01*
X309946Y-14126D01*
X310158Y-14168D01*
X310383Y-14182D01*
X310482D01*
X310580Y-14168D01*
X310707Y-14154D01*
X310862Y-14126D01*
X311017Y-14084D01*
X311187Y-14027D01*
X311342Y-13943D01*
X311356Y-13929D01*
X311412Y-13901D01*
X311497Y-13844D01*
X311581Y-13759D01*
X311694Y-13661D01*
X311807Y-13548D01*
X311920Y-13421D01*
X312032Y-13266D01*
X312047Y-13252D01*
X312075Y-13182D01*
X312131Y-13083D01*
X312188Y-12956D01*
X312258Y-12787D01*
X312328Y-12589D01*
X312399Y-12364D01*
X312469Y-12110D01*
Y-12096D01*
X312484Y-12082D01*
Y-12040D01*
X312498Y-11983D01*
X312526Y-11842D01*
X312568Y-11659D01*
X312596Y-11434D01*
X312624Y-11194D01*
X312639Y-10926D01*
X312653Y-10644D01*
Y-10630D01*
Y-10588D01*
Y-10517D01*
Y-10404D01*
X312639Y-10433D01*
X312582Y-10503D01*
X312498Y-10602D01*
X312399Y-10743D01*
X312258Y-10884D01*
X312089Y-11039D01*
X311891Y-11194D01*
X311666Y-11335D01*
X311638Y-11349D01*
X311553Y-11391D01*
X311426Y-11448D01*
X311271Y-11504D01*
X311060Y-11574D01*
X310834Y-11631D01*
X310580Y-11673D01*
X310313Y-11687D01*
X310200D01*
X310115Y-11673D01*
X310002Y-11659D01*
X309890Y-11645D01*
X309749Y-11617D01*
X309608Y-11574D01*
X309284Y-11476D01*
X309114Y-11405D01*
X308945Y-11321D01*
X308762Y-11222D01*
X308593Y-11095D01*
X308424Y-10968D01*
X308269Y-10813D01*
X308254Y-10799D01*
X308226Y-10771D01*
X308198Y-10729D01*
X308142Y-10658D01*
X308071Y-10560D01*
X308001Y-10461D01*
X307930Y-10334D01*
X307860Y-10193D01*
X307775Y-10038D01*
X307705Y-9869D01*
X307634Y-9671D01*
X307564Y-9474D01*
X307507Y-9248D01*
X307479Y-9009D01*
X307451Y-8769D01*
X307437Y-8501D01*
Y-8487D01*
Y-8431D01*
Y-8360D01*
X307451Y-8262D01*
X307465Y-8135D01*
X307479Y-7980D01*
X307507Y-7825D01*
X307550Y-7641D01*
X307648Y-7275D01*
X307719Y-7078D01*
X307803Y-6866D01*
X307902Y-6669D01*
X308029Y-6485D01*
X308156Y-6288D01*
X308311Y-6119D01*
X308325Y-6105D01*
X308353Y-6077D01*
X308395Y-6034D01*
X308466Y-5978D01*
X308550Y-5907D01*
X308663Y-5823D01*
X308776Y-5752D01*
X308917Y-5654D01*
X309058Y-5569D01*
X309227Y-5499D01*
X309608Y-5344D01*
X309805Y-5287D01*
X310031Y-5245D01*
X310256Y-5217D01*
X310496Y-5203D01*
X310595D01*
X310665Y-5217D01*
D02*
G37*
G36*
X320054Y-11560D02*
X321379D01*
Y-12660D01*
X320054D01*
Y-15000D01*
X318855D01*
Y-12660D01*
X314612D01*
Y-11560D01*
X319081Y-5245D01*
X320054D01*
Y-11560D01*
D02*
G37*
G36*
X305689Y-15000D02*
X304321D01*
Y-13633D01*
X305689D01*
Y-15000D01*
D02*
G37*
G36*
X302461Y-6316D02*
X302446Y-6330D01*
X302418Y-6359D01*
X302362Y-6415D01*
X302306Y-6500D01*
X302221Y-6598D01*
X302108Y-6711D01*
X301995Y-6852D01*
X301868Y-7021D01*
X301742Y-7190D01*
X301586Y-7388D01*
X301432Y-7613D01*
X301276Y-7839D01*
X301107Y-8092D01*
X300938Y-8360D01*
X300769Y-8656D01*
X300600Y-8952D01*
X300586Y-8967D01*
X300557Y-9023D01*
X300515Y-9107D01*
X300445Y-9234D01*
X300374Y-9389D01*
X300290Y-9559D01*
X300191Y-9756D01*
X300092Y-9981D01*
X299979Y-10235D01*
X299853Y-10489D01*
X299740Y-10771D01*
X299627Y-11067D01*
X299401Y-11673D01*
X299190Y-12322D01*
Y-12336D01*
X299176Y-12378D01*
X299162Y-12449D01*
X299134Y-12533D01*
X299105Y-12646D01*
X299077Y-12787D01*
X299035Y-12942D01*
X299007Y-13111D01*
X298965Y-13308D01*
X298922Y-13520D01*
X298852Y-13971D01*
X298781Y-14464D01*
X298739Y-15000D01*
X297512D01*
Y-14986D01*
Y-14944D01*
Y-14887D01*
X297527Y-14803D01*
Y-14690D01*
X297541Y-14549D01*
X297555Y-14394D01*
X297569Y-14225D01*
X297597Y-14027D01*
X297625Y-13830D01*
X297668Y-13590D01*
X297710Y-13351D01*
X297752Y-13097D01*
X297808Y-12815D01*
X297950Y-12237D01*
Y-12223D01*
X297964Y-12167D01*
X297992Y-12082D01*
X298034Y-11955D01*
X298076Y-11814D01*
X298133Y-11645D01*
X298189Y-11448D01*
X298274Y-11236D01*
X298358Y-10997D01*
X298443Y-10757D01*
X298654Y-10221D01*
X298908Y-9657D01*
X299190Y-9093D01*
X299204Y-9079D01*
X299232Y-9023D01*
X299275Y-8952D01*
X299331Y-8840D01*
X299401Y-8713D01*
X299500Y-8558D01*
X299599Y-8389D01*
X299712Y-8205D01*
X299979Y-7796D01*
X300261Y-7373D01*
X300586Y-6937D01*
X300924Y-6528D01*
X296145D01*
Y-5372D01*
X302461D01*
Y-6316D01*
D02*
G37*
G36*
X291944Y-5217D02*
X292057Y-5231D01*
X292198Y-5245D01*
X292353Y-5273D01*
X292508Y-5301D01*
X292875Y-5400D01*
X293241Y-5541D01*
X293424Y-5626D01*
X293608Y-5724D01*
X293777Y-5851D01*
X293932Y-5992D01*
X293946Y-6006D01*
X293974Y-6020D01*
X294002Y-6077D01*
X294059Y-6133D01*
X294129Y-6204D01*
X294200Y-6302D01*
X294270Y-6401D01*
X294355Y-6528D01*
X294496Y-6796D01*
X294637Y-7134D01*
X294693Y-7303D01*
X294721Y-7500D01*
X294750Y-7698D01*
X294764Y-7909D01*
Y-7937D01*
Y-8008D01*
X294750Y-8121D01*
X294735Y-8276D01*
X294707Y-8445D01*
X294651Y-8642D01*
X294594Y-8854D01*
X294510Y-9065D01*
X294496Y-9093D01*
X294468Y-9164D01*
X294411Y-9277D01*
X294327Y-9432D01*
X294214Y-9601D01*
X294073Y-9812D01*
X293904Y-10024D01*
X293706Y-10263D01*
X293678Y-10292D01*
X293608Y-10376D01*
X293537Y-10447D01*
X293467Y-10517D01*
X293382Y-10602D01*
X293269Y-10714D01*
X293157Y-10827D01*
X293016Y-10954D01*
X292875Y-11095D01*
X292705Y-11250D01*
X292522Y-11405D01*
X292325Y-11588D01*
X292099Y-11772D01*
X291874Y-11969D01*
X291860Y-11983D01*
X291831Y-12011D01*
X291775Y-12054D01*
X291705Y-12110D01*
X291620Y-12195D01*
X291521Y-12279D01*
X291296Y-12463D01*
X291056Y-12674D01*
X290830Y-12886D01*
X290633Y-13069D01*
X290549Y-13139D01*
X290478Y-13210D01*
X290464Y-13224D01*
X290422Y-13266D01*
X290365Y-13322D01*
X290295Y-13407D01*
X290224Y-13506D01*
X290140Y-13604D01*
X289971Y-13844D01*
X294778D01*
Y-15000D01*
X288307D01*
Y-14986D01*
Y-14929D01*
Y-14845D01*
X288321Y-14732D01*
X288335Y-14605D01*
X288364Y-14464D01*
X288392Y-14323D01*
X288448Y-14168D01*
Y-14154D01*
X288462Y-14140D01*
X288490Y-14056D01*
X288547Y-13929D01*
X288631Y-13759D01*
X288744Y-13562D01*
X288885Y-13337D01*
X289040Y-13111D01*
X289238Y-12871D01*
Y-12857D01*
X289266Y-12843D01*
X289336Y-12759D01*
X289463Y-12632D01*
X289646Y-12449D01*
X289858Y-12237D01*
X290126Y-11983D01*
X290450Y-11701D01*
X290802Y-11405D01*
X290816Y-11391D01*
X290873Y-11349D01*
X290957Y-11278D01*
X291056Y-11194D01*
X291183Y-11081D01*
X291338Y-10954D01*
X291493Y-10813D01*
X291676Y-10658D01*
X292029Y-10320D01*
X292381Y-9981D01*
X292550Y-9812D01*
X292705Y-9643D01*
X292846Y-9488D01*
X292959Y-9333D01*
Y-9319D01*
X292987Y-9305D01*
X293016Y-9262D01*
X293044Y-9206D01*
X293142Y-9051D01*
X293255Y-8868D01*
X293354Y-8642D01*
X293453Y-8403D01*
X293509Y-8135D01*
X293537Y-7881D01*
Y-7867D01*
Y-7853D01*
X293523Y-7768D01*
X293509Y-7627D01*
X293467Y-7472D01*
X293410Y-7275D01*
X293312Y-7078D01*
X293185Y-6880D01*
X293016Y-6683D01*
X292987Y-6655D01*
X292917Y-6598D01*
X292818Y-6528D01*
X292663Y-6429D01*
X292466Y-6345D01*
X292240Y-6260D01*
X291972Y-6204D01*
X291676Y-6189D01*
X291592D01*
X291535Y-6204D01*
X291366Y-6218D01*
X291169Y-6260D01*
X290957Y-6316D01*
X290718Y-6415D01*
X290492Y-6542D01*
X290281Y-6711D01*
X290253Y-6739D01*
X290196Y-6810D01*
X290112Y-6922D01*
X290027Y-7092D01*
X289928Y-7289D01*
X289844Y-7543D01*
X289787Y-7825D01*
X289759Y-8149D01*
X288533Y-8022D01*
Y-8008D01*
X288547Y-7966D01*
Y-7895D01*
X288561Y-7796D01*
X288589Y-7684D01*
X288617Y-7557D01*
X288660Y-7402D01*
X288702Y-7247D01*
X288815Y-6908D01*
X288984Y-6570D01*
X289083Y-6401D01*
X289209Y-6232D01*
X289336Y-6077D01*
X289477Y-5936D01*
X289491Y-5922D01*
X289520Y-5907D01*
X289562Y-5865D01*
X289632Y-5823D01*
X289717Y-5767D01*
X289816Y-5710D01*
X289928Y-5640D01*
X290069Y-5569D01*
X290224Y-5499D01*
X290394Y-5428D01*
X290577Y-5372D01*
X290774Y-5315D01*
X290986Y-5273D01*
X291211Y-5231D01*
X291451Y-5217D01*
X291705Y-5203D01*
X291845D01*
X291944Y-5217D01*
D02*
G37*
G36*
X282922Y-15000D02*
X281555D01*
Y-13633D01*
X282922D01*
Y-15000D01*
D02*
G37*
G36*
X634306Y544718D02*
X634404D01*
X634503Y544704D01*
X634743Y544661D01*
X634996Y544591D01*
X635264Y544478D01*
X635532Y544337D01*
X635758Y544140D01*
X635786Y544112D01*
X635842Y544027D01*
X635941Y543900D01*
X635983Y543801D01*
X636040Y543703D01*
X636096Y543576D01*
X636138Y543449D01*
X636195Y543308D01*
X636237Y543139D01*
X636265Y542970D01*
X636293Y542772D01*
X636322Y542575D01*
Y542349D01*
Y537500D01*
X635123D01*
Y541940D01*
Y541955D01*
Y541969D01*
Y542053D01*
Y542180D01*
X635109Y542335D01*
X635095Y542504D01*
X635081Y542674D01*
X635053Y542843D01*
X635010Y542970D01*
Y542984D01*
X634982Y543026D01*
X634954Y543082D01*
X634912Y543153D01*
X634855Y543237D01*
X634785Y543322D01*
X634700Y543407D01*
X634588Y543491D01*
X634574Y543505D01*
X634531Y543519D01*
X634475Y543548D01*
X634376Y543590D01*
X634277Y543632D01*
X634151Y543660D01*
X634024Y543675D01*
X633869Y543689D01*
X633798D01*
X633742Y543675D01*
X633601Y543660D01*
X633432Y543632D01*
X633234Y543562D01*
X633023Y543477D01*
X632811Y543350D01*
X632614Y543181D01*
X632600Y543153D01*
X632544Y543082D01*
X632459Y542970D01*
X632374Y542800D01*
X632276Y542575D01*
X632205Y542307D01*
X632149Y541983D01*
X632121Y541602D01*
Y537500D01*
X630922D01*
Y542081D01*
Y542096D01*
Y542124D01*
Y542152D01*
Y542208D01*
X630908Y542364D01*
X630880Y542533D01*
X630852Y542730D01*
X630796Y542927D01*
X630725Y543111D01*
X630626Y543280D01*
X630612Y543294D01*
X630570Y543350D01*
X630499Y543407D01*
X630401Y543491D01*
X630274Y543562D01*
X630105Y543632D01*
X629907Y543675D01*
X629668Y543689D01*
X629583D01*
X629484Y543675D01*
X629372Y543660D01*
X629231Y543618D01*
X629062Y543576D01*
X628907Y543505D01*
X628737Y543421D01*
X628723Y543407D01*
X628667Y543364D01*
X628596Y543308D01*
X628498Y543223D01*
X628399Y543111D01*
X628300Y542970D01*
X628202Y542815D01*
X628117Y542631D01*
X628103Y542603D01*
X628089Y542533D01*
X628061Y542420D01*
X628018Y542265D01*
X627976Y542053D01*
X627948Y541800D01*
X627934Y541503D01*
X627920Y541165D01*
Y537500D01*
X626721D01*
Y544577D01*
X627793D01*
Y543562D01*
X627807Y543590D01*
X627849Y543646D01*
X627934Y543745D01*
X628032Y543858D01*
X628159Y543999D01*
X628315Y544140D01*
X628484Y544281D01*
X628681Y544408D01*
X628709Y544422D01*
X628780Y544464D01*
X628892Y544506D01*
X629048Y544577D01*
X629231Y544633D01*
X629442Y544675D01*
X629682Y544718D01*
X629936Y544732D01*
X630062D01*
X630218Y544718D01*
X630387Y544689D01*
X630598Y544647D01*
X630810Y544591D01*
X631021Y544506D01*
X631218Y544393D01*
X631247Y544379D01*
X631303Y544337D01*
X631388Y544267D01*
X631500Y544154D01*
X631613Y544027D01*
X631740Y543872D01*
X631853Y543689D01*
X631937Y543477D01*
X631951Y543491D01*
X631980Y543534D01*
X632022Y543590D01*
X632093Y543675D01*
X632177Y543773D01*
X632276Y543872D01*
X632388Y543985D01*
X632529Y544112D01*
X632685Y544224D01*
X632840Y544337D01*
X633023Y544436D01*
X633220Y544534D01*
X633432Y544619D01*
X633657Y544675D01*
X633883Y544718D01*
X634137Y544732D01*
X634235D01*
X634306Y544718D01*
D02*
G37*
G36*
X622943D02*
X623042D01*
X623141Y544704D01*
X623381Y544661D01*
X623634Y544591D01*
X623902Y544478D01*
X624170Y544337D01*
X624395Y544140D01*
X624424Y544112D01*
X624480Y544027D01*
X624579Y543900D01*
X624621Y543801D01*
X624677Y543703D01*
X624734Y543576D01*
X624776Y543449D01*
X624832Y543308D01*
X624875Y543139D01*
X624903Y542970D01*
X624931Y542772D01*
X624959Y542575D01*
Y542349D01*
Y537500D01*
X623761D01*
Y541940D01*
Y541955D01*
Y541969D01*
Y542053D01*
Y542180D01*
X623747Y542335D01*
X623733Y542504D01*
X623719Y542674D01*
X623691Y542843D01*
X623648Y542970D01*
Y542984D01*
X623620Y543026D01*
X623592Y543082D01*
X623550Y543153D01*
X623493Y543237D01*
X623423Y543322D01*
X623338Y543407D01*
X623225Y543491D01*
X623211Y543505D01*
X623169Y543519D01*
X623113Y543548D01*
X623014Y543590D01*
X622915Y543632D01*
X622788Y543660D01*
X622662Y543675D01*
X622506Y543689D01*
X622436D01*
X622380Y543675D01*
X622239Y543660D01*
X622070Y543632D01*
X621872Y543562D01*
X621661Y543477D01*
X621449Y543350D01*
X621252Y543181D01*
X621238Y543153D01*
X621181Y543082D01*
X621097Y542970D01*
X621012Y542800D01*
X620914Y542575D01*
X620843Y542307D01*
X620787Y541983D01*
X620759Y541602D01*
Y537500D01*
X619560D01*
Y542081D01*
Y542096D01*
Y542124D01*
Y542152D01*
Y542208D01*
X619546Y542364D01*
X619518Y542533D01*
X619490Y542730D01*
X619433Y542927D01*
X619363Y543111D01*
X619264Y543280D01*
X619250Y543294D01*
X619208Y543350D01*
X619137Y543407D01*
X619039Y543491D01*
X618912Y543562D01*
X618743Y543632D01*
X618545Y543675D01*
X618306Y543689D01*
X618221D01*
X618122Y543675D01*
X618010Y543660D01*
X617869Y543618D01*
X617699Y543576D01*
X617544Y543505D01*
X617375Y543421D01*
X617361Y543407D01*
X617305Y543364D01*
X617234Y543308D01*
X617136Y543223D01*
X617037Y543111D01*
X616938Y542970D01*
X616839Y542815D01*
X616755Y542631D01*
X616741Y542603D01*
X616727Y542533D01*
X616698Y542420D01*
X616656Y542265D01*
X616614Y542053D01*
X616586Y541800D01*
X616572Y541503D01*
X616558Y541165D01*
Y537500D01*
X615359D01*
Y544577D01*
X616431D01*
Y543562D01*
X616445Y543590D01*
X616487Y543646D01*
X616572Y543745D01*
X616670Y543858D01*
X616797Y543999D01*
X616952Y544140D01*
X617121Y544281D01*
X617319Y544408D01*
X617347Y544422D01*
X617417Y544464D01*
X617530Y544506D01*
X617685Y544577D01*
X617869Y544633D01*
X618080Y544675D01*
X618320Y544718D01*
X618573Y544732D01*
X618700D01*
X618855Y544718D01*
X619025Y544689D01*
X619236Y544647D01*
X619448Y544591D01*
X619659Y544506D01*
X619856Y544393D01*
X619884Y544379D01*
X619941Y544337D01*
X620025Y544267D01*
X620138Y544154D01*
X620251Y544027D01*
X620378Y543872D01*
X620491Y543689D01*
X620575Y543477D01*
X620589Y543491D01*
X620617Y543534D01*
X620660Y543590D01*
X620730Y543675D01*
X620815Y543773D01*
X620914Y543872D01*
X621026Y543985D01*
X621167Y544112D01*
X621322Y544224D01*
X621477Y544337D01*
X621661Y544436D01*
X621858Y544534D01*
X622070Y544619D01*
X622295Y544675D01*
X622521Y544718D01*
X622774Y544732D01*
X622873D01*
X622943Y544718D01*
D02*
G37*
G36*
X582936Y543209D02*
X581569D01*
Y544577D01*
X582936D01*
Y543209D01*
D02*
G37*
G36*
X572547Y541630D02*
Y537500D01*
X571250D01*
Y541630D01*
X567486Y547255D01*
X569051D01*
X570968Y544295D01*
Y544281D01*
X570996Y544253D01*
X571024Y544210D01*
X571053Y544154D01*
X571109Y544083D01*
X571165Y543999D01*
X571292Y543787D01*
X571447Y543534D01*
X571616Y543252D01*
X571800Y542956D01*
X571969Y542645D01*
Y542659D01*
X571983Y542688D01*
X572011Y542730D01*
X572053Y542786D01*
X572096Y542857D01*
X572152Y542941D01*
X572279Y543153D01*
X572434Y543407D01*
X572617Y543703D01*
X572829Y544027D01*
X573054Y544379D01*
X574929Y547255D01*
X576437D01*
X572547Y541630D01*
D02*
G37*
G36*
X594496Y545986D02*
X590591D01*
X590069Y543350D01*
X590083Y543364D01*
X590112Y543378D01*
X590154Y543407D01*
X590224Y543449D01*
X590309Y543491D01*
X590408Y543548D01*
X590633Y543660D01*
X590915Y543773D01*
X591225Y543872D01*
X591564Y543942D01*
X591733Y543970D01*
X592043D01*
X592127Y543956D01*
X592240Y543942D01*
X592367Y543928D01*
X592508Y543900D01*
X592663Y543858D01*
X593002Y543759D01*
X593185Y543689D01*
X593368Y543590D01*
X593551Y543491D01*
X593735Y543378D01*
X593904Y543237D01*
X594073Y543082D01*
X594087Y543068D01*
X594115Y543040D01*
X594157Y542998D01*
X594214Y542927D01*
X594284Y542829D01*
X594355Y542730D01*
X594439Y542603D01*
X594524Y542462D01*
X594594Y542307D01*
X594679Y542138D01*
X594749Y541940D01*
X594820Y541743D01*
X594876Y541532D01*
X594919Y541292D01*
X594947Y541052D01*
X594961Y540799D01*
Y540785D01*
Y540742D01*
Y540672D01*
X594947Y540573D01*
X594933Y540460D01*
X594919Y540334D01*
X594891Y540178D01*
X594862Y540023D01*
X594778Y539657D01*
X594637Y539276D01*
X594552Y539079D01*
X594439Y538896D01*
X594327Y538698D01*
X594186Y538515D01*
X594171Y538501D01*
X594143Y538459D01*
X594087Y538402D01*
X594016Y538332D01*
X593918Y538247D01*
X593805Y538134D01*
X593664Y538036D01*
X593509Y537923D01*
X593340Y537810D01*
X593143Y537711D01*
X592931Y537613D01*
X592705Y537514D01*
X592466Y537444D01*
X592198Y537387D01*
X591916Y537345D01*
X591620Y537331D01*
X591493D01*
X591394Y537345D01*
X591282Y537359D01*
X591155Y537373D01*
X591000Y537387D01*
X590845Y537430D01*
X590492Y537514D01*
X590140Y537641D01*
X589957Y537725D01*
X589773Y537824D01*
X589604Y537937D01*
X589435Y538064D01*
X589421Y538078D01*
X589393Y538092D01*
X589365Y538148D01*
X589308Y538205D01*
X589238Y538275D01*
X589167Y538360D01*
X589082Y538473D01*
X589012Y538600D01*
X588927Y538726D01*
X588843Y538881D01*
X588688Y539220D01*
X588561Y539614D01*
X588519Y539826D01*
X588490Y540051D01*
X589745Y540150D01*
Y540136D01*
Y540108D01*
X589759Y540066D01*
X589773Y539995D01*
X589816Y539840D01*
X589872Y539629D01*
X589957Y539417D01*
X590069Y539178D01*
X590210Y538966D01*
X590379Y538769D01*
X590408Y538755D01*
X590464Y538698D01*
X590577Y538628D01*
X590732Y538543D01*
X590901Y538459D01*
X591113Y538388D01*
X591352Y538332D01*
X591620Y538318D01*
X591705D01*
X591761Y538332D01*
X591930Y538346D01*
X592127Y538402D01*
X592367Y538473D01*
X592607Y538586D01*
X592860Y538755D01*
X592973Y538853D01*
X593086Y538966D01*
X593100Y538980D01*
X593114Y538994D01*
X593143Y539037D01*
X593185Y539079D01*
X593283Y539234D01*
X593396Y539431D01*
X593495Y539671D01*
X593594Y539967D01*
X593664Y540319D01*
X593692Y540503D01*
Y540700D01*
Y540714D01*
Y540742D01*
Y540799D01*
X593678Y540869D01*
Y540954D01*
X593664Y541052D01*
X593622Y541278D01*
X593551Y541546D01*
X593453Y541814D01*
X593312Y542067D01*
X593114Y542307D01*
Y542321D01*
X593086Y542335D01*
X593016Y542406D01*
X592889Y542504D01*
X592719Y542617D01*
X592494Y542716D01*
X592240Y542815D01*
X591944Y542885D01*
X591775Y542913D01*
X591507D01*
X591394Y542899D01*
X591254Y542885D01*
X591084Y542843D01*
X590915Y542800D01*
X590732Y542730D01*
X590549Y542645D01*
X590535Y542631D01*
X590478Y542603D01*
X590393Y542533D01*
X590281Y542462D01*
X590168Y542364D01*
X590055Y542237D01*
X589928Y542110D01*
X589830Y541955D01*
X588702Y542110D01*
X589646Y547128D01*
X594496D01*
Y545986D01*
D02*
G37*
G36*
X605703Y537500D02*
X604336D01*
Y538867D01*
X605703D01*
Y537500D01*
D02*
G37*
G36*
X582936D02*
X581569D01*
Y538867D01*
X582936D01*
Y537500D01*
D02*
G37*
G36*
X610834Y547283D02*
X610947Y547269D01*
X611074Y547255D01*
X611215Y547241D01*
X611356Y547199D01*
X611694Y547114D01*
X612032Y546987D01*
X612202Y546903D01*
X612371Y546804D01*
X612526Y546677D01*
X612681Y546550D01*
X612695Y546536D01*
X612709Y546522D01*
X612751Y546480D01*
X612808Y546423D01*
X612864Y546339D01*
X612935Y546254D01*
X613076Y546043D01*
X613217Y545775D01*
X613344Y545465D01*
X613442Y545112D01*
X613456Y544929D01*
X613470Y544732D01*
Y544718D01*
Y544704D01*
Y544619D01*
X613456Y544492D01*
X613428Y544337D01*
X613386Y544140D01*
X613315Y543942D01*
X613231Y543745D01*
X613104Y543548D01*
X613090Y543519D01*
X613033Y543463D01*
X612949Y543378D01*
X612836Y543266D01*
X612681Y543139D01*
X612498Y543012D01*
X612286Y542885D01*
X612032Y542772D01*
X612047D01*
X612075Y542758D01*
X612117Y542744D01*
X612173Y542716D01*
X612343Y542645D01*
X612540Y542547D01*
X612751Y542406D01*
X612977Y542251D01*
X613188Y542053D01*
X613386Y541828D01*
Y541814D01*
X613400Y541800D01*
X613456Y541715D01*
X613541Y541574D01*
X613625Y541391D01*
X613710Y541165D01*
X613795Y540897D01*
X613851Y540601D01*
X613865Y540277D01*
Y540263D01*
Y540221D01*
Y540150D01*
X613851Y540066D01*
X613837Y539967D01*
X613823Y539840D01*
X613795Y539699D01*
X613752Y539544D01*
X613654Y539220D01*
X613583Y539037D01*
X613484Y538867D01*
X613386Y538684D01*
X613273Y538515D01*
X613132Y538346D01*
X612977Y538177D01*
X612963Y538163D01*
X612935Y538134D01*
X612892Y538092D01*
X612822Y538050D01*
X612723Y537979D01*
X612625Y537909D01*
X612498Y537838D01*
X612357Y537754D01*
X612202Y537669D01*
X612018Y537599D01*
X611821Y537528D01*
X611624Y537458D01*
X611398Y537415D01*
X611158Y537373D01*
X610919Y537345D01*
X610651Y537331D01*
X610510D01*
X610411Y537345D01*
X610284Y537359D01*
X610143Y537373D01*
X609988Y537401D01*
X609819Y537444D01*
X609439Y537542D01*
X609241Y537613D01*
X609058Y537683D01*
X608861Y537782D01*
X608663Y537895D01*
X608480Y538022D01*
X608311Y538177D01*
X608297Y538191D01*
X608269Y538219D01*
X608226Y538261D01*
X608170Y538332D01*
X608114Y538416D01*
X608029Y538515D01*
X607958Y538628D01*
X607874Y538769D01*
X607789Y538910D01*
X607719Y539079D01*
X607578Y539431D01*
X607521Y539643D01*
X607479Y539854D01*
X607451Y540080D01*
X607437Y540305D01*
Y540319D01*
Y540348D01*
Y540404D01*
X607451Y540460D01*
Y540545D01*
X607465Y540644D01*
X607493Y540869D01*
X607550Y541123D01*
X607634Y541377D01*
X607761Y541645D01*
X607916Y541898D01*
Y541912D01*
X607944Y541926D01*
X608001Y541997D01*
X608114Y542110D01*
X608269Y542251D01*
X608466Y542392D01*
X608705Y542547D01*
X608973Y542674D01*
X609298Y542772D01*
X609283D01*
X609269Y542786D01*
X609227Y542800D01*
X609171Y542829D01*
X609044Y542885D01*
X608875Y542970D01*
X608691Y543082D01*
X608508Y543223D01*
X608339Y543378D01*
X608184Y543548D01*
X608170Y543576D01*
X608128Y543632D01*
X608071Y543745D01*
X608015Y543886D01*
X607944Y544069D01*
X607888Y544281D01*
X607846Y544520D01*
X607831Y544774D01*
Y544788D01*
Y544816D01*
Y544873D01*
X607846Y544957D01*
X607860Y545042D01*
X607874Y545155D01*
X607930Y545394D01*
X608015Y545676D01*
X608156Y545972D01*
X608240Y546127D01*
X608339Y546282D01*
X608466Y546423D01*
X608593Y546564D01*
X608607Y546578D01*
X608635Y546593D01*
X608677Y546635D01*
X608734Y546677D01*
X608804Y546734D01*
X608903Y546790D01*
X609016Y546860D01*
X609128Y546931D01*
X609269Y547001D01*
X609425Y547072D01*
X609594Y547128D01*
X609777Y547185D01*
X610172Y547269D01*
X610397Y547283D01*
X610623Y547297D01*
X610750D01*
X610834Y547283D01*
D02*
G37*
G36*
X599543D02*
X599726Y547255D01*
X599937Y547213D01*
X600163Y547156D01*
X600402Y547086D01*
X600628Y546973D01*
X600642D01*
X600656Y546959D01*
X600727Y546917D01*
X600839Y546846D01*
X600980Y546748D01*
X601135Y546607D01*
X601305Y546452D01*
X601460Y546268D01*
X601615Y546057D01*
X601629Y546029D01*
X601685Y545958D01*
X601742Y545831D01*
X601840Y545648D01*
X601925Y545437D01*
X602038Y545197D01*
X602136Y544915D01*
X602221Y544605D01*
Y544591D01*
X602235Y544563D01*
X602249Y544520D01*
X602263Y544450D01*
X602277Y544365D01*
X602291Y544267D01*
X602320Y544140D01*
X602334Y543999D01*
X602362Y543844D01*
X602376Y543675D01*
X602390Y543477D01*
X602418Y543280D01*
X602432Y543054D01*
Y542829D01*
X602447Y542575D01*
Y542307D01*
Y542293D01*
Y542237D01*
Y542138D01*
Y542025D01*
X602432Y541870D01*
Y541701D01*
X602418Y541518D01*
X602404Y541320D01*
X602362Y540869D01*
X602291Y540404D01*
X602207Y539953D01*
X602150Y539741D01*
X602080Y539530D01*
Y539516D01*
X602066Y539488D01*
X602038Y539431D01*
X602010Y539361D01*
X601981Y539262D01*
X601925Y539163D01*
X601812Y538924D01*
X601671Y538670D01*
X601488Y538388D01*
X601276Y538134D01*
X601023Y537895D01*
X601009D01*
X600994Y537867D01*
X600952Y537838D01*
X600896Y537810D01*
X600825Y537768D01*
X600755Y537711D01*
X600543Y537613D01*
X600290Y537514D01*
X599994Y537415D01*
X599641Y537359D01*
X599260Y537331D01*
X599120D01*
X599021Y537345D01*
X598908Y537359D01*
X598767Y537387D01*
X598612Y537415D01*
X598443Y537458D01*
X598274Y537514D01*
X598091Y537570D01*
X597907Y537655D01*
X597724Y537754D01*
X597541Y537867D01*
X597357Y538008D01*
X597188Y538163D01*
X597033Y538332D01*
X597019Y538346D01*
X596991Y538388D01*
X596949Y538459D01*
X596878Y538571D01*
X596808Y538698D01*
X596737Y538867D01*
X596638Y539065D01*
X596554Y539290D01*
X596469Y539544D01*
X596385Y539840D01*
X596300Y540164D01*
X596230Y540531D01*
X596159Y540926D01*
X596117Y541348D01*
X596089Y541814D01*
X596075Y542307D01*
Y542321D01*
Y542378D01*
Y542476D01*
Y542589D01*
X596089Y542744D01*
Y542913D01*
X596103Y543097D01*
X596117Y543308D01*
X596159Y543745D01*
X596230Y544210D01*
X596314Y544675D01*
X596371Y544887D01*
X596427Y545098D01*
Y545112D01*
X596441Y545141D01*
X596469Y545197D01*
X596497Y545267D01*
X596526Y545366D01*
X596582Y545465D01*
X596695Y545704D01*
X596836Y545958D01*
X597019Y546226D01*
X597231Y546494D01*
X597484Y546719D01*
X597498D01*
X597513Y546748D01*
X597555Y546776D01*
X597611Y546804D01*
X597682Y546860D01*
X597766Y546903D01*
X597978Y547015D01*
X598232Y547114D01*
X598527Y547213D01*
X598880Y547269D01*
X599260Y547297D01*
X599387D01*
X599543Y547283D01*
D02*
G37*
G36*
X592127Y562283D02*
X592226D01*
X592339Y562269D01*
X592607Y562213D01*
X592903Y562142D01*
X593213Y562030D01*
X593523Y561860D01*
X593678Y561762D01*
X593819Y561649D01*
X593833Y561635D01*
X593847Y561621D01*
X593890Y561578D01*
X593932Y561536D01*
X594002Y561466D01*
X594059Y561381D01*
X594214Y561184D01*
X594369Y560930D01*
X594510Y560620D01*
X594637Y560267D01*
X594721Y559873D01*
X593523Y559774D01*
Y559788D01*
X593509Y559802D01*
X593495Y559887D01*
X593453Y560014D01*
X593396Y560169D01*
X593340Y560338D01*
X593255Y560507D01*
X593157Y560662D01*
X593058Y560789D01*
X593030Y560817D01*
X592973Y560874D01*
X592875Y560958D01*
X592734Y561057D01*
X592550Y561142D01*
X592353Y561226D01*
X592113Y561282D01*
X591860Y561311D01*
X591761D01*
X591648Y561297D01*
X591521Y561268D01*
X591352Y561226D01*
X591183Y561170D01*
X591014Y561099D01*
X590845Y560986D01*
X590816Y560972D01*
X590746Y560916D01*
X590647Y560817D01*
X590520Y560676D01*
X590379Y560507D01*
X590224Y560310D01*
X590083Y560056D01*
X589942Y559774D01*
Y559760D01*
X589928Y559732D01*
X589914Y559689D01*
X589886Y559633D01*
X589872Y559548D01*
X589844Y559450D01*
X589816Y559337D01*
X589787Y559196D01*
X589745Y559041D01*
X589717Y558872D01*
X589689Y558689D01*
X589675Y558491D01*
X589646Y558266D01*
X589632Y558040D01*
X589618Y557786D01*
Y557533D01*
X589632Y557547D01*
X589689Y557631D01*
X589787Y557744D01*
X589914Y557885D01*
X590055Y558054D01*
X590238Y558209D01*
X590436Y558364D01*
X590661Y558505D01*
X590676D01*
X590690Y558519D01*
X590774Y558562D01*
X590901Y558604D01*
X591070Y558675D01*
X591268Y558731D01*
X591493Y558773D01*
X591733Y558815D01*
X591987Y558830D01*
X592099D01*
X592184Y558815D01*
X592297Y558801D01*
X592409Y558787D01*
X592550Y558759D01*
X592691Y558717D01*
X593016Y558618D01*
X593185Y558548D01*
X593354Y558449D01*
X593523Y558350D01*
X593706Y558237D01*
X593876Y558097D01*
X594031Y557942D01*
X594045Y557927D01*
X594073Y557899D01*
X594115Y557857D01*
X594157Y557786D01*
X594228Y557688D01*
X594298Y557589D01*
X594369Y557462D01*
X594454Y557321D01*
X594538Y557166D01*
X594608Y556997D01*
X594679Y556800D01*
X594749Y556602D01*
X594792Y556391D01*
X594834Y556151D01*
X594862Y555911D01*
X594876Y555658D01*
Y555644D01*
Y555615D01*
Y555573D01*
Y555503D01*
X594862Y555418D01*
Y555334D01*
X594820Y555108D01*
X594778Y554840D01*
X594707Y554558D01*
X594608Y554248D01*
X594468Y553952D01*
Y553938D01*
X594454Y553924D01*
X594425Y553881D01*
X594397Y553825D01*
X594313Y553684D01*
X594186Y553501D01*
X594031Y553303D01*
X593847Y553106D01*
X593622Y552909D01*
X593382Y552740D01*
X593368D01*
X593354Y552726D01*
X593312Y552697D01*
X593255Y552683D01*
X593114Y552613D01*
X592931Y552542D01*
X592691Y552458D01*
X592424Y552401D01*
X592127Y552345D01*
X591803Y552331D01*
X591733D01*
X591662Y552345D01*
X591549D01*
X591423Y552359D01*
X591282Y552387D01*
X591113Y552430D01*
X590943Y552472D01*
X590746Y552528D01*
X590549Y552599D01*
X590351Y552683D01*
X590140Y552796D01*
X589942Y552923D01*
X589745Y553064D01*
X589548Y553233D01*
X589365Y553430D01*
X589350Y553445D01*
X589322Y553487D01*
X589280Y553543D01*
X589224Y553642D01*
X589139Y553769D01*
X589068Y553910D01*
X588984Y554093D01*
X588899Y554290D01*
X588801Y554530D01*
X588716Y554798D01*
X588646Y555094D01*
X588575Y555418D01*
X588504Y555785D01*
X588462Y556179D01*
X588434Y556602D01*
X588420Y557053D01*
Y557067D01*
Y557081D01*
Y557124D01*
Y557180D01*
X588434Y557321D01*
Y557519D01*
X588448Y557744D01*
X588476Y558012D01*
X588504Y558308D01*
X588547Y558632D01*
X588603Y558956D01*
X588674Y559309D01*
X588758Y559647D01*
X588857Y559986D01*
X588984Y560310D01*
X589125Y560620D01*
X589280Y560916D01*
X589463Y561170D01*
X589477Y561184D01*
X589505Y561212D01*
X589562Y561268D01*
X589632Y561353D01*
X589717Y561437D01*
X589830Y561522D01*
X589971Y561635D01*
X590112Y561734D01*
X590281Y561832D01*
X590464Y561945D01*
X590676Y562030D01*
X590887Y562128D01*
X591127Y562199D01*
X591380Y562255D01*
X591648Y562283D01*
X591930Y562297D01*
X592043D01*
X592127Y562283D01*
D02*
G37*
G36*
X572786Y557617D02*
X576437Y552500D01*
X574845D01*
X572378Y555968D01*
X572364Y555982D01*
X572335Y556024D01*
X572307Y556081D01*
X572251Y556151D01*
X572124Y556348D01*
X571983Y556560D01*
X571969Y556546D01*
X571926Y556489D01*
X571870Y556405D01*
X571800Y556292D01*
X571645Y556067D01*
X571574Y555968D01*
X571518Y555883D01*
X569051Y552500D01*
X567500D01*
X571264Y557547D01*
X567937Y562255D01*
X569474D01*
X571250Y559746D01*
Y559732D01*
X571278Y559718D01*
X571306Y559675D01*
X571348Y559619D01*
X571433Y559478D01*
X571560Y559309D01*
X571687Y559112D01*
X571814Y558914D01*
X571926Y558731D01*
X572025Y558562D01*
X572039Y558590D01*
X572081Y558646D01*
X572152Y558759D01*
X572251Y558900D01*
X572364Y559055D01*
X572504Y559253D01*
X572645Y559450D01*
X572815Y559661D01*
X574760Y562255D01*
X576170D01*
X572786Y557617D01*
D02*
G37*
G36*
X634292Y559718D02*
X634390D01*
X634489Y559704D01*
X634729Y559661D01*
X634982Y559591D01*
X635250Y559478D01*
X635518Y559337D01*
X635744Y559140D01*
X635772Y559112D01*
X635828Y559027D01*
X635927Y558900D01*
X635969Y558801D01*
X636026Y558703D01*
X636082Y558576D01*
X636124Y558449D01*
X636181Y558308D01*
X636223Y558139D01*
X636251Y557970D01*
X636279Y557772D01*
X636307Y557575D01*
Y557349D01*
Y552500D01*
X635109D01*
Y556941D01*
Y556955D01*
Y556969D01*
Y557053D01*
Y557180D01*
X635095Y557335D01*
X635081Y557504D01*
X635067Y557674D01*
X635039Y557843D01*
X634996Y557970D01*
Y557984D01*
X634968Y558026D01*
X634940Y558082D01*
X634898Y558153D01*
X634841Y558237D01*
X634771Y558322D01*
X634686Y558407D01*
X634574Y558491D01*
X634559Y558505D01*
X634517Y558519D01*
X634461Y558548D01*
X634362Y558590D01*
X634263Y558632D01*
X634137Y558660D01*
X634010Y558675D01*
X633855Y558689D01*
X633784D01*
X633728Y558675D01*
X633587Y558660D01*
X633418Y558632D01*
X633220Y558562D01*
X633009Y558477D01*
X632797Y558350D01*
X632600Y558181D01*
X632586Y558153D01*
X632529Y558082D01*
X632445Y557970D01*
X632360Y557800D01*
X632262Y557575D01*
X632191Y557307D01*
X632135Y556983D01*
X632107Y556602D01*
Y552500D01*
X630908D01*
Y557081D01*
Y557096D01*
Y557124D01*
Y557152D01*
Y557208D01*
X630894Y557364D01*
X630866Y557533D01*
X630838Y557730D01*
X630781Y557927D01*
X630711Y558111D01*
X630612Y558280D01*
X630598Y558294D01*
X630556Y558350D01*
X630485Y558407D01*
X630387Y558491D01*
X630260Y558562D01*
X630091Y558632D01*
X629893Y558675D01*
X629654Y558689D01*
X629569D01*
X629470Y558675D01*
X629358Y558660D01*
X629217Y558618D01*
X629048Y558576D01*
X628892Y558505D01*
X628723Y558421D01*
X628709Y558407D01*
X628653Y558364D01*
X628582Y558308D01*
X628484Y558223D01*
X628385Y558111D01*
X628286Y557970D01*
X628188Y557815D01*
X628103Y557631D01*
X628089Y557603D01*
X628075Y557533D01*
X628047Y557420D01*
X628004Y557265D01*
X627962Y557053D01*
X627934Y556800D01*
X627920Y556504D01*
X627906Y556165D01*
Y552500D01*
X626707D01*
Y559577D01*
X627779D01*
Y558562D01*
X627793Y558590D01*
X627835Y558646D01*
X627920Y558745D01*
X628018Y558858D01*
X628145Y558999D01*
X628300Y559140D01*
X628470Y559281D01*
X628667Y559408D01*
X628695Y559422D01*
X628766Y559464D01*
X628878Y559506D01*
X629033Y559577D01*
X629217Y559633D01*
X629428Y559675D01*
X629668Y559718D01*
X629921Y559732D01*
X630048D01*
X630204Y559718D01*
X630373Y559689D01*
X630584Y559647D01*
X630796Y559591D01*
X631007Y559506D01*
X631204Y559393D01*
X631232Y559379D01*
X631289Y559337D01*
X631373Y559267D01*
X631486Y559154D01*
X631599Y559027D01*
X631726Y558872D01*
X631839Y558689D01*
X631923Y558477D01*
X631937Y558491D01*
X631966Y558534D01*
X632008Y558590D01*
X632078Y558675D01*
X632163Y558773D01*
X632262Y558872D01*
X632374Y558985D01*
X632515Y559112D01*
X632670Y559224D01*
X632826Y559337D01*
X633009Y559436D01*
X633206Y559534D01*
X633418Y559619D01*
X633643Y559675D01*
X633869Y559718D01*
X634122Y559732D01*
X634221D01*
X634292Y559718D01*
D02*
G37*
G36*
X622929D02*
X623028D01*
X623127Y559704D01*
X623366Y559661D01*
X623620Y559591D01*
X623888Y559478D01*
X624156Y559337D01*
X624381Y559140D01*
X624410Y559112D01*
X624466Y559027D01*
X624565Y558900D01*
X624607Y558801D01*
X624663Y558703D01*
X624720Y558576D01*
X624762Y558449D01*
X624818Y558308D01*
X624861Y558139D01*
X624889Y557970D01*
X624917Y557772D01*
X624945Y557575D01*
Y557349D01*
Y552500D01*
X623747D01*
Y556941D01*
Y556955D01*
Y556969D01*
Y557053D01*
Y557180D01*
X623733Y557335D01*
X623719Y557504D01*
X623705Y557674D01*
X623677Y557843D01*
X623634Y557970D01*
Y557984D01*
X623606Y558026D01*
X623578Y558082D01*
X623536Y558153D01*
X623479Y558237D01*
X623409Y558322D01*
X623324Y558407D01*
X623211Y558491D01*
X623197Y558505D01*
X623155Y558519D01*
X623099Y558548D01*
X623000Y558590D01*
X622901Y558632D01*
X622774Y558660D01*
X622648Y558675D01*
X622492Y558689D01*
X622422D01*
X622365Y558675D01*
X622225Y558660D01*
X622055Y558632D01*
X621858Y558562D01*
X621647Y558477D01*
X621435Y558350D01*
X621238Y558181D01*
X621224Y558153D01*
X621167Y558082D01*
X621083Y557970D01*
X620998Y557800D01*
X620899Y557575D01*
X620829Y557307D01*
X620773Y556983D01*
X620744Y556602D01*
Y552500D01*
X619546D01*
Y557081D01*
Y557096D01*
Y557124D01*
Y557152D01*
Y557208D01*
X619532Y557364D01*
X619504Y557533D01*
X619476Y557730D01*
X619419Y557927D01*
X619349Y558111D01*
X619250Y558280D01*
X619236Y558294D01*
X619194Y558350D01*
X619123Y558407D01*
X619025Y558491D01*
X618898Y558562D01*
X618728Y558632D01*
X618531Y558675D01*
X618292Y558689D01*
X618207D01*
X618108Y558675D01*
X617995Y558660D01*
X617854Y558618D01*
X617685Y558576D01*
X617530Y558505D01*
X617361Y558421D01*
X617347Y558407D01*
X617291Y558364D01*
X617220Y558308D01*
X617121Y558223D01*
X617023Y558111D01*
X616924Y557970D01*
X616825Y557815D01*
X616741Y557631D01*
X616727Y557603D01*
X616713Y557533D01*
X616684Y557420D01*
X616642Y557265D01*
X616600Y557053D01*
X616572Y556800D01*
X616558Y556504D01*
X616544Y556165D01*
Y552500D01*
X615345D01*
Y559577D01*
X616417D01*
Y558562D01*
X616431Y558590D01*
X616473Y558646D01*
X616558Y558745D01*
X616656Y558858D01*
X616783Y558999D01*
X616938Y559140D01*
X617107Y559281D01*
X617305Y559408D01*
X617333Y559422D01*
X617403Y559464D01*
X617516Y559506D01*
X617671Y559577D01*
X617854Y559633D01*
X618066Y559675D01*
X618306Y559718D01*
X618559Y559732D01*
X618686D01*
X618841Y559718D01*
X619010Y559689D01*
X619222Y559647D01*
X619433Y559591D01*
X619645Y559506D01*
X619842Y559393D01*
X619870Y559379D01*
X619927Y559337D01*
X620011Y559267D01*
X620124Y559154D01*
X620237Y559027D01*
X620364Y558872D01*
X620476Y558689D01*
X620561Y558477D01*
X620575Y558491D01*
X620603Y558534D01*
X620646Y558590D01*
X620716Y558675D01*
X620801Y558773D01*
X620899Y558872D01*
X621012Y558985D01*
X621153Y559112D01*
X621308Y559224D01*
X621463Y559337D01*
X621647Y559436D01*
X621844Y559534D01*
X622055Y559619D01*
X622281Y559675D01*
X622506Y559718D01*
X622760Y559732D01*
X622859D01*
X622929Y559718D01*
D02*
G37*
G36*
X582922Y558209D02*
X581555D01*
Y559577D01*
X582922D01*
Y558209D01*
D02*
G37*
G36*
X599416Y562283D02*
X599599Y562255D01*
X599824Y562213D01*
X600078Y562142D01*
X600332Y562058D01*
X600586Y561945D01*
X600600D01*
X600614Y561931D01*
X600698Y561889D01*
X600825Y561804D01*
X600966Y561705D01*
X601135Y561564D01*
X601305Y561409D01*
X601474Y561226D01*
X601615Y561015D01*
X601629Y560986D01*
X601671Y560916D01*
X601727Y560789D01*
X601798Y560634D01*
X601869Y560451D01*
X601925Y560239D01*
X601967Y560000D01*
X601981Y559760D01*
Y559732D01*
Y559647D01*
X601967Y559534D01*
X601939Y559379D01*
X601897Y559196D01*
X601826Y558999D01*
X601742Y558801D01*
X601629Y558604D01*
X601615Y558576D01*
X601572Y558519D01*
X601488Y558421D01*
X601375Y558308D01*
X601234Y558181D01*
X601065Y558040D01*
X600868Y557913D01*
X600628Y557786D01*
X600642D01*
X600670Y557772D01*
X600713Y557758D01*
X600769Y557744D01*
X600924Y557688D01*
X601121Y557603D01*
X601347Y557490D01*
X601572Y557349D01*
X601784Y557166D01*
X601981Y556955D01*
X601995Y556926D01*
X602052Y556842D01*
X602136Y556701D01*
X602221Y556518D01*
X602305Y556292D01*
X602390Y556024D01*
X602447Y555714D01*
X602461Y555376D01*
Y555362D01*
Y555319D01*
Y555249D01*
X602447Y555164D01*
X602432Y555052D01*
X602404Y554925D01*
X602376Y554784D01*
X602348Y554629D01*
X602235Y554290D01*
X602150Y554107D01*
X602066Y553938D01*
X601953Y553755D01*
X601826Y553571D01*
X601685Y553388D01*
X601516Y553219D01*
X601502Y553205D01*
X601474Y553177D01*
X601417Y553134D01*
X601347Y553078D01*
X601262Y553008D01*
X601149Y552937D01*
X601023Y552852D01*
X600868Y552782D01*
X600713Y552697D01*
X600529Y552613D01*
X600346Y552542D01*
X600135Y552472D01*
X599909Y552415D01*
X599669Y552373D01*
X599430Y552345D01*
X599162Y552331D01*
X599035D01*
X598950Y552345D01*
X598838Y552359D01*
X598711Y552373D01*
X598570Y552401D01*
X598415Y552430D01*
X598076Y552514D01*
X597724Y552655D01*
X597541Y552740D01*
X597372Y552838D01*
X597202Y552965D01*
X597033Y553092D01*
X597019Y553106D01*
X596991Y553134D01*
X596949Y553177D01*
X596906Y553233D01*
X596836Y553303D01*
X596765Y553402D01*
X596681Y553501D01*
X596596Y553628D01*
X596512Y553769D01*
X596427Y553910D01*
X596272Y554248D01*
X596145Y554643D01*
X596103Y554854D01*
X596075Y555080D01*
X597273Y555235D01*
Y555221D01*
X597287Y555192D01*
X597301Y555136D01*
X597315Y555066D01*
X597329Y554981D01*
X597357Y554882D01*
X597428Y554671D01*
X597527Y554417D01*
X597654Y554178D01*
X597794Y553952D01*
X597964Y553755D01*
X597992Y553741D01*
X598048Y553684D01*
X598161Y553614D01*
X598302Y553543D01*
X598471Y553459D01*
X598683Y553388D01*
X598922Y553332D01*
X599176Y553318D01*
X599260D01*
X599317Y553332D01*
X599472Y553346D01*
X599669Y553388D01*
X599895Y553459D01*
X600135Y553557D01*
X600374Y553698D01*
X600600Y553896D01*
X600628Y553924D01*
X600698Y554008D01*
X600783Y554135D01*
X600896Y554304D01*
X601009Y554516D01*
X601093Y554756D01*
X601164Y555037D01*
X601192Y555348D01*
Y555362D01*
Y555390D01*
Y555432D01*
X601178Y555489D01*
X601164Y555644D01*
X601121Y555827D01*
X601065Y556053D01*
X600966Y556278D01*
X600825Y556504D01*
X600642Y556715D01*
X600614Y556743D01*
X600543Y556800D01*
X600431Y556884D01*
X600275Y556983D01*
X600078Y557081D01*
X599838Y557166D01*
X599571Y557223D01*
X599275Y557251D01*
X599148D01*
X599049Y557237D01*
X598922Y557223D01*
X598781Y557194D01*
X598612Y557166D01*
X598429Y557124D01*
X598570Y558181D01*
X598640D01*
X598697Y558167D01*
X598880D01*
X599035Y558195D01*
X599218Y558223D01*
X599430Y558266D01*
X599669Y558336D01*
X599895Y558435D01*
X600135Y558562D01*
X600149D01*
X600163Y558576D01*
X600233Y558632D01*
X600332Y558731D01*
X600445Y558858D01*
X600558Y559041D01*
X600656Y559253D01*
X600727Y559492D01*
X600755Y559633D01*
Y559788D01*
Y559802D01*
Y559816D01*
Y559901D01*
X600727Y560014D01*
X600698Y560169D01*
X600642Y560338D01*
X600572Y560521D01*
X600459Y560704D01*
X600304Y560874D01*
X600290Y560888D01*
X600219Y560944D01*
X600121Y561015D01*
X599994Y561099D01*
X599824Y561170D01*
X599627Y561240D01*
X599402Y561297D01*
X599148Y561311D01*
X599035D01*
X598908Y561282D01*
X598739Y561254D01*
X598556Y561198D01*
X598372Y561127D01*
X598175Y561015D01*
X597992Y560874D01*
X597978Y560859D01*
X597921Y560789D01*
X597837Y560690D01*
X597738Y560549D01*
X597639Y560366D01*
X597541Y560141D01*
X597456Y559873D01*
X597400Y559563D01*
X596202Y559774D01*
Y559788D01*
X596216Y559831D01*
X596230Y559887D01*
X596244Y559971D01*
X596272Y560070D01*
X596314Y560183D01*
X596399Y560451D01*
X596540Y560761D01*
X596709Y561071D01*
X596920Y561367D01*
X597188Y561635D01*
X597202Y561649D01*
X597231Y561663D01*
X597273Y561691D01*
X597329Y561734D01*
X597400Y561790D01*
X597498Y561846D01*
X597597Y561903D01*
X597724Y561973D01*
X598006Y562086D01*
X598330Y562199D01*
X598711Y562269D01*
X598908Y562297D01*
X599260D01*
X599416Y562283D01*
D02*
G37*
G36*
X613442Y560986D02*
X609537D01*
X609016Y558350D01*
X609030Y558364D01*
X609058Y558378D01*
X609100Y558407D01*
X609171Y558449D01*
X609255Y558491D01*
X609354Y558548D01*
X609580Y558660D01*
X609861Y558773D01*
X610172Y558872D01*
X610510Y558942D01*
X610679Y558970D01*
X610989D01*
X611074Y558956D01*
X611187Y558942D01*
X611314Y558928D01*
X611455Y558900D01*
X611609Y558858D01*
X611948Y558759D01*
X612131Y558689D01*
X612314Y558590D01*
X612498Y558491D01*
X612681Y558378D01*
X612850Y558237D01*
X613019Y558082D01*
X613033Y558068D01*
X613061Y558040D01*
X613104Y557998D01*
X613160Y557927D01*
X613231Y557829D01*
X613301Y557730D01*
X613386Y557603D01*
X613470Y557462D01*
X613541Y557307D01*
X613625Y557138D01*
X613696Y556941D01*
X613766Y556743D01*
X613823Y556532D01*
X613865Y556292D01*
X613893Y556053D01*
X613907Y555799D01*
Y555785D01*
Y555742D01*
Y555672D01*
X613893Y555573D01*
X613879Y555460D01*
X613865Y555334D01*
X613837Y555178D01*
X613809Y555023D01*
X613724Y554657D01*
X613583Y554276D01*
X613498Y554079D01*
X613386Y553896D01*
X613273Y553698D01*
X613132Y553515D01*
X613118Y553501D01*
X613090Y553459D01*
X613033Y553402D01*
X612963Y553332D01*
X612864Y553247D01*
X612751Y553134D01*
X612610Y553036D01*
X612455Y552923D01*
X612286Y552810D01*
X612089Y552711D01*
X611877Y552613D01*
X611652Y552514D01*
X611412Y552444D01*
X611144Y552387D01*
X610862Y552345D01*
X610566Y552331D01*
X610439D01*
X610341Y552345D01*
X610228Y552359D01*
X610101Y552373D01*
X609946Y552387D01*
X609791Y552430D01*
X609439Y552514D01*
X609086Y552641D01*
X608903Y552726D01*
X608720Y552824D01*
X608550Y552937D01*
X608381Y553064D01*
X608367Y553078D01*
X608339Y553092D01*
X608311Y553148D01*
X608254Y553205D01*
X608184Y553275D01*
X608114Y553360D01*
X608029Y553473D01*
X607958Y553600D01*
X607874Y553727D01*
X607789Y553881D01*
X607634Y554220D01*
X607507Y554615D01*
X607465Y554826D01*
X607437Y555052D01*
X608691Y555150D01*
Y555136D01*
Y555108D01*
X608705Y555066D01*
X608720Y554995D01*
X608762Y554840D01*
X608818Y554629D01*
X608903Y554417D01*
X609016Y554178D01*
X609157Y553966D01*
X609326Y553769D01*
X609354Y553755D01*
X609410Y553698D01*
X609523Y553628D01*
X609678Y553543D01*
X609847Y553459D01*
X610059Y553388D01*
X610299Y553332D01*
X610566Y553318D01*
X610651D01*
X610707Y553332D01*
X610877Y553346D01*
X611074Y553402D01*
X611314Y553473D01*
X611553Y553586D01*
X611807Y553755D01*
X611920Y553853D01*
X612032Y553966D01*
X612047Y553980D01*
X612061Y553994D01*
X612089Y554037D01*
X612131Y554079D01*
X612230Y554234D01*
X612343Y554431D01*
X612441Y554671D01*
X612540Y554967D01*
X612610Y555319D01*
X612639Y555503D01*
Y555700D01*
Y555714D01*
Y555742D01*
Y555799D01*
X612625Y555869D01*
Y555954D01*
X612610Y556053D01*
X612568Y556278D01*
X612498Y556546D01*
X612399Y556814D01*
X612258Y557067D01*
X612061Y557307D01*
Y557321D01*
X612032Y557335D01*
X611962Y557406D01*
X611835Y557504D01*
X611666Y557617D01*
X611440Y557716D01*
X611187Y557815D01*
X610891Y557885D01*
X610721Y557913D01*
X610454D01*
X610341Y557899D01*
X610200Y557885D01*
X610031Y557843D01*
X609861Y557800D01*
X609678Y557730D01*
X609495Y557645D01*
X609481Y557631D01*
X609425Y557603D01*
X609340Y557533D01*
X609227Y557462D01*
X609114Y557364D01*
X609002Y557237D01*
X608875Y557110D01*
X608776Y556955D01*
X607648Y557110D01*
X608593Y562128D01*
X613442D01*
Y560986D01*
D02*
G37*
G36*
X605689Y552500D02*
X604321D01*
Y553867D01*
X605689D01*
Y552500D01*
D02*
G37*
G36*
X582922D02*
X581555D01*
Y553867D01*
X582922D01*
Y552500D01*
D02*
G37*
G36*
X241806Y549718D02*
X241904D01*
X242003Y549704D01*
X242243Y549661D01*
X242496Y549591D01*
X242764Y549478D01*
X243032Y549337D01*
X243258Y549140D01*
X243286Y549112D01*
X243342Y549027D01*
X243441Y548900D01*
X243483Y548801D01*
X243540Y548703D01*
X243596Y548576D01*
X243638Y548449D01*
X243695Y548308D01*
X243737Y548139D01*
X243765Y547970D01*
X243793Y547772D01*
X243822Y547575D01*
Y547349D01*
Y542500D01*
X242623D01*
Y546941D01*
Y546955D01*
Y546969D01*
Y547053D01*
Y547180D01*
X242609Y547335D01*
X242595Y547504D01*
X242581Y547674D01*
X242553Y547843D01*
X242511Y547970D01*
Y547984D01*
X242482Y548026D01*
X242454Y548082D01*
X242412Y548153D01*
X242355Y548237D01*
X242285Y548322D01*
X242200Y548407D01*
X242088Y548491D01*
X242073Y548505D01*
X242031Y548519D01*
X241975Y548548D01*
X241876Y548590D01*
X241777Y548632D01*
X241651Y548660D01*
X241524Y548675D01*
X241369Y548689D01*
X241298D01*
X241242Y548675D01*
X241101Y548660D01*
X240932Y548632D01*
X240734Y548562D01*
X240523Y548477D01*
X240311Y548350D01*
X240114Y548181D01*
X240100Y548153D01*
X240044Y548082D01*
X239959Y547970D01*
X239874Y547800D01*
X239776Y547575D01*
X239705Y547307D01*
X239649Y546983D01*
X239621Y546602D01*
Y542500D01*
X238422D01*
Y547081D01*
Y547096D01*
Y547124D01*
Y547152D01*
Y547208D01*
X238408Y547364D01*
X238380Y547533D01*
X238352Y547730D01*
X238295Y547927D01*
X238225Y548111D01*
X238126Y548280D01*
X238112Y548294D01*
X238070Y548350D01*
X237999Y548407D01*
X237901Y548491D01*
X237774Y548562D01*
X237605Y548632D01*
X237407Y548675D01*
X237168Y548689D01*
X237083D01*
X236985Y548675D01*
X236872Y548660D01*
X236731Y548618D01*
X236562Y548576D01*
X236406Y548505D01*
X236237Y548421D01*
X236223Y548407D01*
X236167Y548364D01*
X236096Y548308D01*
X235998Y548223D01*
X235899Y548111D01*
X235800Y547970D01*
X235702Y547815D01*
X235617Y547631D01*
X235603Y547603D01*
X235589Y547533D01*
X235561Y547420D01*
X235518Y547265D01*
X235476Y547053D01*
X235448Y546800D01*
X235434Y546504D01*
X235420Y546165D01*
Y542500D01*
X234221D01*
Y549577D01*
X235293D01*
Y548562D01*
X235307Y548590D01*
X235349Y548646D01*
X235434Y548745D01*
X235532Y548858D01*
X235659Y548999D01*
X235814Y549140D01*
X235984Y549281D01*
X236181Y549408D01*
X236209Y549422D01*
X236280Y549464D01*
X236392Y549506D01*
X236548Y549577D01*
X236731Y549633D01*
X236942Y549675D01*
X237182Y549718D01*
X237436Y549732D01*
X237563D01*
X237718Y549718D01*
X237887Y549689D01*
X238098Y549647D01*
X238310Y549591D01*
X238521Y549506D01*
X238718Y549393D01*
X238747Y549379D01*
X238803Y549337D01*
X238888Y549267D01*
X239000Y549154D01*
X239113Y549027D01*
X239240Y548872D01*
X239353Y548689D01*
X239437Y548477D01*
X239452Y548491D01*
X239480Y548534D01*
X239522Y548590D01*
X239592Y548675D01*
X239677Y548773D01*
X239776Y548872D01*
X239888Y548985D01*
X240030Y549112D01*
X240184Y549224D01*
X240340Y549337D01*
X240523Y549436D01*
X240720Y549534D01*
X240932Y549619D01*
X241157Y549675D01*
X241383Y549718D01*
X241637Y549732D01*
X241735D01*
X241806Y549718D01*
D02*
G37*
G36*
X230443D02*
X230542D01*
X230641Y549704D01*
X230881Y549661D01*
X231134Y549591D01*
X231402Y549478D01*
X231670Y549337D01*
X231896Y549140D01*
X231924Y549112D01*
X231980Y549027D01*
X232079Y548900D01*
X232121Y548801D01*
X232177Y548703D01*
X232234Y548576D01*
X232276Y548449D01*
X232332Y548308D01*
X232375Y548139D01*
X232403Y547970D01*
X232431Y547772D01*
X232459Y547575D01*
Y547349D01*
Y542500D01*
X231261D01*
Y546941D01*
Y546955D01*
Y546969D01*
Y547053D01*
Y547180D01*
X231247Y547335D01*
X231233Y547504D01*
X231219Y547674D01*
X231191Y547843D01*
X231148Y547970D01*
Y547984D01*
X231120Y548026D01*
X231092Y548082D01*
X231050Y548153D01*
X230993Y548237D01*
X230923Y548322D01*
X230838Y548407D01*
X230725Y548491D01*
X230711Y548505D01*
X230669Y548519D01*
X230613Y548548D01*
X230514Y548590D01*
X230415Y548632D01*
X230288Y548660D01*
X230162Y548675D01*
X230007Y548689D01*
X229936D01*
X229880Y548675D01*
X229739Y548660D01*
X229569Y548632D01*
X229372Y548562D01*
X229161Y548477D01*
X228949Y548350D01*
X228752Y548181D01*
X228738Y548153D01*
X228681Y548082D01*
X228597Y547970D01*
X228512Y547800D01*
X228414Y547575D01*
X228343Y547307D01*
X228287Y546983D01*
X228258Y546602D01*
Y542500D01*
X227060D01*
Y547081D01*
Y547096D01*
Y547124D01*
Y547152D01*
Y547208D01*
X227046Y547364D01*
X227018Y547533D01*
X226990Y547730D01*
X226933Y547927D01*
X226863Y548111D01*
X226764Y548280D01*
X226750Y548294D01*
X226708Y548350D01*
X226637Y548407D01*
X226539Y548491D01*
X226412Y548562D01*
X226243Y548632D01*
X226045Y548675D01*
X225806Y548689D01*
X225721D01*
X225622Y548675D01*
X225510Y548660D01*
X225369Y548618D01*
X225199Y548576D01*
X225044Y548505D01*
X224875Y548421D01*
X224861Y548407D01*
X224805Y548364D01*
X224734Y548308D01*
X224636Y548223D01*
X224537Y548111D01*
X224438Y547970D01*
X224340Y547815D01*
X224255Y547631D01*
X224241Y547603D01*
X224227Y547533D01*
X224198Y547420D01*
X224156Y547265D01*
X224114Y547053D01*
X224086Y546800D01*
X224072Y546504D01*
X224058Y546165D01*
Y542500D01*
X222859D01*
Y549577D01*
X223931D01*
Y548562D01*
X223945Y548590D01*
X223987Y548646D01*
X224072Y548745D01*
X224170Y548858D01*
X224297Y548999D01*
X224452Y549140D01*
X224621Y549281D01*
X224819Y549408D01*
X224847Y549422D01*
X224918Y549464D01*
X225030Y549506D01*
X225185Y549577D01*
X225369Y549633D01*
X225580Y549675D01*
X225820Y549718D01*
X226073Y549732D01*
X226200D01*
X226355Y549718D01*
X226525Y549689D01*
X226736Y549647D01*
X226947Y549591D01*
X227159Y549506D01*
X227356Y549393D01*
X227384Y549379D01*
X227441Y549337D01*
X227525Y549267D01*
X227638Y549154D01*
X227751Y549027D01*
X227878Y548872D01*
X227991Y548689D01*
X228075Y548477D01*
X228089Y548491D01*
X228118Y548534D01*
X228160Y548590D01*
X228230Y548675D01*
X228315Y548773D01*
X228414Y548872D01*
X228526Y548985D01*
X228667Y549112D01*
X228822Y549224D01*
X228977Y549337D01*
X229161Y549436D01*
X229358Y549534D01*
X229569Y549619D01*
X229795Y549675D01*
X230021Y549718D01*
X230274Y549732D01*
X230373D01*
X230443Y549718D01*
D02*
G37*
G36*
X190436Y548209D02*
X189069D01*
Y549577D01*
X190436D01*
Y548209D01*
D02*
G37*
G36*
X180047Y546630D02*
Y542500D01*
X178750D01*
Y546630D01*
X174986Y552255D01*
X176551D01*
X178468Y549295D01*
Y549281D01*
X178496Y549253D01*
X178524Y549210D01*
X178552Y549154D01*
X178609Y549083D01*
X178665Y548999D01*
X178792Y548787D01*
X178947Y548534D01*
X179116Y548252D01*
X179300Y547956D01*
X179469Y547645D01*
Y547659D01*
X179483Y547688D01*
X179511Y547730D01*
X179553Y547786D01*
X179596Y547857D01*
X179652Y547941D01*
X179779Y548153D01*
X179934Y548407D01*
X180117Y548703D01*
X180329Y549027D01*
X180554Y549379D01*
X182429Y552255D01*
X183937D01*
X180047Y546630D01*
D02*
G37*
G36*
X201996Y550986D02*
X198091D01*
X197569Y548350D01*
X197583Y548364D01*
X197612Y548378D01*
X197654Y548407D01*
X197724Y548449D01*
X197809Y548491D01*
X197908Y548548D01*
X198133Y548660D01*
X198415Y548773D01*
X198725Y548872D01*
X199064Y548942D01*
X199233Y548970D01*
X199543D01*
X199627Y548956D01*
X199740Y548942D01*
X199867Y548928D01*
X200008Y548900D01*
X200163Y548858D01*
X200501Y548759D01*
X200685Y548689D01*
X200868Y548590D01*
X201051Y548491D01*
X201234Y548378D01*
X201404Y548237D01*
X201573Y548082D01*
X201587Y548068D01*
X201615Y548040D01*
X201657Y547998D01*
X201714Y547927D01*
X201784Y547829D01*
X201855Y547730D01*
X201939Y547603D01*
X202024Y547462D01*
X202094Y547307D01*
X202179Y547138D01*
X202250Y546941D01*
X202320Y546743D01*
X202376Y546532D01*
X202419Y546292D01*
X202447Y546053D01*
X202461Y545799D01*
Y545785D01*
Y545742D01*
Y545672D01*
X202447Y545573D01*
X202433Y545460D01*
X202419Y545334D01*
X202390Y545178D01*
X202362Y545023D01*
X202278Y544657D01*
X202137Y544276D01*
X202052Y544079D01*
X201939Y543896D01*
X201827Y543698D01*
X201686Y543515D01*
X201672Y543501D01*
X201643Y543459D01*
X201587Y543402D01*
X201516Y543332D01*
X201418Y543247D01*
X201305Y543134D01*
X201164Y543036D01*
X201009Y542923D01*
X200840Y542810D01*
X200642Y542711D01*
X200431Y542613D01*
X200205Y542514D01*
X199966Y542444D01*
X199698Y542387D01*
X199416Y542345D01*
X199120Y542331D01*
X198993D01*
X198894Y542345D01*
X198782Y542359D01*
X198655Y542373D01*
X198500Y542387D01*
X198345Y542430D01*
X197992Y542514D01*
X197640Y542641D01*
X197456Y542726D01*
X197273Y542824D01*
X197104Y542937D01*
X196935Y543064D01*
X196921Y543078D01*
X196893Y543092D01*
X196864Y543148D01*
X196808Y543205D01*
X196738Y543275D01*
X196667Y543360D01*
X196583Y543473D01*
X196512Y543600D01*
X196427Y543726D01*
X196343Y543881D01*
X196188Y544220D01*
X196061Y544615D01*
X196019Y544826D01*
X195990Y545052D01*
X197245Y545150D01*
Y545136D01*
Y545108D01*
X197259Y545066D01*
X197273Y544995D01*
X197316Y544840D01*
X197372Y544629D01*
X197456Y544417D01*
X197569Y544178D01*
X197710Y543966D01*
X197879Y543769D01*
X197908Y543755D01*
X197964Y543698D01*
X198077Y543628D01*
X198232Y543543D01*
X198401Y543459D01*
X198612Y543388D01*
X198852Y543332D01*
X199120Y543318D01*
X199205D01*
X199261Y543332D01*
X199430Y543346D01*
X199627Y543402D01*
X199867Y543473D01*
X200107Y543586D01*
X200361Y543755D01*
X200473Y543853D01*
X200586Y543966D01*
X200600Y543980D01*
X200614Y543994D01*
X200642Y544037D01*
X200685Y544079D01*
X200783Y544234D01*
X200896Y544431D01*
X200995Y544671D01*
X201094Y544967D01*
X201164Y545319D01*
X201192Y545503D01*
Y545700D01*
Y545714D01*
Y545742D01*
Y545799D01*
X201178Y545869D01*
Y545954D01*
X201164Y546053D01*
X201122Y546278D01*
X201051Y546546D01*
X200953Y546814D01*
X200812Y547067D01*
X200614Y547307D01*
Y547321D01*
X200586Y547335D01*
X200516Y547406D01*
X200389Y547504D01*
X200219Y547617D01*
X199994Y547716D01*
X199740Y547815D01*
X199444Y547885D01*
X199275Y547913D01*
X199007D01*
X198894Y547899D01*
X198754Y547885D01*
X198584Y547843D01*
X198415Y547800D01*
X198232Y547730D01*
X198049Y547645D01*
X198034Y547631D01*
X197978Y547603D01*
X197894Y547533D01*
X197781Y547462D01*
X197668Y547364D01*
X197555Y547237D01*
X197428Y547110D01*
X197330Y546955D01*
X196202Y547110D01*
X197146Y552128D01*
X201996D01*
Y550986D01*
D02*
G37*
G36*
X213203Y542500D02*
X211835D01*
Y543867D01*
X213203D01*
Y542500D01*
D02*
G37*
G36*
X190436D02*
X189069D01*
Y543867D01*
X190436D01*
Y542500D01*
D02*
G37*
G36*
X218334Y552283D02*
X218447Y552269D01*
X218574Y552255D01*
X218715Y552241D01*
X218856Y552199D01*
X219194Y552114D01*
X219532Y551987D01*
X219702Y551903D01*
X219871Y551804D01*
X220026Y551677D01*
X220181Y551550D01*
X220195Y551536D01*
X220209Y551522D01*
X220251Y551480D01*
X220308Y551423D01*
X220364Y551339D01*
X220435Y551254D01*
X220576Y551043D01*
X220717Y550775D01*
X220843Y550465D01*
X220942Y550112D01*
X220956Y549929D01*
X220970Y549732D01*
Y549718D01*
Y549704D01*
Y549619D01*
X220956Y549492D01*
X220928Y549337D01*
X220886Y549140D01*
X220815Y548942D01*
X220731Y548745D01*
X220604Y548548D01*
X220590Y548519D01*
X220533Y548463D01*
X220449Y548378D01*
X220336Y548266D01*
X220181Y548139D01*
X219998Y548012D01*
X219786Y547885D01*
X219532Y547772D01*
X219547D01*
X219575Y547758D01*
X219617Y547744D01*
X219673Y547716D01*
X219843Y547645D01*
X220040Y547547D01*
X220251Y547406D01*
X220477Y547251D01*
X220688Y547053D01*
X220886Y546828D01*
Y546814D01*
X220900Y546800D01*
X220956Y546715D01*
X221041Y546574D01*
X221125Y546391D01*
X221210Y546165D01*
X221295Y545897D01*
X221351Y545601D01*
X221365Y545277D01*
Y545263D01*
Y545221D01*
Y545150D01*
X221351Y545066D01*
X221337Y544967D01*
X221323Y544840D01*
X221295Y544699D01*
X221252Y544544D01*
X221154Y544220D01*
X221083Y544037D01*
X220984Y543867D01*
X220886Y543684D01*
X220773Y543515D01*
X220632Y543346D01*
X220477Y543177D01*
X220463Y543163D01*
X220435Y543134D01*
X220392Y543092D01*
X220322Y543050D01*
X220223Y542979D01*
X220124Y542909D01*
X219998Y542838D01*
X219857Y542754D01*
X219702Y542669D01*
X219518Y542599D01*
X219321Y542528D01*
X219124Y542458D01*
X218898Y542415D01*
X218658Y542373D01*
X218419Y542345D01*
X218151Y542331D01*
X218010D01*
X217911Y542345D01*
X217784Y542359D01*
X217643Y542373D01*
X217488Y542401D01*
X217319Y542444D01*
X216939Y542542D01*
X216741Y542613D01*
X216558Y542683D01*
X216361Y542782D01*
X216163Y542895D01*
X215980Y543022D01*
X215811Y543177D01*
X215797Y543191D01*
X215769Y543219D01*
X215726Y543261D01*
X215670Y543332D01*
X215613Y543416D01*
X215529Y543515D01*
X215458Y543628D01*
X215374Y543769D01*
X215289Y543910D01*
X215219Y544079D01*
X215078Y544431D01*
X215021Y544643D01*
X214979Y544854D01*
X214951Y545080D01*
X214937Y545305D01*
Y545319D01*
Y545348D01*
Y545404D01*
X214951Y545460D01*
Y545545D01*
X214965Y545644D01*
X214993Y545869D01*
X215050Y546123D01*
X215134Y546377D01*
X215261Y546645D01*
X215416Y546898D01*
Y546912D01*
X215444Y546926D01*
X215501Y546997D01*
X215613Y547110D01*
X215769Y547251D01*
X215966Y547392D01*
X216206Y547547D01*
X216473Y547674D01*
X216798Y547772D01*
X216784D01*
X216769Y547786D01*
X216727Y547800D01*
X216671Y547829D01*
X216544Y547885D01*
X216375Y547970D01*
X216191Y548082D01*
X216008Y548223D01*
X215839Y548378D01*
X215684Y548548D01*
X215670Y548576D01*
X215628Y548632D01*
X215571Y548745D01*
X215515Y548886D01*
X215444Y549069D01*
X215388Y549281D01*
X215346Y549520D01*
X215331Y549774D01*
Y549788D01*
Y549816D01*
Y549873D01*
X215346Y549957D01*
X215360Y550042D01*
X215374Y550155D01*
X215430Y550394D01*
X215515Y550676D01*
X215656Y550972D01*
X215740Y551127D01*
X215839Y551282D01*
X215966Y551423D01*
X216093Y551564D01*
X216107Y551578D01*
X216135Y551593D01*
X216177Y551635D01*
X216234Y551677D01*
X216304Y551734D01*
X216403Y551790D01*
X216516Y551860D01*
X216628Y551931D01*
X216769Y552001D01*
X216924Y552072D01*
X217094Y552128D01*
X217277Y552185D01*
X217672Y552269D01*
X217897Y552283D01*
X218123Y552297D01*
X218250D01*
X218334Y552283D01*
D02*
G37*
G36*
X207043D02*
X207226Y552255D01*
X207437Y552213D01*
X207663Y552156D01*
X207902Y552086D01*
X208128Y551973D01*
X208142D01*
X208156Y551959D01*
X208227Y551917D01*
X208339Y551846D01*
X208480Y551748D01*
X208635Y551607D01*
X208805Y551452D01*
X208960Y551268D01*
X209115Y551057D01*
X209129Y551029D01*
X209185Y550958D01*
X209242Y550831D01*
X209340Y550648D01*
X209425Y550437D01*
X209538Y550197D01*
X209636Y549915D01*
X209721Y549605D01*
Y549591D01*
X209735Y549563D01*
X209749Y549520D01*
X209763Y549450D01*
X209777Y549365D01*
X209791Y549267D01*
X209820Y549140D01*
X209834Y548999D01*
X209862Y548844D01*
X209876Y548675D01*
X209890Y548477D01*
X209918Y548280D01*
X209932Y548054D01*
Y547829D01*
X209946Y547575D01*
Y547307D01*
Y547293D01*
Y547237D01*
Y547138D01*
Y547025D01*
X209932Y546870D01*
Y546701D01*
X209918Y546518D01*
X209904Y546320D01*
X209862Y545869D01*
X209791Y545404D01*
X209707Y544953D01*
X209650Y544741D01*
X209580Y544530D01*
Y544516D01*
X209566Y544488D01*
X209538Y544431D01*
X209510Y544361D01*
X209481Y544262D01*
X209425Y544164D01*
X209312Y543924D01*
X209171Y543670D01*
X208988Y543388D01*
X208776Y543134D01*
X208523Y542895D01*
X208509D01*
X208494Y542867D01*
X208452Y542838D01*
X208396Y542810D01*
X208325Y542768D01*
X208255Y542711D01*
X208043Y542613D01*
X207790Y542514D01*
X207494Y542415D01*
X207141Y542359D01*
X206761Y542331D01*
X206620D01*
X206521Y542345D01*
X206408Y542359D01*
X206267Y542387D01*
X206112Y542415D01*
X205943Y542458D01*
X205774Y542514D01*
X205590Y542570D01*
X205407Y542655D01*
X205224Y542754D01*
X205041Y542867D01*
X204858Y543008D01*
X204688Y543163D01*
X204533Y543332D01*
X204519Y543346D01*
X204491Y543388D01*
X204449Y543459D01*
X204378Y543571D01*
X204308Y543698D01*
X204237Y543867D01*
X204139Y544065D01*
X204054Y544290D01*
X203969Y544544D01*
X203885Y544840D01*
X203800Y545164D01*
X203730Y545531D01*
X203659Y545926D01*
X203617Y546348D01*
X203589Y546814D01*
X203575Y547307D01*
Y547321D01*
Y547378D01*
Y547476D01*
Y547589D01*
X203589Y547744D01*
Y547913D01*
X203603Y548097D01*
X203617Y548308D01*
X203659Y548745D01*
X203730Y549210D01*
X203814Y549675D01*
X203871Y549887D01*
X203927Y550098D01*
Y550112D01*
X203941Y550141D01*
X203969Y550197D01*
X203997Y550267D01*
X204026Y550366D01*
X204082Y550465D01*
X204195Y550704D01*
X204336Y550958D01*
X204519Y551226D01*
X204731Y551494D01*
X204984Y551719D01*
X204998D01*
X205012Y551748D01*
X205055Y551776D01*
X205111Y551804D01*
X205182Y551860D01*
X205266Y551903D01*
X205478Y552015D01*
X205732Y552114D01*
X206028Y552213D01*
X206380Y552269D01*
X206761Y552297D01*
X206887D01*
X207043Y552283D01*
D02*
G37*
G36*
X233756Y567283D02*
X233855D01*
X233968Y567269D01*
X234236Y567213D01*
X234532Y567142D01*
X234842Y567030D01*
X235152Y566860D01*
X235307Y566762D01*
X235448Y566649D01*
X235462Y566635D01*
X235476Y566621D01*
X235518Y566578D01*
X235561Y566536D01*
X235631Y566466D01*
X235688Y566381D01*
X235843Y566184D01*
X235998Y565930D01*
X236139Y565620D01*
X236266Y565267D01*
X236350Y564873D01*
X235152Y564774D01*
Y564788D01*
X235138Y564802D01*
X235124Y564887D01*
X235081Y565014D01*
X235025Y565169D01*
X234969Y565338D01*
X234884Y565507D01*
X234785Y565662D01*
X234687Y565789D01*
X234659Y565817D01*
X234602Y565874D01*
X234503Y565958D01*
X234363Y566057D01*
X234179Y566142D01*
X233982Y566226D01*
X233742Y566282D01*
X233489Y566311D01*
X233390D01*
X233277Y566297D01*
X233150Y566268D01*
X232981Y566226D01*
X232812Y566170D01*
X232643Y566099D01*
X232474Y565986D01*
X232445Y565972D01*
X232375Y565916D01*
X232276Y565817D01*
X232149Y565676D01*
X232008Y565507D01*
X231853Y565310D01*
X231712Y565056D01*
X231571Y564774D01*
Y564760D01*
X231557Y564732D01*
X231543Y564689D01*
X231515Y564633D01*
X231501Y564548D01*
X231473Y564450D01*
X231444Y564337D01*
X231416Y564196D01*
X231374Y564041D01*
X231346Y563872D01*
X231318Y563689D01*
X231303Y563491D01*
X231275Y563266D01*
X231261Y563040D01*
X231247Y562786D01*
Y562533D01*
X231261Y562547D01*
X231318Y562631D01*
X231416Y562744D01*
X231543Y562885D01*
X231684Y563054D01*
X231867Y563209D01*
X232065Y563364D01*
X232290Y563505D01*
X232304D01*
X232318Y563519D01*
X232403Y563562D01*
X232530Y563604D01*
X232699Y563675D01*
X232896Y563731D01*
X233122Y563773D01*
X233362Y563815D01*
X233615Y563830D01*
X233728D01*
X233813Y563815D01*
X233925Y563801D01*
X234038Y563787D01*
X234179Y563759D01*
X234320Y563717D01*
X234644Y563618D01*
X234814Y563548D01*
X234983Y563449D01*
X235152Y563350D01*
X235335Y563237D01*
X235504Y563097D01*
X235659Y562941D01*
X235674Y562927D01*
X235702Y562899D01*
X235744Y562857D01*
X235786Y562786D01*
X235857Y562688D01*
X235927Y562589D01*
X235998Y562462D01*
X236082Y562321D01*
X236167Y562166D01*
X236237Y561997D01*
X236308Y561800D01*
X236378Y561602D01*
X236421Y561391D01*
X236463Y561151D01*
X236491Y560911D01*
X236505Y560658D01*
Y560644D01*
Y560615D01*
Y560573D01*
Y560503D01*
X236491Y560418D01*
Y560334D01*
X236449Y560108D01*
X236406Y559840D01*
X236336Y559558D01*
X236237Y559248D01*
X236096Y558952D01*
Y558938D01*
X236082Y558924D01*
X236054Y558881D01*
X236026Y558825D01*
X235941Y558684D01*
X235814Y558501D01*
X235659Y558303D01*
X235476Y558106D01*
X235251Y557909D01*
X235011Y557740D01*
X234997D01*
X234983Y557726D01*
X234940Y557697D01*
X234884Y557683D01*
X234743Y557613D01*
X234560Y557542D01*
X234320Y557458D01*
X234052Y557401D01*
X233756Y557345D01*
X233432Y557331D01*
X233362D01*
X233291Y557345D01*
X233178D01*
X233051Y557359D01*
X232910Y557387D01*
X232741Y557430D01*
X232572Y557472D01*
X232375Y557528D01*
X232177Y557599D01*
X231980Y557683D01*
X231769Y557796D01*
X231571Y557923D01*
X231374Y558064D01*
X231177Y558233D01*
X230993Y558430D01*
X230979Y558445D01*
X230951Y558487D01*
X230909Y558543D01*
X230852Y558642D01*
X230768Y558769D01*
X230697Y558910D01*
X230613Y559093D01*
X230528Y559290D01*
X230429Y559530D01*
X230345Y559798D01*
X230274Y560094D01*
X230204Y560418D01*
X230133Y560785D01*
X230091Y561179D01*
X230063Y561602D01*
X230049Y562053D01*
Y562067D01*
Y562081D01*
Y562124D01*
Y562180D01*
X230063Y562321D01*
Y562519D01*
X230077Y562744D01*
X230105Y563012D01*
X230133Y563308D01*
X230176Y563632D01*
X230232Y563956D01*
X230303Y564309D01*
X230387Y564647D01*
X230486Y564986D01*
X230613Y565310D01*
X230754Y565620D01*
X230909Y565916D01*
X231092Y566170D01*
X231106Y566184D01*
X231134Y566212D01*
X231191Y566268D01*
X231261Y566353D01*
X231346Y566437D01*
X231458Y566522D01*
X231600Y566635D01*
X231740Y566734D01*
X231910Y566832D01*
X232093Y566945D01*
X232304Y567030D01*
X232516Y567128D01*
X232755Y567199D01*
X233009Y567255D01*
X233277Y567283D01*
X233559Y567297D01*
X233672D01*
X233756Y567283D01*
D02*
G37*
G36*
X218588D02*
X218687D01*
X218799Y567269D01*
X219067Y567213D01*
X219363Y567142D01*
X219673Y567030D01*
X219984Y566860D01*
X220139Y566762D01*
X220280Y566649D01*
X220294Y566635D01*
X220308Y566621D01*
X220350Y566578D01*
X220392Y566536D01*
X220463Y566466D01*
X220519Y566381D01*
X220674Y566184D01*
X220829Y565930D01*
X220970Y565620D01*
X221097Y565267D01*
X221182Y564873D01*
X219984Y564774D01*
Y564788D01*
X219969Y564802D01*
X219955Y564887D01*
X219913Y565014D01*
X219857Y565169D01*
X219800Y565338D01*
X219716Y565507D01*
X219617Y565662D01*
X219518Y565789D01*
X219490Y565817D01*
X219434Y565874D01*
X219335Y565958D01*
X219194Y566057D01*
X219011Y566142D01*
X218813Y566226D01*
X218574Y566282D01*
X218320Y566311D01*
X218221D01*
X218109Y566297D01*
X217982Y566268D01*
X217813Y566226D01*
X217643Y566170D01*
X217474Y566099D01*
X217305Y565986D01*
X217277Y565972D01*
X217206Y565916D01*
X217108Y565817D01*
X216981Y565676D01*
X216840Y565507D01*
X216685Y565310D01*
X216544Y565056D01*
X216403Y564774D01*
Y564760D01*
X216389Y564732D01*
X216375Y564689D01*
X216346Y564633D01*
X216332Y564548D01*
X216304Y564450D01*
X216276Y564337D01*
X216248Y564196D01*
X216206Y564041D01*
X216177Y563872D01*
X216149Y563689D01*
X216135Y563491D01*
X216107Y563266D01*
X216093Y563040D01*
X216079Y562786D01*
Y562533D01*
X216093Y562547D01*
X216149Y562631D01*
X216248Y562744D01*
X216375Y562885D01*
X216516Y563054D01*
X216699Y563209D01*
X216896Y563364D01*
X217122Y563505D01*
X217136D01*
X217150Y563519D01*
X217235Y563562D01*
X217362Y563604D01*
X217531Y563675D01*
X217728Y563731D01*
X217954Y563773D01*
X218193Y563815D01*
X218447Y563830D01*
X218560D01*
X218644Y563815D01*
X218757Y563801D01*
X218870Y563787D01*
X219011Y563759D01*
X219152Y563717D01*
X219476Y563618D01*
X219645Y563548D01*
X219814Y563449D01*
X219984Y563350D01*
X220167Y563237D01*
X220336Y563097D01*
X220491Y562941D01*
X220505Y562927D01*
X220533Y562899D01*
X220576Y562857D01*
X220618Y562786D01*
X220688Y562688D01*
X220759Y562589D01*
X220829Y562462D01*
X220914Y562321D01*
X220998Y562166D01*
X221069Y561997D01*
X221140Y561800D01*
X221210Y561602D01*
X221252Y561391D01*
X221295Y561151D01*
X221323Y560911D01*
X221337Y560658D01*
Y560644D01*
Y560615D01*
Y560573D01*
Y560503D01*
X221323Y560418D01*
Y560334D01*
X221280Y560108D01*
X221238Y559840D01*
X221168Y559558D01*
X221069Y559248D01*
X220928Y558952D01*
Y558938D01*
X220914Y558924D01*
X220886Y558881D01*
X220858Y558825D01*
X220773Y558684D01*
X220646Y558501D01*
X220491Y558303D01*
X220308Y558106D01*
X220082Y557909D01*
X219843Y557740D01*
X219828D01*
X219814Y557726D01*
X219772Y557697D01*
X219716Y557683D01*
X219575Y557613D01*
X219391Y557542D01*
X219152Y557458D01*
X218884Y557401D01*
X218588Y557345D01*
X218264Y557331D01*
X218193D01*
X218123Y557345D01*
X218010D01*
X217883Y557359D01*
X217742Y557387D01*
X217573Y557430D01*
X217404Y557472D01*
X217206Y557528D01*
X217009Y557599D01*
X216812Y557683D01*
X216600Y557796D01*
X216403Y557923D01*
X216206Y558064D01*
X216008Y558233D01*
X215825Y558430D01*
X215811Y558445D01*
X215783Y558487D01*
X215740Y558543D01*
X215684Y558642D01*
X215599Y558769D01*
X215529Y558910D01*
X215444Y559093D01*
X215360Y559290D01*
X215261Y559530D01*
X215177Y559798D01*
X215106Y560094D01*
X215035Y560418D01*
X214965Y560785D01*
X214923Y561179D01*
X214895Y561602D01*
X214880Y562053D01*
Y562067D01*
Y562081D01*
Y562124D01*
Y562180D01*
X214895Y562321D01*
Y562519D01*
X214909Y562744D01*
X214937Y563012D01*
X214965Y563308D01*
X215007Y563632D01*
X215064Y563956D01*
X215134Y564309D01*
X215219Y564647D01*
X215317Y564986D01*
X215444Y565310D01*
X215585Y565620D01*
X215740Y565916D01*
X215924Y566170D01*
X215938Y566184D01*
X215966Y566212D01*
X216022Y566268D01*
X216093Y566353D01*
X216177Y566437D01*
X216290Y566522D01*
X216431Y566635D01*
X216572Y566734D01*
X216741Y566832D01*
X216924Y566945D01*
X217136Y567030D01*
X217347Y567128D01*
X217587Y567199D01*
X217841Y567255D01*
X218109Y567283D01*
X218391Y567297D01*
X218503D01*
X218588Y567283D01*
D02*
G37*
G36*
X180286Y562617D02*
X183937Y557500D01*
X182344D01*
X179878Y560968D01*
X179863Y560982D01*
X179835Y561024D01*
X179807Y561081D01*
X179751Y561151D01*
X179624Y561348D01*
X179483Y561560D01*
X179469Y561546D01*
X179426Y561489D01*
X179370Y561405D01*
X179300Y561292D01*
X179144Y561067D01*
X179074Y560968D01*
X179018Y560883D01*
X176551Y557500D01*
X175000D01*
X178764Y562547D01*
X175437Y567255D01*
X176974D01*
X178750Y564746D01*
Y564732D01*
X178778Y564718D01*
X178806Y564675D01*
X178848Y564619D01*
X178933Y564478D01*
X179060Y564309D01*
X179187Y564112D01*
X179314Y563914D01*
X179426Y563731D01*
X179525Y563562D01*
X179539Y563590D01*
X179582Y563646D01*
X179652Y563759D01*
X179751Y563900D01*
X179863Y564055D01*
X180004Y564253D01*
X180145Y564450D01*
X180315Y564661D01*
X182260Y567255D01*
X183670D01*
X180286Y562617D01*
D02*
G37*
G36*
X256960Y564718D02*
X257059D01*
X257157Y564704D01*
X257397Y564661D01*
X257651Y564591D01*
X257919Y564478D01*
X258186Y564337D01*
X258412Y564140D01*
X258440Y564112D01*
X258496Y564027D01*
X258595Y563900D01*
X258638Y563801D01*
X258694Y563703D01*
X258750Y563576D01*
X258793Y563449D01*
X258849Y563308D01*
X258891Y563139D01*
X258919Y562970D01*
X258948Y562772D01*
X258976Y562575D01*
Y562349D01*
Y557500D01*
X257778D01*
Y561941D01*
Y561955D01*
Y561969D01*
Y562053D01*
Y562180D01*
X257764Y562335D01*
X257749Y562504D01*
X257735Y562674D01*
X257707Y562843D01*
X257665Y562970D01*
Y562984D01*
X257637Y563026D01*
X257608Y563082D01*
X257566Y563153D01*
X257510Y563237D01*
X257439Y563322D01*
X257355Y563407D01*
X257242Y563491D01*
X257228Y563505D01*
X257185Y563519D01*
X257129Y563548D01*
X257030Y563590D01*
X256932Y563632D01*
X256805Y563660D01*
X256678Y563675D01*
X256523Y563689D01*
X256453D01*
X256396Y563675D01*
X256255Y563660D01*
X256086Y563632D01*
X255889Y563562D01*
X255677Y563477D01*
X255466Y563350D01*
X255268Y563181D01*
X255254Y563153D01*
X255198Y563082D01*
X255113Y562970D01*
X255029Y562800D01*
X254930Y562575D01*
X254860Y562307D01*
X254803Y561983D01*
X254775Y561602D01*
Y557500D01*
X253577D01*
Y562081D01*
Y562096D01*
Y562124D01*
Y562152D01*
Y562208D01*
X253563Y562364D01*
X253534Y562533D01*
X253506Y562730D01*
X253450Y562927D01*
X253379Y563111D01*
X253281Y563280D01*
X253267Y563294D01*
X253224Y563350D01*
X253154Y563407D01*
X253055Y563491D01*
X252928Y563562D01*
X252759Y563632D01*
X252562Y563675D01*
X252322Y563689D01*
X252237D01*
X252139Y563675D01*
X252026Y563660D01*
X251885Y563618D01*
X251716Y563576D01*
X251561Y563505D01*
X251392Y563421D01*
X251378Y563407D01*
X251321Y563364D01*
X251251Y563308D01*
X251152Y563223D01*
X251053Y563111D01*
X250955Y562970D01*
X250856Y562815D01*
X250771Y562631D01*
X250757Y562603D01*
X250743Y562533D01*
X250715Y562420D01*
X250673Y562265D01*
X250630Y562053D01*
X250602Y561800D01*
X250588Y561504D01*
X250574Y561165D01*
Y557500D01*
X249376D01*
Y564577D01*
X250447D01*
Y563562D01*
X250461Y563590D01*
X250504Y563646D01*
X250588Y563745D01*
X250687Y563858D01*
X250814Y563999D01*
X250969Y564140D01*
X251138Y564281D01*
X251335Y564408D01*
X251364Y564422D01*
X251434Y564464D01*
X251547Y564506D01*
X251702Y564577D01*
X251885Y564633D01*
X252097Y564675D01*
X252336Y564718D01*
X252590Y564732D01*
X252717D01*
X252872Y564718D01*
X253041Y564689D01*
X253253Y564647D01*
X253464Y564591D01*
X253675Y564506D01*
X253873Y564393D01*
X253901Y564379D01*
X253957Y564337D01*
X254042Y564267D01*
X254155Y564154D01*
X254267Y564027D01*
X254394Y563872D01*
X254507Y563689D01*
X254592Y563477D01*
X254606Y563491D01*
X254634Y563534D01*
X254676Y563590D01*
X254747Y563675D01*
X254831Y563773D01*
X254930Y563872D01*
X255043Y563985D01*
X255184Y564112D01*
X255339Y564224D01*
X255494Y564337D01*
X255677Y564436D01*
X255875Y564534D01*
X256086Y564619D01*
X256311Y564675D01*
X256537Y564718D01*
X256791Y564732D01*
X256889D01*
X256960Y564718D01*
D02*
G37*
G36*
X245598D02*
X245697D01*
X245795Y564704D01*
X246035Y564661D01*
X246289Y564591D01*
X246556Y564478D01*
X246824Y564337D01*
X247050Y564140D01*
X247078Y564112D01*
X247134Y564027D01*
X247233Y563900D01*
X247275Y563801D01*
X247332Y563703D01*
X247388Y563576D01*
X247430Y563449D01*
X247487Y563308D01*
X247529Y563139D01*
X247557Y562970D01*
X247586Y562772D01*
X247614Y562575D01*
Y562349D01*
Y557500D01*
X246415D01*
Y561941D01*
Y561955D01*
Y561969D01*
Y562053D01*
Y562180D01*
X246401Y562335D01*
X246387Y562504D01*
X246373Y562674D01*
X246345Y562843D01*
X246303Y562970D01*
Y562984D01*
X246274Y563026D01*
X246246Y563082D01*
X246204Y563153D01*
X246148Y563237D01*
X246077Y563322D01*
X245993Y563407D01*
X245880Y563491D01*
X245866Y563505D01*
X245823Y563519D01*
X245767Y563548D01*
X245668Y563590D01*
X245570Y563632D01*
X245443Y563660D01*
X245316Y563675D01*
X245161Y563689D01*
X245090D01*
X245034Y563675D01*
X244893Y563660D01*
X244724Y563632D01*
X244526Y563562D01*
X244315Y563477D01*
X244104Y563350D01*
X243906Y563181D01*
X243892Y563153D01*
X243836Y563082D01*
X243751Y562970D01*
X243666Y562800D01*
X243568Y562575D01*
X243497Y562307D01*
X243441Y561983D01*
X243413Y561602D01*
Y557500D01*
X242215D01*
Y562081D01*
Y562096D01*
Y562124D01*
Y562152D01*
Y562208D01*
X242200Y562364D01*
X242172Y562533D01*
X242144Y562730D01*
X242088Y562927D01*
X242017Y563111D01*
X241919Y563280D01*
X241904Y563294D01*
X241862Y563350D01*
X241792Y563407D01*
X241693Y563491D01*
X241566Y563562D01*
X241397Y563632D01*
X241199Y563675D01*
X240960Y563689D01*
X240875D01*
X240777Y563675D01*
X240664Y563660D01*
X240523Y563618D01*
X240354Y563576D01*
X240199Y563505D01*
X240030Y563421D01*
X240015Y563407D01*
X239959Y563364D01*
X239888Y563308D01*
X239790Y563223D01*
X239691Y563111D01*
X239592Y562970D01*
X239494Y562815D01*
X239409Y562631D01*
X239395Y562603D01*
X239381Y562533D01*
X239353Y562420D01*
X239310Y562265D01*
X239268Y562053D01*
X239240Y561800D01*
X239226Y561504D01*
X239212Y561165D01*
Y557500D01*
X238014D01*
Y564577D01*
X239085D01*
Y563562D01*
X239099Y563590D01*
X239141Y563646D01*
X239226Y563745D01*
X239325Y563858D01*
X239452Y563999D01*
X239607Y564140D01*
X239776Y564281D01*
X239973Y564408D01*
X240001Y564422D01*
X240072Y564464D01*
X240184Y564506D01*
X240340Y564577D01*
X240523Y564633D01*
X240734Y564675D01*
X240974Y564718D01*
X241228Y564732D01*
X241355D01*
X241510Y564718D01*
X241679Y564689D01*
X241890Y564647D01*
X242102Y564591D01*
X242313Y564506D01*
X242511Y564393D01*
X242539Y564379D01*
X242595Y564337D01*
X242680Y564267D01*
X242792Y564154D01*
X242905Y564027D01*
X243032Y563872D01*
X243145Y563689D01*
X243230Y563477D01*
X243244Y563491D01*
X243272Y563534D01*
X243314Y563590D01*
X243385Y563675D01*
X243469Y563773D01*
X243568Y563872D01*
X243681Y563985D01*
X243822Y564112D01*
X243977Y564224D01*
X244132Y564337D01*
X244315Y564436D01*
X244512Y564534D01*
X244724Y564619D01*
X244949Y564675D01*
X245175Y564718D01*
X245429Y564732D01*
X245527D01*
X245598Y564718D01*
D02*
G37*
G36*
X190422Y563209D02*
X189055D01*
Y564577D01*
X190422D01*
Y563209D01*
D02*
G37*
G36*
X228526Y565986D02*
X224621D01*
X224100Y563350D01*
X224114Y563364D01*
X224142Y563378D01*
X224184Y563407D01*
X224255Y563449D01*
X224340Y563491D01*
X224438Y563548D01*
X224664Y563660D01*
X224946Y563773D01*
X225256Y563872D01*
X225594Y563942D01*
X225763Y563970D01*
X226073D01*
X226158Y563956D01*
X226271Y563942D01*
X226398Y563928D01*
X226539Y563900D01*
X226694Y563858D01*
X227032Y563759D01*
X227215Y563689D01*
X227399Y563590D01*
X227582Y563491D01*
X227765Y563378D01*
X227934Y563237D01*
X228103Y563082D01*
X228118Y563068D01*
X228146Y563040D01*
X228188Y562998D01*
X228244Y562927D01*
X228315Y562829D01*
X228385Y562730D01*
X228470Y562603D01*
X228554Y562462D01*
X228625Y562307D01*
X228710Y562138D01*
X228780Y561941D01*
X228850Y561743D01*
X228907Y561532D01*
X228949Y561292D01*
X228977Y561052D01*
X228992Y560799D01*
Y560785D01*
Y560742D01*
Y560672D01*
X228977Y560573D01*
X228963Y560460D01*
X228949Y560334D01*
X228921Y560178D01*
X228893Y560023D01*
X228808Y559657D01*
X228667Y559276D01*
X228583Y559079D01*
X228470Y558896D01*
X228357Y558698D01*
X228216Y558515D01*
X228202Y558501D01*
X228174Y558459D01*
X228118Y558402D01*
X228047Y558332D01*
X227948Y558247D01*
X227836Y558134D01*
X227695Y558036D01*
X227540Y557923D01*
X227370Y557810D01*
X227173Y557711D01*
X226961Y557613D01*
X226736Y557514D01*
X226496Y557444D01*
X226229Y557387D01*
X225947Y557345D01*
X225651Y557331D01*
X225524D01*
X225425Y557345D01*
X225312Y557359D01*
X225185Y557373D01*
X225030Y557387D01*
X224875Y557430D01*
X224523Y557514D01*
X224170Y557641D01*
X223987Y557726D01*
X223804Y557824D01*
X223635Y557937D01*
X223465Y558064D01*
X223451Y558078D01*
X223423Y558092D01*
X223395Y558148D01*
X223339Y558205D01*
X223268Y558275D01*
X223198Y558360D01*
X223113Y558473D01*
X223043Y558600D01*
X222958Y558726D01*
X222873Y558881D01*
X222718Y559220D01*
X222591Y559615D01*
X222549Y559826D01*
X222521Y560052D01*
X223776Y560150D01*
Y560136D01*
Y560108D01*
X223790Y560066D01*
X223804Y559995D01*
X223846Y559840D01*
X223902Y559629D01*
X223987Y559417D01*
X224100Y559178D01*
X224241Y558966D01*
X224410Y558769D01*
X224438Y558755D01*
X224495Y558698D01*
X224607Y558628D01*
X224762Y558543D01*
X224932Y558459D01*
X225143Y558388D01*
X225383Y558332D01*
X225651Y558318D01*
X225735D01*
X225791Y558332D01*
X225961Y558346D01*
X226158Y558402D01*
X226398Y558473D01*
X226637Y558586D01*
X226891Y558755D01*
X227004Y558853D01*
X227117Y558966D01*
X227131Y558980D01*
X227145Y558994D01*
X227173Y559037D01*
X227215Y559079D01*
X227314Y559234D01*
X227427Y559431D01*
X227525Y559671D01*
X227624Y559967D01*
X227695Y560319D01*
X227723Y560503D01*
Y560700D01*
Y560714D01*
Y560742D01*
Y560799D01*
X227709Y560869D01*
Y560954D01*
X227695Y561052D01*
X227652Y561278D01*
X227582Y561546D01*
X227483Y561814D01*
X227342Y562067D01*
X227145Y562307D01*
Y562321D01*
X227117Y562335D01*
X227046Y562406D01*
X226919Y562504D01*
X226750Y562617D01*
X226525Y562716D01*
X226271Y562815D01*
X225975Y562885D01*
X225806Y562913D01*
X225538D01*
X225425Y562899D01*
X225284Y562885D01*
X225115Y562843D01*
X224946Y562800D01*
X224762Y562730D01*
X224579Y562645D01*
X224565Y562631D01*
X224509Y562603D01*
X224424Y562533D01*
X224311Y562462D01*
X224198Y562364D01*
X224086Y562237D01*
X223959Y562110D01*
X223860Y561955D01*
X222732Y562110D01*
X223677Y567128D01*
X228526D01*
Y565986D01*
D02*
G37*
G36*
X213189Y557500D02*
X211821D01*
Y558867D01*
X213189D01*
Y557500D01*
D02*
G37*
G36*
X208072D02*
X206873D01*
Y565126D01*
X206859Y565112D01*
X206789Y565056D01*
X206704Y564971D01*
X206563Y564873D01*
X206408Y564746D01*
X206211Y564605D01*
X205985Y564450D01*
X205732Y564295D01*
X205717D01*
X205703Y564281D01*
X205619Y564224D01*
X205478Y564154D01*
X205309Y564069D01*
X205111Y563970D01*
X204900Y563872D01*
X204688Y563773D01*
X204477Y563689D01*
Y564845D01*
X204491D01*
X204519Y564873D01*
X204576Y564887D01*
X204646Y564929D01*
X204731Y564971D01*
X204829Y565028D01*
X205069Y565169D01*
X205351Y565324D01*
X205633Y565521D01*
X205929Y565747D01*
X206225Y565986D01*
X206239Y566001D01*
X206253Y566015D01*
X206295Y566057D01*
X206352Y566099D01*
X206479Y566240D01*
X206648Y566409D01*
X206817Y566607D01*
X207000Y566832D01*
X207155Y567058D01*
X207296Y567297D01*
X208072D01*
Y557500D01*
D02*
G37*
G36*
X201009Y560940D02*
X202334D01*
Y559840D01*
X201009D01*
Y557500D01*
X199811D01*
Y559840D01*
X195567D01*
Y560940D01*
X200036Y567255D01*
X201009D01*
Y560940D01*
D02*
G37*
G36*
X190422Y557500D02*
X189055D01*
Y558867D01*
X190422D01*
Y557500D01*
D02*
G37*
G36*
X599306Y-22782D02*
X599404D01*
X599503Y-22796D01*
X599743Y-22839D01*
X599996Y-22909D01*
X600264Y-23022D01*
X600532Y-23163D01*
X600758Y-23360D01*
X600786Y-23389D01*
X600842Y-23473D01*
X600941Y-23600D01*
X600983Y-23699D01*
X601040Y-23797D01*
X601096Y-23924D01*
X601138Y-24051D01*
X601195Y-24192D01*
X601237Y-24361D01*
X601265Y-24530D01*
X601293Y-24728D01*
X601322Y-24925D01*
Y-25151D01*
Y-30000D01*
X600123D01*
Y-25559D01*
Y-25545D01*
Y-25531D01*
Y-25447D01*
Y-25320D01*
X600109Y-25165D01*
X600095Y-24996D01*
X600081Y-24826D01*
X600053Y-24657D01*
X600010Y-24530D01*
Y-24516D01*
X599982Y-24474D01*
X599954Y-24418D01*
X599912Y-24347D01*
X599855Y-24262D01*
X599785Y-24178D01*
X599700Y-24093D01*
X599588Y-24009D01*
X599574Y-23995D01*
X599531Y-23981D01*
X599475Y-23952D01*
X599376Y-23910D01*
X599277Y-23868D01*
X599151Y-23840D01*
X599024Y-23826D01*
X598869Y-23811D01*
X598798D01*
X598742Y-23826D01*
X598601Y-23840D01*
X598432Y-23868D01*
X598234Y-23938D01*
X598023Y-24023D01*
X597811Y-24150D01*
X597614Y-24319D01*
X597600Y-24347D01*
X597544Y-24418D01*
X597459Y-24530D01*
X597374Y-24699D01*
X597276Y-24925D01*
X597205Y-25193D01*
X597149Y-25517D01*
X597121Y-25898D01*
Y-30000D01*
X595922D01*
Y-25419D01*
Y-25404D01*
Y-25376D01*
Y-25348D01*
Y-25292D01*
X595908Y-25137D01*
X595880Y-24967D01*
X595852Y-24770D01*
X595796Y-24573D01*
X595725Y-24389D01*
X595626Y-24220D01*
X595612Y-24206D01*
X595570Y-24150D01*
X595499Y-24093D01*
X595401Y-24009D01*
X595274Y-23938D01*
X595105Y-23868D01*
X594907Y-23826D01*
X594668Y-23811D01*
X594583D01*
X594484Y-23826D01*
X594372Y-23840D01*
X594231Y-23882D01*
X594062Y-23924D01*
X593907Y-23995D01*
X593737Y-24079D01*
X593723Y-24093D01*
X593667Y-24136D01*
X593596Y-24192D01*
X593498Y-24277D01*
X593399Y-24389D01*
X593300Y-24530D01*
X593202Y-24685D01*
X593117Y-24869D01*
X593103Y-24897D01*
X593089Y-24967D01*
X593061Y-25080D01*
X593018Y-25235D01*
X592976Y-25447D01*
X592948Y-25700D01*
X592934Y-25996D01*
X592920Y-26335D01*
Y-30000D01*
X591721D01*
Y-22923D01*
X592793D01*
Y-23938D01*
X592807Y-23910D01*
X592849Y-23854D01*
X592934Y-23755D01*
X593032Y-23642D01*
X593159Y-23501D01*
X593315Y-23360D01*
X593484Y-23219D01*
X593681Y-23093D01*
X593709Y-23078D01*
X593780Y-23036D01*
X593892Y-22994D01*
X594048Y-22923D01*
X594231Y-22867D01*
X594442Y-22825D01*
X594682Y-22782D01*
X594936Y-22768D01*
X595062D01*
X595218Y-22782D01*
X595387Y-22810D01*
X595598Y-22853D01*
X595810Y-22909D01*
X596021Y-22994D01*
X596218Y-23107D01*
X596247Y-23121D01*
X596303Y-23163D01*
X596388Y-23233D01*
X596500Y-23346D01*
X596613Y-23473D01*
X596740Y-23628D01*
X596853Y-23811D01*
X596937Y-24023D01*
X596951Y-24009D01*
X596980Y-23967D01*
X597022Y-23910D01*
X597093Y-23826D01*
X597177Y-23727D01*
X597276Y-23628D01*
X597388Y-23515D01*
X597529Y-23389D01*
X597685Y-23276D01*
X597840Y-23163D01*
X598023Y-23064D01*
X598220Y-22966D01*
X598432Y-22881D01*
X598657Y-22825D01*
X598883Y-22782D01*
X599137Y-22768D01*
X599235D01*
X599306Y-22782D01*
D02*
G37*
G36*
X587943D02*
X588042D01*
X588141Y-22796D01*
X588381Y-22839D01*
X588634Y-22909D01*
X588902Y-23022D01*
X589170Y-23163D01*
X589395Y-23360D01*
X589424Y-23389D01*
X589480Y-23473D01*
X589579Y-23600D01*
X589621Y-23699D01*
X589677Y-23797D01*
X589734Y-23924D01*
X589776Y-24051D01*
X589832Y-24192D01*
X589875Y-24361D01*
X589903Y-24530D01*
X589931Y-24728D01*
X589959Y-24925D01*
Y-25151D01*
Y-30000D01*
X588761D01*
Y-25559D01*
Y-25545D01*
Y-25531D01*
Y-25447D01*
Y-25320D01*
X588747Y-25165D01*
X588733Y-24996D01*
X588719Y-24826D01*
X588691Y-24657D01*
X588648Y-24530D01*
Y-24516D01*
X588620Y-24474D01*
X588592Y-24418D01*
X588550Y-24347D01*
X588493Y-24262D01*
X588423Y-24178D01*
X588338Y-24093D01*
X588225Y-24009D01*
X588211Y-23995D01*
X588169Y-23981D01*
X588113Y-23952D01*
X588014Y-23910D01*
X587915Y-23868D01*
X587788Y-23840D01*
X587662Y-23826D01*
X587506Y-23811D01*
X587436D01*
X587380Y-23826D01*
X587239Y-23840D01*
X587070Y-23868D01*
X586872Y-23938D01*
X586661Y-24023D01*
X586449Y-24150D01*
X586252Y-24319D01*
X586238Y-24347D01*
X586181Y-24418D01*
X586097Y-24530D01*
X586012Y-24699D01*
X585914Y-24925D01*
X585843Y-25193D01*
X585787Y-25517D01*
X585759Y-25898D01*
Y-30000D01*
X584560D01*
Y-25419D01*
Y-25404D01*
Y-25376D01*
Y-25348D01*
Y-25292D01*
X584546Y-25137D01*
X584518Y-24967D01*
X584490Y-24770D01*
X584433Y-24573D01*
X584363Y-24389D01*
X584264Y-24220D01*
X584250Y-24206D01*
X584208Y-24150D01*
X584137Y-24093D01*
X584039Y-24009D01*
X583912Y-23938D01*
X583743Y-23868D01*
X583545Y-23826D01*
X583306Y-23811D01*
X583221D01*
X583122Y-23826D01*
X583010Y-23840D01*
X582869Y-23882D01*
X582699Y-23924D01*
X582544Y-23995D01*
X582375Y-24079D01*
X582361Y-24093D01*
X582305Y-24136D01*
X582234Y-24192D01*
X582136Y-24277D01*
X582037Y-24389D01*
X581938Y-24530D01*
X581839Y-24685D01*
X581755Y-24869D01*
X581741Y-24897D01*
X581727Y-24967D01*
X581698Y-25080D01*
X581656Y-25235D01*
X581614Y-25447D01*
X581586Y-25700D01*
X581572Y-25996D01*
X581558Y-26335D01*
Y-30000D01*
X580359D01*
Y-22923D01*
X581431D01*
Y-23938D01*
X581445Y-23910D01*
X581487Y-23854D01*
X581572Y-23755D01*
X581670Y-23642D01*
X581797Y-23501D01*
X581952Y-23360D01*
X582121Y-23219D01*
X582319Y-23093D01*
X582347Y-23078D01*
X582417Y-23036D01*
X582530Y-22994D01*
X582685Y-22923D01*
X582869Y-22867D01*
X583080Y-22825D01*
X583320Y-22782D01*
X583573Y-22768D01*
X583700D01*
X583855Y-22782D01*
X584025Y-22810D01*
X584236Y-22853D01*
X584447Y-22909D01*
X584659Y-22994D01*
X584856Y-23107D01*
X584884Y-23121D01*
X584941Y-23163D01*
X585025Y-23233D01*
X585138Y-23346D01*
X585251Y-23473D01*
X585378Y-23628D01*
X585491Y-23811D01*
X585575Y-24023D01*
X585589Y-24009D01*
X585617Y-23967D01*
X585660Y-23910D01*
X585730Y-23826D01*
X585815Y-23727D01*
X585914Y-23628D01*
X586026Y-23515D01*
X586167Y-23389D01*
X586322Y-23276D01*
X586477Y-23163D01*
X586661Y-23064D01*
X586858Y-22966D01*
X587070Y-22881D01*
X587295Y-22825D01*
X587521Y-22782D01*
X587774Y-22768D01*
X587873D01*
X587943Y-22782D01*
D02*
G37*
G36*
X547936Y-24291D02*
X546569D01*
Y-22923D01*
X547936D01*
Y-24291D01*
D02*
G37*
G36*
X537547Y-25870D02*
Y-30000D01*
X536250D01*
Y-25870D01*
X532486Y-20245D01*
X534051D01*
X535968Y-23205D01*
Y-23219D01*
X535996Y-23248D01*
X536024Y-23290D01*
X536052Y-23346D01*
X536109Y-23417D01*
X536165Y-23501D01*
X536292Y-23713D01*
X536447Y-23967D01*
X536616Y-24248D01*
X536800Y-24544D01*
X536969Y-24855D01*
Y-24841D01*
X536983Y-24812D01*
X537011Y-24770D01*
X537053Y-24714D01*
X537096Y-24643D01*
X537152Y-24559D01*
X537279Y-24347D01*
X537434Y-24093D01*
X537617Y-23797D01*
X537829Y-23473D01*
X538054Y-23121D01*
X539929Y-20245D01*
X541437D01*
X537547Y-25870D01*
D02*
G37*
G36*
X570872Y-21514D02*
X566967D01*
X566446Y-24150D01*
X566460Y-24136D01*
X566488Y-24122D01*
X566530Y-24093D01*
X566601Y-24051D01*
X566685Y-24009D01*
X566784Y-23952D01*
X567010Y-23840D01*
X567291Y-23727D01*
X567602Y-23628D01*
X567940Y-23558D01*
X568109Y-23530D01*
X568419D01*
X568504Y-23544D01*
X568616Y-23558D01*
X568743Y-23572D01*
X568884Y-23600D01*
X569039Y-23642D01*
X569378Y-23741D01*
X569561Y-23811D01*
X569744Y-23910D01*
X569927Y-24009D01*
X570111Y-24122D01*
X570280Y-24262D01*
X570449Y-24418D01*
X570463Y-24432D01*
X570491Y-24460D01*
X570534Y-24502D01*
X570590Y-24573D01*
X570661Y-24671D01*
X570731Y-24770D01*
X570816Y-24897D01*
X570900Y-25038D01*
X570971Y-25193D01*
X571055Y-25362D01*
X571126Y-25559D01*
X571196Y-25757D01*
X571253Y-25968D01*
X571295Y-26208D01*
X571323Y-26448D01*
X571337Y-26701D01*
Y-26715D01*
Y-26758D01*
Y-26828D01*
X571323Y-26927D01*
X571309Y-27040D01*
X571295Y-27167D01*
X571267Y-27322D01*
X571239Y-27477D01*
X571154Y-27843D01*
X571013Y-28224D01*
X570928Y-28421D01*
X570816Y-28604D01*
X570703Y-28802D01*
X570562Y-28985D01*
X570548Y-28999D01*
X570520Y-29041D01*
X570463Y-29098D01*
X570393Y-29168D01*
X570294Y-29253D01*
X570181Y-29366D01*
X570040Y-29464D01*
X569885Y-29577D01*
X569716Y-29690D01*
X569519Y-29789D01*
X569307Y-29887D01*
X569082Y-29986D01*
X568842Y-30056D01*
X568574Y-30113D01*
X568292Y-30155D01*
X567996Y-30169D01*
X567869D01*
X567771Y-30155D01*
X567658Y-30141D01*
X567531Y-30127D01*
X567376Y-30113D01*
X567221Y-30071D01*
X566869Y-29986D01*
X566516Y-29859D01*
X566333Y-29774D01*
X566149Y-29676D01*
X565980Y-29563D01*
X565811Y-29436D01*
X565797Y-29422D01*
X565769Y-29408D01*
X565741Y-29352D01*
X565684Y-29295D01*
X565614Y-29225D01*
X565543Y-29140D01*
X565459Y-29027D01*
X565388Y-28900D01*
X565304Y-28774D01*
X565219Y-28619D01*
X565064Y-28280D01*
X564937Y-27885D01*
X564895Y-27674D01*
X564867Y-27448D01*
X566121Y-27350D01*
Y-27364D01*
Y-27392D01*
X566135Y-27434D01*
X566149Y-27505D01*
X566192Y-27660D01*
X566248Y-27871D01*
X566333Y-28083D01*
X566446Y-28323D01*
X566586Y-28534D01*
X566756Y-28731D01*
X566784Y-28745D01*
X566840Y-28802D01*
X566953Y-28872D01*
X567108Y-28957D01*
X567277Y-29041D01*
X567489Y-29112D01*
X567728Y-29168D01*
X567996Y-29182D01*
X568081D01*
X568137Y-29168D01*
X568306Y-29154D01*
X568504Y-29098D01*
X568743Y-29027D01*
X568983Y-28914D01*
X569237Y-28745D01*
X569350Y-28647D01*
X569462Y-28534D01*
X569476Y-28520D01*
X569491Y-28506D01*
X569519Y-28463D01*
X569561Y-28421D01*
X569660Y-28266D01*
X569772Y-28069D01*
X569871Y-27829D01*
X569970Y-27533D01*
X570040Y-27181D01*
X570069Y-26997D01*
Y-26800D01*
Y-26786D01*
Y-26758D01*
Y-26701D01*
X570054Y-26631D01*
Y-26546D01*
X570040Y-26448D01*
X569998Y-26222D01*
X569927Y-25954D01*
X569829Y-25686D01*
X569688Y-25433D01*
X569491Y-25193D01*
Y-25179D01*
X569462Y-25165D01*
X569392Y-25094D01*
X569265Y-24996D01*
X569096Y-24883D01*
X568870Y-24784D01*
X568616Y-24685D01*
X568321Y-24615D01*
X568151Y-24587D01*
X567883D01*
X567771Y-24601D01*
X567630Y-24615D01*
X567461Y-24657D01*
X567291Y-24699D01*
X567108Y-24770D01*
X566925Y-24855D01*
X566911Y-24869D01*
X566854Y-24897D01*
X566770Y-24967D01*
X566657Y-25038D01*
X566544Y-25137D01*
X566432Y-25263D01*
X566305Y-25390D01*
X566206Y-25545D01*
X565078Y-25390D01*
X566023Y-20372D01*
X570872D01*
Y-21514D01*
D02*
G37*
G36*
X577483Y-26560D02*
X578809D01*
Y-27660D01*
X577483D01*
Y-30000D01*
X576285D01*
Y-27660D01*
X572042D01*
Y-26560D01*
X576511Y-20245D01*
X577483D01*
Y-26560D01*
D02*
G37*
G36*
X563119Y-30000D02*
X561751D01*
Y-28633D01*
X563119D01*
Y-30000D01*
D02*
G37*
G36*
X556958Y-20217D02*
X557071Y-20231D01*
X557212Y-20245D01*
X557367Y-20273D01*
X557522Y-20301D01*
X557889Y-20400D01*
X558255Y-20541D01*
X558438Y-20626D01*
X558622Y-20724D01*
X558791Y-20851D01*
X558946Y-20992D01*
X558960Y-21006D01*
X558988Y-21020D01*
X559016Y-21077D01*
X559073Y-21133D01*
X559143Y-21203D01*
X559214Y-21302D01*
X559284Y-21401D01*
X559369Y-21528D01*
X559510Y-21796D01*
X559651Y-22134D01*
X559707Y-22303D01*
X559735Y-22500D01*
X559764Y-22698D01*
X559778Y-22909D01*
Y-22937D01*
Y-23008D01*
X559764Y-23121D01*
X559749Y-23276D01*
X559721Y-23445D01*
X559665Y-23642D01*
X559608Y-23854D01*
X559524Y-24065D01*
X559510Y-24093D01*
X559482Y-24164D01*
X559425Y-24277D01*
X559341Y-24432D01*
X559228Y-24601D01*
X559087Y-24812D01*
X558918Y-25024D01*
X558720Y-25263D01*
X558692Y-25292D01*
X558622Y-25376D01*
X558551Y-25447D01*
X558481Y-25517D01*
X558396Y-25602D01*
X558283Y-25714D01*
X558171Y-25827D01*
X558030Y-25954D01*
X557889Y-26095D01*
X557719Y-26250D01*
X557536Y-26405D01*
X557339Y-26588D01*
X557113Y-26772D01*
X556888Y-26969D01*
X556874Y-26983D01*
X556846Y-27011D01*
X556789Y-27054D01*
X556719Y-27110D01*
X556634Y-27195D01*
X556535Y-27279D01*
X556310Y-27463D01*
X556070Y-27674D01*
X555845Y-27885D01*
X555647Y-28069D01*
X555563Y-28139D01*
X555492Y-28210D01*
X555478Y-28224D01*
X555436Y-28266D01*
X555379Y-28323D01*
X555309Y-28407D01*
X555238Y-28506D01*
X555154Y-28604D01*
X554985Y-28844D01*
X559792D01*
Y-30000D01*
X553321D01*
Y-29986D01*
Y-29929D01*
Y-29845D01*
X553335Y-29732D01*
X553349Y-29605D01*
X553378Y-29464D01*
X553406Y-29323D01*
X553462Y-29168D01*
Y-29154D01*
X553476Y-29140D01*
X553504Y-29056D01*
X553561Y-28929D01*
X553646Y-28760D01*
X553758Y-28562D01*
X553899Y-28337D01*
X554054Y-28111D01*
X554252Y-27871D01*
Y-27857D01*
X554280Y-27843D01*
X554350Y-27759D01*
X554477Y-27632D01*
X554660Y-27448D01*
X554872Y-27237D01*
X555140Y-26983D01*
X555464Y-26701D01*
X555816Y-26405D01*
X555830Y-26391D01*
X555887Y-26349D01*
X555971Y-26278D01*
X556070Y-26194D01*
X556197Y-26081D01*
X556352Y-25954D01*
X556507Y-25813D01*
X556690Y-25658D01*
X557043Y-25320D01*
X557395Y-24982D01*
X557565Y-24812D01*
X557719Y-24643D01*
X557860Y-24488D01*
X557973Y-24333D01*
Y-24319D01*
X558002Y-24305D01*
X558030Y-24262D01*
X558058Y-24206D01*
X558157Y-24051D01*
X558269Y-23868D01*
X558368Y-23642D01*
X558467Y-23403D01*
X558523Y-23135D01*
X558551Y-22881D01*
Y-22867D01*
Y-22853D01*
X558537Y-22768D01*
X558523Y-22627D01*
X558481Y-22472D01*
X558424Y-22275D01*
X558326Y-22078D01*
X558199Y-21880D01*
X558030Y-21683D01*
X558002Y-21655D01*
X557931Y-21598D01*
X557832Y-21528D01*
X557677Y-21429D01*
X557480Y-21344D01*
X557254Y-21260D01*
X556987Y-21203D01*
X556690Y-21189D01*
X556606D01*
X556549Y-21203D01*
X556380Y-21218D01*
X556183Y-21260D01*
X555971Y-21316D01*
X555732Y-21415D01*
X555506Y-21542D01*
X555295Y-21711D01*
X555267Y-21739D01*
X555210Y-21810D01*
X555126Y-21922D01*
X555041Y-22092D01*
X554942Y-22289D01*
X554858Y-22543D01*
X554801Y-22825D01*
X554773Y-23149D01*
X553547Y-23022D01*
Y-23008D01*
X553561Y-22966D01*
Y-22895D01*
X553575Y-22796D01*
X553603Y-22684D01*
X553631Y-22557D01*
X553674Y-22402D01*
X553716Y-22247D01*
X553829Y-21908D01*
X553998Y-21570D01*
X554097Y-21401D01*
X554224Y-21232D01*
X554350Y-21077D01*
X554491Y-20936D01*
X554505Y-20921D01*
X554534Y-20907D01*
X554576Y-20865D01*
X554646Y-20823D01*
X554731Y-20766D01*
X554830Y-20710D01*
X554942Y-20640D01*
X555083Y-20569D01*
X555238Y-20499D01*
X555408Y-20428D01*
X555591Y-20372D01*
X555788Y-20315D01*
X556000Y-20273D01*
X556225Y-20231D01*
X556465Y-20217D01*
X556719Y-20203D01*
X556860D01*
X556958Y-20217D01*
D02*
G37*
G36*
X547936Y-30000D02*
X546569D01*
Y-28633D01*
X547936D01*
Y-30000D01*
D02*
G37*
G36*
X537786Y-9883D02*
X541437Y-15000D01*
X539845D01*
X537378Y-11532D01*
X537364Y-11518D01*
X537335Y-11476D01*
X537307Y-11419D01*
X537251Y-11349D01*
X537124Y-11151D01*
X536983Y-10940D01*
X536969Y-10954D01*
X536926Y-11011D01*
X536870Y-11095D01*
X536800Y-11208D01*
X536645Y-11434D01*
X536574Y-11532D01*
X536518Y-11617D01*
X534051Y-15000D01*
X532500D01*
X536264Y-9953D01*
X532937Y-5245D01*
X534474D01*
X536250Y-7754D01*
Y-7768D01*
X536278Y-7782D01*
X536306Y-7825D01*
X536348Y-7881D01*
X536433Y-8022D01*
X536560Y-8191D01*
X536687Y-8389D01*
X536814Y-8586D01*
X536926Y-8769D01*
X537025Y-8938D01*
X537039Y-8910D01*
X537081Y-8854D01*
X537152Y-8741D01*
X537251Y-8600D01*
X537364Y-8445D01*
X537504Y-8248D01*
X537645Y-8050D01*
X537815Y-7839D01*
X539760Y-5245D01*
X541170D01*
X537786Y-9883D01*
D02*
G37*
G36*
X599292Y-7782D02*
X599390D01*
X599489Y-7796D01*
X599729Y-7839D01*
X599982Y-7909D01*
X600250Y-8022D01*
X600518Y-8163D01*
X600744Y-8360D01*
X600772Y-8389D01*
X600828Y-8473D01*
X600927Y-8600D01*
X600969Y-8699D01*
X601026Y-8797D01*
X601082Y-8924D01*
X601124Y-9051D01*
X601181Y-9192D01*
X601223Y-9361D01*
X601251Y-9530D01*
X601279Y-9728D01*
X601307Y-9925D01*
Y-10151D01*
Y-15000D01*
X600109D01*
Y-10560D01*
Y-10545D01*
Y-10531D01*
Y-10447D01*
Y-10320D01*
X600095Y-10165D01*
X600081Y-9996D01*
X600067Y-9826D01*
X600039Y-9657D01*
X599996Y-9530D01*
Y-9516D01*
X599968Y-9474D01*
X599940Y-9418D01*
X599898Y-9347D01*
X599841Y-9262D01*
X599771Y-9178D01*
X599686Y-9093D01*
X599574Y-9009D01*
X599559Y-8995D01*
X599517Y-8981D01*
X599461Y-8952D01*
X599362Y-8910D01*
X599263Y-8868D01*
X599137Y-8840D01*
X599010Y-8826D01*
X598855Y-8811D01*
X598784D01*
X598728Y-8826D01*
X598587Y-8840D01*
X598418Y-8868D01*
X598220Y-8938D01*
X598009Y-9023D01*
X597797Y-9150D01*
X597600Y-9319D01*
X597586Y-9347D01*
X597529Y-9418D01*
X597445Y-9530D01*
X597360Y-9700D01*
X597262Y-9925D01*
X597191Y-10193D01*
X597135Y-10517D01*
X597107Y-10898D01*
Y-15000D01*
X595908D01*
Y-10418D01*
Y-10404D01*
Y-10376D01*
Y-10348D01*
Y-10292D01*
X595894Y-10137D01*
X595866Y-9967D01*
X595838Y-9770D01*
X595781Y-9573D01*
X595711Y-9389D01*
X595612Y-9220D01*
X595598Y-9206D01*
X595556Y-9150D01*
X595485Y-9093D01*
X595387Y-9009D01*
X595260Y-8938D01*
X595091Y-8868D01*
X594893Y-8826D01*
X594654Y-8811D01*
X594569D01*
X594470Y-8826D01*
X594358Y-8840D01*
X594217Y-8882D01*
X594048Y-8924D01*
X593892Y-8995D01*
X593723Y-9079D01*
X593709Y-9093D01*
X593653Y-9136D01*
X593582Y-9192D01*
X593484Y-9277D01*
X593385Y-9389D01*
X593286Y-9530D01*
X593188Y-9686D01*
X593103Y-9869D01*
X593089Y-9897D01*
X593075Y-9967D01*
X593047Y-10080D01*
X593004Y-10235D01*
X592962Y-10447D01*
X592934Y-10700D01*
X592920Y-10997D01*
X592906Y-11335D01*
Y-15000D01*
X591707D01*
Y-7923D01*
X592779D01*
Y-8938D01*
X592793Y-8910D01*
X592835Y-8854D01*
X592920Y-8755D01*
X593018Y-8642D01*
X593145Y-8501D01*
X593300Y-8360D01*
X593470Y-8219D01*
X593667Y-8092D01*
X593695Y-8078D01*
X593766Y-8036D01*
X593878Y-7994D01*
X594033Y-7923D01*
X594217Y-7867D01*
X594428Y-7825D01*
X594668Y-7782D01*
X594921Y-7768D01*
X595048D01*
X595204Y-7782D01*
X595373Y-7811D01*
X595584Y-7853D01*
X595796Y-7909D01*
X596007Y-7994D01*
X596204Y-8107D01*
X596232Y-8121D01*
X596289Y-8163D01*
X596373Y-8234D01*
X596486Y-8346D01*
X596599Y-8473D01*
X596726Y-8628D01*
X596839Y-8811D01*
X596923Y-9023D01*
X596937Y-9009D01*
X596966Y-8967D01*
X597008Y-8910D01*
X597078Y-8826D01*
X597163Y-8727D01*
X597262Y-8628D01*
X597374Y-8515D01*
X597515Y-8389D01*
X597670Y-8276D01*
X597826Y-8163D01*
X598009Y-8064D01*
X598206Y-7966D01*
X598418Y-7881D01*
X598643Y-7825D01*
X598869Y-7782D01*
X599122Y-7768D01*
X599221D01*
X599292Y-7782D01*
D02*
G37*
G36*
X587929D02*
X588028D01*
X588127Y-7796D01*
X588366Y-7839D01*
X588620Y-7909D01*
X588888Y-8022D01*
X589156Y-8163D01*
X589381Y-8360D01*
X589410Y-8389D01*
X589466Y-8473D01*
X589565Y-8600D01*
X589607Y-8699D01*
X589663Y-8797D01*
X589720Y-8924D01*
X589762Y-9051D01*
X589818Y-9192D01*
X589861Y-9361D01*
X589889Y-9530D01*
X589917Y-9728D01*
X589945Y-9925D01*
Y-10151D01*
Y-15000D01*
X588747D01*
Y-10560D01*
Y-10545D01*
Y-10531D01*
Y-10447D01*
Y-10320D01*
X588733Y-10165D01*
X588719Y-9996D01*
X588705Y-9826D01*
X588676Y-9657D01*
X588634Y-9530D01*
Y-9516D01*
X588606Y-9474D01*
X588578Y-9418D01*
X588536Y-9347D01*
X588479Y-9262D01*
X588409Y-9178D01*
X588324Y-9093D01*
X588211Y-9009D01*
X588197Y-8995D01*
X588155Y-8981D01*
X588099Y-8952D01*
X588000Y-8910D01*
X587901Y-8868D01*
X587774Y-8840D01*
X587648Y-8826D01*
X587492Y-8811D01*
X587422D01*
X587365Y-8826D01*
X587225Y-8840D01*
X587055Y-8868D01*
X586858Y-8938D01*
X586647Y-9023D01*
X586435Y-9150D01*
X586238Y-9319D01*
X586224Y-9347D01*
X586167Y-9418D01*
X586083Y-9530D01*
X585998Y-9700D01*
X585899Y-9925D01*
X585829Y-10193D01*
X585773Y-10517D01*
X585744Y-10898D01*
Y-15000D01*
X584546D01*
Y-10418D01*
Y-10404D01*
Y-10376D01*
Y-10348D01*
Y-10292D01*
X584532Y-10137D01*
X584504Y-9967D01*
X584476Y-9770D01*
X584419Y-9573D01*
X584349Y-9389D01*
X584250Y-9220D01*
X584236Y-9206D01*
X584194Y-9150D01*
X584123Y-9093D01*
X584025Y-9009D01*
X583898Y-8938D01*
X583728Y-8868D01*
X583531Y-8826D01*
X583292Y-8811D01*
X583207D01*
X583108Y-8826D01*
X582995Y-8840D01*
X582854Y-8882D01*
X582685Y-8924D01*
X582530Y-8995D01*
X582361Y-9079D01*
X582347Y-9093D01*
X582291Y-9136D01*
X582220Y-9192D01*
X582121Y-9277D01*
X582023Y-9389D01*
X581924Y-9530D01*
X581825Y-9686D01*
X581741Y-9869D01*
X581727Y-9897D01*
X581713Y-9967D01*
X581684Y-10080D01*
X581642Y-10235D01*
X581600Y-10447D01*
X581572Y-10700D01*
X581558Y-10997D01*
X581544Y-11335D01*
Y-15000D01*
X580345D01*
Y-7923D01*
X581417D01*
Y-8938D01*
X581431Y-8910D01*
X581473Y-8854D01*
X581558Y-8755D01*
X581656Y-8642D01*
X581783Y-8501D01*
X581938Y-8360D01*
X582107Y-8219D01*
X582305Y-8092D01*
X582333Y-8078D01*
X582403Y-8036D01*
X582516Y-7994D01*
X582671Y-7923D01*
X582854Y-7867D01*
X583066Y-7825D01*
X583306Y-7782D01*
X583559Y-7768D01*
X583686D01*
X583841Y-7782D01*
X584010Y-7811D01*
X584222Y-7853D01*
X584433Y-7909D01*
X584645Y-7994D01*
X584842Y-8107D01*
X584870Y-8121D01*
X584927Y-8163D01*
X585011Y-8234D01*
X585124Y-8346D01*
X585237Y-8473D01*
X585364Y-8628D01*
X585476Y-8811D01*
X585561Y-9023D01*
X585575Y-9009D01*
X585603Y-8967D01*
X585646Y-8910D01*
X585716Y-8826D01*
X585801Y-8727D01*
X585899Y-8628D01*
X586012Y-8515D01*
X586153Y-8389D01*
X586308Y-8276D01*
X586463Y-8163D01*
X586647Y-8064D01*
X586844Y-7966D01*
X587055Y-7881D01*
X587281Y-7825D01*
X587506Y-7782D01*
X587760Y-7768D01*
X587859D01*
X587929Y-7782D01*
D02*
G37*
G36*
X547922Y-9291D02*
X546555D01*
Y-7923D01*
X547922D01*
Y-9291D01*
D02*
G37*
G36*
X559482Y-6514D02*
X555577D01*
X555055Y-9150D01*
X555069Y-9136D01*
X555098Y-9122D01*
X555140Y-9093D01*
X555210Y-9051D01*
X555295Y-9009D01*
X555393Y-8952D01*
X555619Y-8840D01*
X555901Y-8727D01*
X556211Y-8628D01*
X556549Y-8558D01*
X556719Y-8529D01*
X557029D01*
X557113Y-8544D01*
X557226Y-8558D01*
X557353Y-8572D01*
X557494Y-8600D01*
X557649Y-8642D01*
X557987Y-8741D01*
X558171Y-8811D01*
X558354Y-8910D01*
X558537Y-9009D01*
X558720Y-9122D01*
X558890Y-9262D01*
X559059Y-9418D01*
X559073Y-9432D01*
X559101Y-9460D01*
X559143Y-9502D01*
X559200Y-9573D01*
X559270Y-9671D01*
X559341Y-9770D01*
X559425Y-9897D01*
X559510Y-10038D01*
X559580Y-10193D01*
X559665Y-10362D01*
X559735Y-10560D01*
X559806Y-10757D01*
X559862Y-10968D01*
X559905Y-11208D01*
X559933Y-11448D01*
X559947Y-11701D01*
Y-11715D01*
Y-11758D01*
Y-11828D01*
X559933Y-11927D01*
X559919Y-12040D01*
X559905Y-12167D01*
X559876Y-12322D01*
X559848Y-12477D01*
X559764Y-12843D01*
X559623Y-13224D01*
X559538Y-13421D01*
X559425Y-13604D01*
X559313Y-13802D01*
X559171Y-13985D01*
X559157Y-13999D01*
X559129Y-14041D01*
X559073Y-14098D01*
X559002Y-14168D01*
X558904Y-14253D01*
X558791Y-14366D01*
X558650Y-14464D01*
X558495Y-14577D01*
X558326Y-14690D01*
X558128Y-14789D01*
X557917Y-14887D01*
X557691Y-14986D01*
X557452Y-15056D01*
X557184Y-15113D01*
X556902Y-15155D01*
X556606Y-15169D01*
X556479D01*
X556380Y-15155D01*
X556268Y-15141D01*
X556141Y-15127D01*
X555986Y-15113D01*
X555830Y-15071D01*
X555478Y-14986D01*
X555126Y-14859D01*
X554942Y-14775D01*
X554759Y-14676D01*
X554590Y-14563D01*
X554421Y-14436D01*
X554407Y-14422D01*
X554379Y-14408D01*
X554350Y-14352D01*
X554294Y-14295D01*
X554224Y-14225D01*
X554153Y-14140D01*
X554068Y-14027D01*
X553998Y-13901D01*
X553913Y-13774D01*
X553829Y-13619D01*
X553674Y-13280D01*
X553547Y-12886D01*
X553504Y-12674D01*
X553476Y-12449D01*
X554731Y-12350D01*
Y-12364D01*
Y-12392D01*
X554745Y-12434D01*
X554759Y-12505D01*
X554801Y-12660D01*
X554858Y-12871D01*
X554942Y-13083D01*
X555055Y-13322D01*
X555196Y-13534D01*
X555365Y-13731D01*
X555393Y-13745D01*
X555450Y-13802D01*
X555563Y-13872D01*
X555718Y-13957D01*
X555887Y-14041D01*
X556098Y-14112D01*
X556338Y-14168D01*
X556606Y-14182D01*
X556690D01*
X556747Y-14168D01*
X556916Y-14154D01*
X557113Y-14098D01*
X557353Y-14027D01*
X557593Y-13915D01*
X557846Y-13745D01*
X557959Y-13647D01*
X558072Y-13534D01*
X558086Y-13520D01*
X558100Y-13506D01*
X558128Y-13463D01*
X558171Y-13421D01*
X558269Y-13266D01*
X558382Y-13069D01*
X558481Y-12829D01*
X558579Y-12533D01*
X558650Y-12181D01*
X558678Y-11997D01*
Y-11800D01*
Y-11786D01*
Y-11758D01*
Y-11701D01*
X558664Y-11631D01*
Y-11546D01*
X558650Y-11448D01*
X558608Y-11222D01*
X558537Y-10954D01*
X558438Y-10686D01*
X558298Y-10433D01*
X558100Y-10193D01*
Y-10179D01*
X558072Y-10165D01*
X558002Y-10094D01*
X557875Y-9996D01*
X557705Y-9883D01*
X557480Y-9784D01*
X557226Y-9686D01*
X556930Y-9615D01*
X556761Y-9587D01*
X556493D01*
X556380Y-9601D01*
X556239Y-9615D01*
X556070Y-9657D01*
X555901Y-9700D01*
X555718Y-9770D01*
X555535Y-9855D01*
X555520Y-9869D01*
X555464Y-9897D01*
X555379Y-9967D01*
X555267Y-10038D01*
X555154Y-10137D01*
X555041Y-10263D01*
X554914Y-10390D01*
X554816Y-10545D01*
X553688Y-10390D01*
X554632Y-5372D01*
X559482D01*
Y-6514D01*
D02*
G37*
G36*
X570689Y-15000D02*
X569321D01*
Y-13633D01*
X570689D01*
Y-15000D01*
D02*
G37*
G36*
X547922D02*
X546555D01*
Y-13633D01*
X547922D01*
Y-15000D01*
D02*
G37*
G36*
X575820Y-5217D02*
X575933Y-5231D01*
X576060Y-5245D01*
X576201Y-5259D01*
X576342Y-5301D01*
X576680Y-5386D01*
X577018Y-5513D01*
X577188Y-5597D01*
X577357Y-5696D01*
X577512Y-5823D01*
X577667Y-5950D01*
X577681Y-5964D01*
X577695Y-5978D01*
X577737Y-6020D01*
X577794Y-6077D01*
X577850Y-6161D01*
X577920Y-6246D01*
X578061Y-6457D01*
X578203Y-6725D01*
X578329Y-7035D01*
X578428Y-7388D01*
X578442Y-7571D01*
X578456Y-7768D01*
Y-7782D01*
Y-7796D01*
Y-7881D01*
X578442Y-8008D01*
X578414Y-8163D01*
X578372Y-8360D01*
X578301Y-8558D01*
X578217Y-8755D01*
X578090Y-8952D01*
X578076Y-8981D01*
X578019Y-9037D01*
X577935Y-9122D01*
X577822Y-9234D01*
X577667Y-9361D01*
X577483Y-9488D01*
X577272Y-9615D01*
X577018Y-9728D01*
X577032D01*
X577061Y-9742D01*
X577103Y-9756D01*
X577159Y-9784D01*
X577328Y-9855D01*
X577526Y-9953D01*
X577737Y-10094D01*
X577963Y-10249D01*
X578174Y-10447D01*
X578372Y-10672D01*
Y-10686D01*
X578386Y-10700D01*
X578442Y-10785D01*
X578527Y-10926D01*
X578611Y-11109D01*
X578696Y-11335D01*
X578781Y-11603D01*
X578837Y-11899D01*
X578851Y-12223D01*
Y-12237D01*
Y-12279D01*
Y-12350D01*
X578837Y-12434D01*
X578823Y-12533D01*
X578809Y-12660D01*
X578781Y-12801D01*
X578738Y-12956D01*
X578639Y-13280D01*
X578569Y-13463D01*
X578470Y-13633D01*
X578372Y-13816D01*
X578259Y-13985D01*
X578118Y-14154D01*
X577963Y-14323D01*
X577949Y-14338D01*
X577920Y-14366D01*
X577878Y-14408D01*
X577808Y-14450D01*
X577709Y-14521D01*
X577610Y-14591D01*
X577483Y-14662D01*
X577343Y-14746D01*
X577188Y-14831D01*
X577004Y-14901D01*
X576807Y-14972D01*
X576609Y-15042D01*
X576384Y-15085D01*
X576144Y-15127D01*
X575905Y-15155D01*
X575637Y-15169D01*
X575496D01*
X575397Y-15155D01*
X575270Y-15141D01*
X575129Y-15127D01*
X574974Y-15099D01*
X574805Y-15056D01*
X574425Y-14958D01*
X574227Y-14887D01*
X574044Y-14817D01*
X573847Y-14718D01*
X573649Y-14605D01*
X573466Y-14478D01*
X573297Y-14323D01*
X573283Y-14309D01*
X573254Y-14281D01*
X573212Y-14239D01*
X573156Y-14168D01*
X573099Y-14084D01*
X573015Y-13985D01*
X572944Y-13872D01*
X572860Y-13731D01*
X572775Y-13590D01*
X572705Y-13421D01*
X572564Y-13069D01*
X572507Y-12857D01*
X572465Y-12646D01*
X572437Y-12420D01*
X572423Y-12195D01*
Y-12181D01*
Y-12152D01*
Y-12096D01*
X572437Y-12040D01*
Y-11955D01*
X572451Y-11856D01*
X572479Y-11631D01*
X572536Y-11377D01*
X572620Y-11123D01*
X572747Y-10855D01*
X572902Y-10602D01*
Y-10588D01*
X572930Y-10574D01*
X572987Y-10503D01*
X573099Y-10390D01*
X573254Y-10249D01*
X573452Y-10108D01*
X573691Y-9953D01*
X573959Y-9826D01*
X574283Y-9728D01*
X574269D01*
X574255Y-9714D01*
X574213Y-9700D01*
X574157Y-9671D01*
X574030Y-9615D01*
X573861Y-9530D01*
X573677Y-9418D01*
X573494Y-9277D01*
X573325Y-9122D01*
X573170Y-8952D01*
X573156Y-8924D01*
X573114Y-8868D01*
X573057Y-8755D01*
X573001Y-8614D01*
X572930Y-8431D01*
X572874Y-8219D01*
X572831Y-7980D01*
X572817Y-7726D01*
Y-7712D01*
Y-7684D01*
Y-7627D01*
X572831Y-7543D01*
X572846Y-7458D01*
X572860Y-7345D01*
X572916Y-7106D01*
X573001Y-6824D01*
X573142Y-6528D01*
X573226Y-6373D01*
X573325Y-6218D01*
X573452Y-6077D01*
X573579Y-5936D01*
X573593Y-5922D01*
X573621Y-5907D01*
X573663Y-5865D01*
X573720Y-5823D01*
X573790Y-5767D01*
X573889Y-5710D01*
X574002Y-5640D01*
X574114Y-5569D01*
X574255Y-5499D01*
X574410Y-5428D01*
X574580Y-5372D01*
X574763Y-5315D01*
X575158Y-5231D01*
X575383Y-5217D01*
X575609Y-5203D01*
X575736D01*
X575820Y-5217D01*
D02*
G37*
G36*
X564528D02*
X564712Y-5245D01*
X564923Y-5287D01*
X565149Y-5344D01*
X565388Y-5414D01*
X565614Y-5527D01*
X565628D01*
X565642Y-5541D01*
X565713Y-5583D01*
X565825Y-5654D01*
X565966Y-5752D01*
X566121Y-5893D01*
X566291Y-6048D01*
X566446Y-6232D01*
X566601Y-6443D01*
X566615Y-6471D01*
X566671Y-6542D01*
X566727Y-6669D01*
X566826Y-6852D01*
X566911Y-7063D01*
X567024Y-7303D01*
X567122Y-7585D01*
X567207Y-7895D01*
Y-7909D01*
X567221Y-7937D01*
X567235Y-7980D01*
X567249Y-8050D01*
X567263Y-8135D01*
X567277Y-8234D01*
X567305Y-8360D01*
X567320Y-8501D01*
X567348Y-8656D01*
X567362Y-8826D01*
X567376Y-9023D01*
X567404Y-9220D01*
X567418Y-9446D01*
Y-9671D01*
X567432Y-9925D01*
Y-10193D01*
Y-10207D01*
Y-10263D01*
Y-10362D01*
Y-10475D01*
X567418Y-10630D01*
Y-10799D01*
X567404Y-10982D01*
X567390Y-11180D01*
X567348Y-11631D01*
X567277Y-12096D01*
X567193Y-12547D01*
X567136Y-12759D01*
X567066Y-12970D01*
Y-12984D01*
X567052Y-13012D01*
X567024Y-13069D01*
X566995Y-13139D01*
X566967Y-13238D01*
X566911Y-13337D01*
X566798Y-13576D01*
X566657Y-13830D01*
X566474Y-14112D01*
X566262Y-14366D01*
X566009Y-14605D01*
X565994D01*
X565980Y-14634D01*
X565938Y-14662D01*
X565882Y-14690D01*
X565811Y-14732D01*
X565741Y-14789D01*
X565529Y-14887D01*
X565275Y-14986D01*
X564980Y-15085D01*
X564627Y-15141D01*
X564246Y-15169D01*
X564105D01*
X564007Y-15155D01*
X563894Y-15141D01*
X563753Y-15113D01*
X563598Y-15085D01*
X563429Y-15042D01*
X563260Y-14986D01*
X563076Y-14929D01*
X562893Y-14845D01*
X562710Y-14746D01*
X562527Y-14634D01*
X562343Y-14492D01*
X562174Y-14338D01*
X562019Y-14168D01*
X562005Y-14154D01*
X561977Y-14112D01*
X561935Y-14041D01*
X561864Y-13929D01*
X561794Y-13802D01*
X561723Y-13633D01*
X561624Y-13435D01*
X561540Y-13210D01*
X561455Y-12956D01*
X561371Y-12660D01*
X561286Y-12336D01*
X561216Y-11969D01*
X561145Y-11574D01*
X561103Y-11151D01*
X561075Y-10686D01*
X561060Y-10193D01*
Y-10179D01*
Y-10122D01*
Y-10024D01*
Y-9911D01*
X561075Y-9756D01*
Y-9587D01*
X561089Y-9403D01*
X561103Y-9192D01*
X561145Y-8755D01*
X561216Y-8290D01*
X561300Y-7825D01*
X561357Y-7613D01*
X561413Y-7402D01*
Y-7388D01*
X561427Y-7359D01*
X561455Y-7303D01*
X561483Y-7233D01*
X561512Y-7134D01*
X561568Y-7035D01*
X561681Y-6796D01*
X561822Y-6542D01*
X562005Y-6274D01*
X562216Y-6006D01*
X562470Y-5781D01*
X562484D01*
X562498Y-5752D01*
X562541Y-5724D01*
X562597Y-5696D01*
X562668Y-5640D01*
X562752Y-5597D01*
X562964Y-5484D01*
X563217Y-5386D01*
X563513Y-5287D01*
X563866Y-5231D01*
X564246Y-5203D01*
X564373D01*
X564528Y-5217D01*
D02*
G37*
G36*
X334306Y-22782D02*
X334404D01*
X334503Y-22796D01*
X334743Y-22839D01*
X334996Y-22909D01*
X335264Y-23022D01*
X335532Y-23163D01*
X335758Y-23360D01*
X335786Y-23389D01*
X335842Y-23473D01*
X335941Y-23600D01*
X335983Y-23699D01*
X336040Y-23797D01*
X336096Y-23924D01*
X336138Y-24051D01*
X336195Y-24192D01*
X336237Y-24361D01*
X336265Y-24530D01*
X336293Y-24728D01*
X336322Y-24925D01*
Y-25151D01*
Y-30000D01*
X335123D01*
Y-25559D01*
Y-25545D01*
Y-25531D01*
Y-25447D01*
Y-25320D01*
X335109Y-25165D01*
X335095Y-24996D01*
X335081Y-24826D01*
X335053Y-24657D01*
X335010Y-24530D01*
Y-24516D01*
X334982Y-24474D01*
X334954Y-24418D01*
X334912Y-24347D01*
X334855Y-24262D01*
X334785Y-24178D01*
X334700Y-24093D01*
X334588Y-24009D01*
X334574Y-23995D01*
X334531Y-23981D01*
X334475Y-23952D01*
X334376Y-23910D01*
X334277Y-23868D01*
X334151Y-23840D01*
X334024Y-23826D01*
X333869Y-23811D01*
X333798D01*
X333742Y-23826D01*
X333601Y-23840D01*
X333432Y-23868D01*
X333234Y-23938D01*
X333023Y-24023D01*
X332811Y-24150D01*
X332614Y-24319D01*
X332600Y-24347D01*
X332544Y-24418D01*
X332459Y-24530D01*
X332374Y-24699D01*
X332276Y-24925D01*
X332205Y-25193D01*
X332149Y-25517D01*
X332121Y-25898D01*
Y-30000D01*
X330922D01*
Y-25419D01*
Y-25404D01*
Y-25376D01*
Y-25348D01*
Y-25292D01*
X330908Y-25137D01*
X330880Y-24967D01*
X330852Y-24770D01*
X330796Y-24573D01*
X330725Y-24389D01*
X330626Y-24220D01*
X330612Y-24206D01*
X330570Y-24150D01*
X330499Y-24093D01*
X330401Y-24009D01*
X330274Y-23938D01*
X330105Y-23868D01*
X329907Y-23826D01*
X329668Y-23811D01*
X329583D01*
X329484Y-23826D01*
X329372Y-23840D01*
X329231Y-23882D01*
X329062Y-23924D01*
X328907Y-23995D01*
X328737Y-24079D01*
X328723Y-24093D01*
X328667Y-24136D01*
X328596Y-24192D01*
X328498Y-24277D01*
X328399Y-24389D01*
X328300Y-24530D01*
X328202Y-24685D01*
X328117Y-24869D01*
X328103Y-24897D01*
X328089Y-24967D01*
X328061Y-25080D01*
X328018Y-25235D01*
X327976Y-25447D01*
X327948Y-25700D01*
X327934Y-25996D01*
X327920Y-26335D01*
Y-30000D01*
X326721D01*
Y-22923D01*
X327793D01*
Y-23938D01*
X327807Y-23910D01*
X327849Y-23854D01*
X327934Y-23755D01*
X328032Y-23642D01*
X328159Y-23501D01*
X328315Y-23360D01*
X328484Y-23219D01*
X328681Y-23093D01*
X328709Y-23078D01*
X328780Y-23036D01*
X328892Y-22994D01*
X329048Y-22923D01*
X329231Y-22867D01*
X329442Y-22825D01*
X329682Y-22782D01*
X329936Y-22768D01*
X330062D01*
X330218Y-22782D01*
X330387Y-22810D01*
X330598Y-22853D01*
X330810Y-22909D01*
X331021Y-22994D01*
X331218Y-23107D01*
X331247Y-23121D01*
X331303Y-23163D01*
X331388Y-23233D01*
X331500Y-23346D01*
X331613Y-23473D01*
X331740Y-23628D01*
X331853Y-23811D01*
X331937Y-24023D01*
X331951Y-24009D01*
X331980Y-23967D01*
X332022Y-23910D01*
X332093Y-23826D01*
X332177Y-23727D01*
X332276Y-23628D01*
X332388Y-23515D01*
X332529Y-23389D01*
X332685Y-23276D01*
X332840Y-23163D01*
X333023Y-23064D01*
X333220Y-22966D01*
X333432Y-22881D01*
X333657Y-22825D01*
X333883Y-22782D01*
X334137Y-22768D01*
X334235D01*
X334306Y-22782D01*
D02*
G37*
G36*
X322943D02*
X323042D01*
X323141Y-22796D01*
X323381Y-22839D01*
X323634Y-22909D01*
X323902Y-23022D01*
X324170Y-23163D01*
X324395Y-23360D01*
X324424Y-23389D01*
X324480Y-23473D01*
X324579Y-23600D01*
X324621Y-23699D01*
X324677Y-23797D01*
X324734Y-23924D01*
X324776Y-24051D01*
X324832Y-24192D01*
X324875Y-24361D01*
X324903Y-24530D01*
X324931Y-24728D01*
X324959Y-24925D01*
Y-25151D01*
Y-30000D01*
X323761D01*
Y-25559D01*
Y-25545D01*
Y-25531D01*
Y-25447D01*
Y-25320D01*
X323747Y-25165D01*
X323733Y-24996D01*
X323719Y-24826D01*
X323691Y-24657D01*
X323648Y-24530D01*
Y-24516D01*
X323620Y-24474D01*
X323592Y-24418D01*
X323550Y-24347D01*
X323493Y-24262D01*
X323423Y-24178D01*
X323338Y-24093D01*
X323225Y-24009D01*
X323211Y-23995D01*
X323169Y-23981D01*
X323113Y-23952D01*
X323014Y-23910D01*
X322915Y-23868D01*
X322788Y-23840D01*
X322662Y-23826D01*
X322506Y-23811D01*
X322436D01*
X322380Y-23826D01*
X322239Y-23840D01*
X322070Y-23868D01*
X321872Y-23938D01*
X321661Y-24023D01*
X321449Y-24150D01*
X321252Y-24319D01*
X321238Y-24347D01*
X321181Y-24418D01*
X321097Y-24530D01*
X321012Y-24699D01*
X320914Y-24925D01*
X320843Y-25193D01*
X320787Y-25517D01*
X320759Y-25898D01*
Y-30000D01*
X319560D01*
Y-25419D01*
Y-25404D01*
Y-25376D01*
Y-25348D01*
Y-25292D01*
X319546Y-25137D01*
X319518Y-24967D01*
X319490Y-24770D01*
X319433Y-24573D01*
X319363Y-24389D01*
X319264Y-24220D01*
X319250Y-24206D01*
X319208Y-24150D01*
X319137Y-24093D01*
X319039Y-24009D01*
X318912Y-23938D01*
X318743Y-23868D01*
X318545Y-23826D01*
X318306Y-23811D01*
X318221D01*
X318122Y-23826D01*
X318009Y-23840D01*
X317869Y-23882D01*
X317699Y-23924D01*
X317544Y-23995D01*
X317375Y-24079D01*
X317361Y-24093D01*
X317305Y-24136D01*
X317234Y-24192D01*
X317136Y-24277D01*
X317037Y-24389D01*
X316938Y-24530D01*
X316840Y-24685D01*
X316755Y-24869D01*
X316741Y-24897D01*
X316727Y-24967D01*
X316698Y-25080D01*
X316656Y-25235D01*
X316614Y-25447D01*
X316586Y-25700D01*
X316572Y-25996D01*
X316558Y-26335D01*
Y-30000D01*
X315359D01*
Y-22923D01*
X316431D01*
Y-23938D01*
X316445Y-23910D01*
X316487Y-23854D01*
X316572Y-23755D01*
X316670Y-23642D01*
X316797Y-23501D01*
X316952Y-23360D01*
X317121Y-23219D01*
X317319Y-23093D01*
X317347Y-23078D01*
X317418Y-23036D01*
X317530Y-22994D01*
X317685Y-22923D01*
X317869Y-22867D01*
X318080Y-22825D01*
X318320Y-22782D01*
X318573Y-22768D01*
X318700D01*
X318855Y-22782D01*
X319025Y-22810D01*
X319236Y-22853D01*
X319447Y-22909D01*
X319659Y-22994D01*
X319856Y-23107D01*
X319884Y-23121D01*
X319941Y-23163D01*
X320025Y-23233D01*
X320138Y-23346D01*
X320251Y-23473D01*
X320378Y-23628D01*
X320491Y-23811D01*
X320575Y-24023D01*
X320589Y-24009D01*
X320617Y-23967D01*
X320660Y-23910D01*
X320730Y-23826D01*
X320815Y-23727D01*
X320914Y-23628D01*
X321026Y-23515D01*
X321167Y-23389D01*
X321322Y-23276D01*
X321477Y-23163D01*
X321661Y-23064D01*
X321858Y-22966D01*
X322070Y-22881D01*
X322295Y-22825D01*
X322521Y-22782D01*
X322774Y-22768D01*
X322873D01*
X322943Y-22782D01*
D02*
G37*
G36*
X282936Y-24291D02*
X281569D01*
Y-22923D01*
X282936D01*
Y-24291D01*
D02*
G37*
G36*
X272547Y-25870D02*
Y-30000D01*
X271250D01*
Y-25870D01*
X267486Y-20245D01*
X269051D01*
X270968Y-23205D01*
Y-23219D01*
X270996Y-23248D01*
X271024Y-23290D01*
X271052Y-23346D01*
X271109Y-23417D01*
X271165Y-23501D01*
X271292Y-23713D01*
X271447Y-23967D01*
X271616Y-24248D01*
X271800Y-24544D01*
X271969Y-24855D01*
Y-24841D01*
X271983Y-24812D01*
X272011Y-24770D01*
X272053Y-24714D01*
X272096Y-24643D01*
X272152Y-24559D01*
X272279Y-24347D01*
X272434Y-24093D01*
X272617Y-23797D01*
X272829Y-23473D01*
X273054Y-23121D01*
X274929Y-20245D01*
X276437D01*
X272547Y-25870D01*
D02*
G37*
G36*
X305872Y-21514D02*
X301967D01*
X301446Y-24150D01*
X301460Y-24136D01*
X301488Y-24122D01*
X301530Y-24093D01*
X301601Y-24051D01*
X301685Y-24009D01*
X301784Y-23952D01*
X302010Y-23840D01*
X302291Y-23727D01*
X302602Y-23628D01*
X302940Y-23558D01*
X303109Y-23530D01*
X303419D01*
X303504Y-23544D01*
X303617Y-23558D01*
X303743Y-23572D01*
X303884Y-23600D01*
X304039Y-23642D01*
X304378Y-23741D01*
X304561Y-23811D01*
X304744Y-23910D01*
X304928Y-24009D01*
X305111Y-24122D01*
X305280Y-24262D01*
X305449Y-24418D01*
X305463Y-24432D01*
X305491Y-24460D01*
X305534Y-24502D01*
X305590Y-24573D01*
X305661Y-24671D01*
X305731Y-24770D01*
X305816Y-24897D01*
X305900Y-25038D01*
X305971Y-25193D01*
X306055Y-25362D01*
X306126Y-25559D01*
X306196Y-25757D01*
X306253Y-25968D01*
X306295Y-26208D01*
X306323Y-26448D01*
X306337Y-26701D01*
Y-26715D01*
Y-26758D01*
Y-26828D01*
X306323Y-26927D01*
X306309Y-27040D01*
X306295Y-27167D01*
X306267Y-27322D01*
X306239Y-27477D01*
X306154Y-27843D01*
X306013Y-28224D01*
X305928Y-28421D01*
X305816Y-28604D01*
X305703Y-28802D01*
X305562Y-28985D01*
X305548Y-28999D01*
X305520Y-29041D01*
X305463Y-29098D01*
X305393Y-29168D01*
X305294Y-29253D01*
X305181Y-29366D01*
X305040Y-29464D01*
X304885Y-29577D01*
X304716Y-29690D01*
X304519Y-29789D01*
X304307Y-29887D01*
X304082Y-29986D01*
X303842Y-30056D01*
X303574Y-30113D01*
X303292Y-30155D01*
X302996Y-30169D01*
X302869D01*
X302771Y-30155D01*
X302658Y-30141D01*
X302531Y-30127D01*
X302376Y-30113D01*
X302221Y-30071D01*
X301868Y-29986D01*
X301516Y-29859D01*
X301333Y-29774D01*
X301150Y-29676D01*
X300980Y-29563D01*
X300811Y-29436D01*
X300797Y-29422D01*
X300769Y-29408D01*
X300741Y-29352D01*
X300684Y-29295D01*
X300614Y-29225D01*
X300543Y-29140D01*
X300459Y-29027D01*
X300388Y-28900D01*
X300304Y-28774D01*
X300219Y-28619D01*
X300064Y-28280D01*
X299937Y-27885D01*
X299895Y-27674D01*
X299867Y-27448D01*
X301121Y-27350D01*
Y-27364D01*
Y-27392D01*
X301135Y-27434D01*
X301150Y-27505D01*
X301192Y-27660D01*
X301248Y-27871D01*
X301333Y-28083D01*
X301446Y-28323D01*
X301586Y-28534D01*
X301756Y-28731D01*
X301784Y-28745D01*
X301840Y-28802D01*
X301953Y-28872D01*
X302108Y-28957D01*
X302277Y-29041D01*
X302489Y-29112D01*
X302728Y-29168D01*
X302996Y-29182D01*
X303081D01*
X303137Y-29168D01*
X303306Y-29154D01*
X303504Y-29098D01*
X303743Y-29027D01*
X303983Y-28914D01*
X304237Y-28745D01*
X304350Y-28647D01*
X304462Y-28534D01*
X304476Y-28520D01*
X304491Y-28506D01*
X304519Y-28463D01*
X304561Y-28421D01*
X304660Y-28266D01*
X304772Y-28069D01*
X304871Y-27829D01*
X304970Y-27533D01*
X305040Y-27181D01*
X305068Y-26997D01*
Y-26800D01*
Y-26786D01*
Y-26758D01*
Y-26701D01*
X305054Y-26631D01*
Y-26546D01*
X305040Y-26448D01*
X304998Y-26222D01*
X304928Y-25954D01*
X304829Y-25686D01*
X304688Y-25433D01*
X304491Y-25193D01*
Y-25179D01*
X304462Y-25165D01*
X304392Y-25094D01*
X304265Y-24996D01*
X304096Y-24883D01*
X303870Y-24784D01*
X303617Y-24685D01*
X303321Y-24615D01*
X303151Y-24587D01*
X302883D01*
X302771Y-24601D01*
X302630Y-24615D01*
X302461Y-24657D01*
X302291Y-24699D01*
X302108Y-24770D01*
X301925Y-24855D01*
X301911Y-24869D01*
X301854Y-24897D01*
X301770Y-24967D01*
X301657Y-25038D01*
X301544Y-25137D01*
X301432Y-25263D01*
X301305Y-25390D01*
X301206Y-25545D01*
X300078Y-25390D01*
X301023Y-20372D01*
X305872D01*
Y-21514D01*
D02*
G37*
G36*
X312484Y-26560D02*
X313809D01*
Y-27660D01*
X312484D01*
Y-30000D01*
X311285D01*
Y-27660D01*
X307042D01*
Y-26560D01*
X311511Y-20245D01*
X312484D01*
Y-26560D01*
D02*
G37*
G36*
X298119Y-30000D02*
X296751D01*
Y-28633D01*
X298119D01*
Y-30000D01*
D02*
G37*
G36*
X291958Y-20217D02*
X292071Y-20231D01*
X292212Y-20245D01*
X292367Y-20273D01*
X292522Y-20301D01*
X292889Y-20400D01*
X293255Y-20541D01*
X293438Y-20626D01*
X293622Y-20724D01*
X293791Y-20851D01*
X293946Y-20992D01*
X293960Y-21006D01*
X293988Y-21020D01*
X294016Y-21077D01*
X294073Y-21133D01*
X294143Y-21203D01*
X294214Y-21302D01*
X294284Y-21401D01*
X294369Y-21528D01*
X294510Y-21796D01*
X294651Y-22134D01*
X294707Y-22303D01*
X294735Y-22500D01*
X294764Y-22698D01*
X294778Y-22909D01*
Y-22937D01*
Y-23008D01*
X294764Y-23121D01*
X294750Y-23276D01*
X294721Y-23445D01*
X294665Y-23642D01*
X294608Y-23854D01*
X294524Y-24065D01*
X294510Y-24093D01*
X294482Y-24164D01*
X294425Y-24277D01*
X294341Y-24432D01*
X294228Y-24601D01*
X294087Y-24812D01*
X293918Y-25024D01*
X293720Y-25263D01*
X293692Y-25292D01*
X293622Y-25376D01*
X293551Y-25447D01*
X293481Y-25517D01*
X293396Y-25602D01*
X293283Y-25714D01*
X293171Y-25827D01*
X293030Y-25954D01*
X292889Y-26095D01*
X292719Y-26250D01*
X292536Y-26405D01*
X292339Y-26588D01*
X292113Y-26772D01*
X291888Y-26969D01*
X291874Y-26983D01*
X291845Y-27011D01*
X291789Y-27054D01*
X291719Y-27110D01*
X291634Y-27195D01*
X291535Y-27279D01*
X291310Y-27463D01*
X291070Y-27674D01*
X290845Y-27885D01*
X290647Y-28069D01*
X290563Y-28139D01*
X290492Y-28210D01*
X290478Y-28224D01*
X290436Y-28266D01*
X290379Y-28323D01*
X290309Y-28407D01*
X290238Y-28506D01*
X290154Y-28604D01*
X289985Y-28844D01*
X294792D01*
Y-30000D01*
X288321D01*
Y-29986D01*
Y-29929D01*
Y-29845D01*
X288335Y-29732D01*
X288349Y-29605D01*
X288378Y-29464D01*
X288406Y-29323D01*
X288462Y-29168D01*
Y-29154D01*
X288476Y-29140D01*
X288505Y-29056D01*
X288561Y-28929D01*
X288645Y-28760D01*
X288758Y-28562D01*
X288899Y-28337D01*
X289054Y-28111D01*
X289252Y-27871D01*
Y-27857D01*
X289280Y-27843D01*
X289350Y-27759D01*
X289477Y-27632D01*
X289660Y-27448D01*
X289872Y-27237D01*
X290140Y-26983D01*
X290464Y-26701D01*
X290816Y-26405D01*
X290830Y-26391D01*
X290887Y-26349D01*
X290972Y-26278D01*
X291070Y-26194D01*
X291197Y-26081D01*
X291352Y-25954D01*
X291507Y-25813D01*
X291691Y-25658D01*
X292043Y-25320D01*
X292395Y-24982D01*
X292565Y-24812D01*
X292719Y-24643D01*
X292861Y-24488D01*
X292973Y-24333D01*
Y-24319D01*
X293001Y-24305D01*
X293030Y-24262D01*
X293058Y-24206D01*
X293157Y-24051D01*
X293269Y-23868D01*
X293368Y-23642D01*
X293467Y-23403D01*
X293523Y-23135D01*
X293551Y-22881D01*
Y-22867D01*
Y-22853D01*
X293537Y-22768D01*
X293523Y-22627D01*
X293481Y-22472D01*
X293424Y-22275D01*
X293326Y-22078D01*
X293199Y-21880D01*
X293030Y-21683D01*
X293001Y-21655D01*
X292931Y-21598D01*
X292832Y-21528D01*
X292677Y-21429D01*
X292480Y-21344D01*
X292254Y-21260D01*
X291987Y-21203D01*
X291691Y-21189D01*
X291606D01*
X291549Y-21203D01*
X291380Y-21218D01*
X291183Y-21260D01*
X290972Y-21316D01*
X290732Y-21415D01*
X290506Y-21542D01*
X290295Y-21711D01*
X290267Y-21739D01*
X290210Y-21810D01*
X290126Y-21922D01*
X290041Y-22092D01*
X289942Y-22289D01*
X289858Y-22543D01*
X289802Y-22825D01*
X289773Y-23149D01*
X288547Y-23022D01*
Y-23008D01*
X288561Y-22966D01*
Y-22895D01*
X288575Y-22796D01*
X288603Y-22684D01*
X288631Y-22557D01*
X288674Y-22402D01*
X288716Y-22247D01*
X288829Y-21908D01*
X288998Y-21570D01*
X289097Y-21401D01*
X289223Y-21232D01*
X289350Y-21077D01*
X289491Y-20936D01*
X289505Y-20921D01*
X289534Y-20907D01*
X289576Y-20865D01*
X289646Y-20823D01*
X289731Y-20766D01*
X289830Y-20710D01*
X289942Y-20640D01*
X290083Y-20569D01*
X290238Y-20499D01*
X290408Y-20428D01*
X290591Y-20372D01*
X290788Y-20315D01*
X291000Y-20273D01*
X291225Y-20231D01*
X291465Y-20217D01*
X291719Y-20203D01*
X291860D01*
X291958Y-20217D01*
D02*
G37*
G36*
X282936Y-30000D02*
X281569D01*
Y-28633D01*
X282936D01*
Y-30000D01*
D02*
G37*
%LPC*%
G36*
X310792Y-6189D02*
X310566D01*
X310510Y-6204D01*
X310355Y-6218D01*
X310172Y-6274D01*
X309946Y-6345D01*
X309706Y-6471D01*
X309467Y-6626D01*
X309354Y-6739D01*
X309241Y-6852D01*
Y-6866D01*
X309213Y-6880D01*
X309185Y-6922D01*
X309157Y-6965D01*
X309058Y-7106D01*
X308959Y-7303D01*
X308846Y-7543D01*
X308748Y-7839D01*
X308691Y-8177D01*
X308663Y-8544D01*
Y-8558D01*
Y-8586D01*
Y-8628D01*
X308677Y-8699D01*
Y-8783D01*
X308691Y-8868D01*
X308734Y-9079D01*
X308804Y-9319D01*
X308889Y-9573D01*
X309030Y-9826D01*
X309213Y-10052D01*
X309241Y-10080D01*
X309312Y-10137D01*
X309439Y-10235D01*
X309594Y-10334D01*
X309805Y-10447D01*
X310045Y-10545D01*
X310313Y-10602D01*
X310609Y-10630D01*
X310693D01*
X310750Y-10616D01*
X310905Y-10602D01*
X311088Y-10560D01*
X311313Y-10489D01*
X311539Y-10390D01*
X311765Y-10249D01*
X311976Y-10052D01*
X312004Y-10024D01*
X312061Y-9939D01*
X312145Y-9812D01*
X312258Y-9629D01*
X312357Y-9403D01*
X312441Y-9136D01*
X312498Y-8811D01*
X312526Y-8445D01*
Y-8431D01*
Y-8403D01*
Y-8346D01*
X312512Y-8276D01*
Y-8177D01*
X312498Y-8078D01*
X312455Y-7853D01*
X312399Y-7585D01*
X312300Y-7303D01*
X312159Y-7035D01*
X311976Y-6796D01*
Y-6781D01*
X311948Y-6767D01*
X311877Y-6697D01*
X311765Y-6598D01*
X311609Y-6485D01*
X311412Y-6387D01*
X311187Y-6288D01*
X310933Y-6218D01*
X310792Y-6189D01*
D02*
G37*
G36*
X318855Y-7190D02*
X315782Y-11560D01*
X318855D01*
Y-7190D01*
D02*
G37*
G36*
X610651Y546311D02*
X610538D01*
X610411Y546282D01*
X610242Y546254D01*
X610059Y546198D01*
X609861Y546127D01*
X609678Y546015D01*
X609495Y545859D01*
X609481Y545845D01*
X609425Y545789D01*
X609354Y545690D01*
X609283Y545564D01*
X609199Y545408D01*
X609128Y545225D01*
X609072Y545028D01*
X609058Y544802D01*
Y544788D01*
Y544774D01*
X609072Y544689D01*
X609086Y544563D01*
X609114Y544408D01*
X609171Y544224D01*
X609241Y544041D01*
X609354Y543844D01*
X609495Y543675D01*
X609509Y543660D01*
X609580Y543604D01*
X609678Y543534D01*
X609805Y543463D01*
X609974Y543378D01*
X610172Y543308D01*
X610397Y543252D01*
X610651Y543237D01*
X610679D01*
X610764Y543252D01*
X610891Y543266D01*
X611060Y543294D01*
X611243Y543350D01*
X611426Y543421D01*
X611624Y543534D01*
X611793Y543675D01*
X611807Y543689D01*
X611863Y543759D01*
X611934Y543844D01*
X612018Y543970D01*
X612103Y544126D01*
X612173Y544309D01*
X612230Y544520D01*
X612244Y544746D01*
Y544760D01*
Y544774D01*
Y544859D01*
X612216Y544986D01*
X612188Y545141D01*
X612131Y545310D01*
X612047Y545493D01*
X611934Y545676D01*
X611779Y545859D01*
X611765Y545874D01*
X611694Y545930D01*
X611595Y546001D01*
X611469Y546085D01*
X611299Y546170D01*
X611116Y546240D01*
X610891Y546297D01*
X610651Y546311D01*
D02*
G37*
G36*
X610609Y542265D02*
X610524D01*
X610468Y542251D01*
X610313Y542237D01*
X610115Y542194D01*
X609890Y542124D01*
X609664Y542025D01*
X609425Y541884D01*
X609213Y541701D01*
X609185Y541673D01*
X609128Y541602D01*
X609044Y541475D01*
X608945Y541320D01*
X608832Y541109D01*
X608748Y540869D01*
X608691Y540601D01*
X608663Y540305D01*
Y540277D01*
Y540221D01*
X608677Y540122D01*
X608691Y539995D01*
X608720Y539840D01*
X608762Y539671D01*
X608818Y539502D01*
X608889Y539319D01*
X608903Y539304D01*
X608931Y539234D01*
X608988Y539149D01*
X609072Y539051D01*
X609171Y538924D01*
X609298Y538797D01*
X609439Y538684D01*
X609608Y538571D01*
X609636Y538557D01*
X609692Y538529D01*
X609791Y538487D01*
X609918Y538445D01*
X610073Y538402D01*
X610256Y538360D01*
X610454Y538332D01*
X610651Y538318D01*
X610736D01*
X610792Y538332D01*
X610961Y538346D01*
X611158Y538388D01*
X611384Y538459D01*
X611624Y538543D01*
X611849Y538684D01*
X612075Y538867D01*
X612103Y538896D01*
X612159Y538966D01*
X612258Y539093D01*
X612357Y539248D01*
X612455Y539445D01*
X612554Y539685D01*
X612610Y539967D01*
X612639Y540263D01*
Y540277D01*
Y540305D01*
Y540348D01*
X612625Y540404D01*
X612610Y540559D01*
X612568Y540770D01*
X612498Y540982D01*
X612399Y541222D01*
X612258Y541461D01*
X612061Y541687D01*
X612032Y541715D01*
X611962Y541771D01*
X611835Y541870D01*
X611666Y541983D01*
X611455Y542081D01*
X611201Y542180D01*
X610919Y542237D01*
X610609Y542265D01*
D02*
G37*
G36*
X599246Y546311D02*
X599162D01*
X599105Y546297D01*
X598950Y546268D01*
X598767Y546226D01*
X598556Y546142D01*
X598330Y546015D01*
X598217Y545930D01*
X598105Y545845D01*
X598006Y545733D01*
X597907Y545606D01*
Y545592D01*
X597879Y545564D01*
X597851Y545507D01*
X597809Y545437D01*
X597766Y545324D01*
X597710Y545197D01*
X597668Y545042D01*
X597611Y544859D01*
X597555Y544647D01*
X597498Y544408D01*
X597442Y544140D01*
X597400Y543844D01*
X597357Y543505D01*
X597329Y543139D01*
X597315Y542744D01*
X597301Y542307D01*
Y542279D01*
Y542208D01*
Y542081D01*
X597315Y541912D01*
Y541729D01*
X597329Y541503D01*
X597343Y541264D01*
X597372Y541010D01*
X597442Y540460D01*
X597484Y540192D01*
X597541Y539939D01*
X597597Y539699D01*
X597682Y539474D01*
X597766Y539276D01*
X597865Y539107D01*
Y539093D01*
X597893Y539079D01*
X597964Y538980D01*
X598091Y538853D01*
X598246Y538712D01*
X598457Y538571D01*
X598697Y538445D01*
X598965Y538346D01*
X599105Y538332D01*
X599260Y538318D01*
X599345D01*
X599402Y538332D01*
X599543Y538360D01*
X599740Y538416D01*
X599951Y538515D01*
X600191Y538656D01*
X600304Y538741D01*
X600416Y538853D01*
X600529Y538966D01*
X600642Y539107D01*
Y539121D01*
X600670Y539149D01*
X600698Y539192D01*
X600727Y539262D01*
X600783Y539361D01*
X600825Y539488D01*
X600882Y539629D01*
X600938Y539798D01*
X600980Y540009D01*
X601037Y540235D01*
X601093Y540503D01*
X601135Y540785D01*
X601164Y541123D01*
X601192Y541475D01*
X601220Y541870D01*
Y542307D01*
Y542321D01*
Y542335D01*
Y542406D01*
Y542533D01*
X601206Y542702D01*
Y542885D01*
X601192Y543111D01*
X601178Y543350D01*
X601149Y543618D01*
X601079Y544154D01*
X601037Y544422D01*
X600980Y544675D01*
X600924Y544915D01*
X600839Y545141D01*
X600755Y545338D01*
X600656Y545507D01*
Y545521D01*
X600628Y545535D01*
X600600Y545578D01*
X600558Y545634D01*
X600431Y545761D01*
X600275Y545916D01*
X600064Y546057D01*
X599824Y546184D01*
X599698Y546240D01*
X599557Y546282D01*
X599402Y546297D01*
X599246Y546311D01*
D02*
G37*
G36*
X591747Y557772D02*
X591662D01*
X591606Y557758D01*
X591465Y557744D01*
X591268Y557702D01*
X591056Y557631D01*
X590816Y557519D01*
X590591Y557378D01*
X590365Y557180D01*
X590337Y557152D01*
X590281Y557081D01*
X590182Y556955D01*
X590083Y556771D01*
X589985Y556560D01*
X589886Y556292D01*
X589830Y555996D01*
X589801Y555658D01*
Y555630D01*
Y555559D01*
X589816Y555432D01*
X589830Y555277D01*
X589858Y555094D01*
X589914Y554897D01*
X589971Y554685D01*
X590055Y554474D01*
X590069Y554445D01*
X590112Y554375D01*
X590168Y554276D01*
X590253Y554149D01*
X590351Y554022D01*
X590478Y553867D01*
X590619Y553741D01*
X590788Y553614D01*
X590816Y553600D01*
X590873Y553571D01*
X590971Y553515D01*
X591098Y553473D01*
X591239Y553416D01*
X591409Y553360D01*
X591592Y553332D01*
X591789Y553318D01*
X591860D01*
X591916Y553332D01*
X592057Y553346D01*
X592240Y553388D01*
X592438Y553473D01*
X592663Y553571D01*
X592889Y553727D01*
X593002Y553811D01*
X593100Y553924D01*
Y553938D01*
X593128Y553952D01*
X593185Y554037D01*
X593269Y554178D01*
X593382Y554361D01*
X593481Y554600D01*
X593565Y554882D01*
X593622Y555207D01*
X593650Y555587D01*
Y555601D01*
Y555630D01*
Y555686D01*
X593636Y555756D01*
Y555841D01*
X593622Y555940D01*
X593579Y556165D01*
X593523Y556419D01*
X593424Y556687D01*
X593283Y556941D01*
X593100Y557180D01*
X593072Y557208D01*
X593002Y557279D01*
X592889Y557364D01*
X592734Y557476D01*
X592536Y557589D01*
X592311Y557674D01*
X592043Y557744D01*
X591747Y557772D01*
D02*
G37*
G36*
X218151Y551311D02*
X218038D01*
X217911Y551282D01*
X217742Y551254D01*
X217559Y551198D01*
X217362Y551127D01*
X217178Y551015D01*
X216995Y550859D01*
X216981Y550845D01*
X216924Y550789D01*
X216854Y550690D01*
X216784Y550564D01*
X216699Y550408D01*
X216628Y550225D01*
X216572Y550028D01*
X216558Y549802D01*
Y549788D01*
Y549774D01*
X216572Y549689D01*
X216586Y549563D01*
X216614Y549408D01*
X216671Y549224D01*
X216741Y549041D01*
X216854Y548844D01*
X216995Y548675D01*
X217009Y548660D01*
X217080Y548604D01*
X217178Y548534D01*
X217305Y548463D01*
X217474Y548378D01*
X217672Y548308D01*
X217897Y548252D01*
X218151Y548237D01*
X218179D01*
X218264Y548252D01*
X218391Y548266D01*
X218560Y548294D01*
X218743Y548350D01*
X218926Y548421D01*
X219124Y548534D01*
X219293Y548675D01*
X219307Y548689D01*
X219363Y548759D01*
X219434Y548844D01*
X219518Y548970D01*
X219603Y549126D01*
X219673Y549309D01*
X219730Y549520D01*
X219744Y549746D01*
Y549760D01*
Y549774D01*
Y549859D01*
X219716Y549986D01*
X219688Y550141D01*
X219631Y550310D01*
X219547Y550493D01*
X219434Y550676D01*
X219279Y550859D01*
X219265Y550874D01*
X219194Y550930D01*
X219095Y551001D01*
X218969Y551085D01*
X218799Y551170D01*
X218616Y551240D01*
X218391Y551297D01*
X218151Y551311D01*
D02*
G37*
G36*
X218109Y547265D02*
X218024D01*
X217968Y547251D01*
X217813Y547237D01*
X217615Y547194D01*
X217390Y547124D01*
X217164Y547025D01*
X216924Y546884D01*
X216713Y546701D01*
X216685Y546673D01*
X216628Y546602D01*
X216544Y546475D01*
X216445Y546320D01*
X216332Y546109D01*
X216248Y545869D01*
X216191Y545601D01*
X216163Y545305D01*
Y545277D01*
Y545221D01*
X216177Y545122D01*
X216191Y544995D01*
X216220Y544840D01*
X216262Y544671D01*
X216318Y544502D01*
X216389Y544319D01*
X216403Y544304D01*
X216431Y544234D01*
X216488Y544149D01*
X216572Y544051D01*
X216671Y543924D01*
X216798Y543797D01*
X216939Y543684D01*
X217108Y543571D01*
X217136Y543557D01*
X217192Y543529D01*
X217291Y543487D01*
X217418Y543445D01*
X217573Y543402D01*
X217756Y543360D01*
X217954Y543332D01*
X218151Y543318D01*
X218235D01*
X218292Y543332D01*
X218461Y543346D01*
X218658Y543388D01*
X218884Y543459D01*
X219124Y543543D01*
X219349Y543684D01*
X219575Y543867D01*
X219603Y543896D01*
X219659Y543966D01*
X219758Y544093D01*
X219857Y544248D01*
X219955Y544445D01*
X220054Y544685D01*
X220110Y544967D01*
X220139Y545263D01*
Y545277D01*
Y545305D01*
Y545348D01*
X220124Y545404D01*
X220110Y545559D01*
X220068Y545770D01*
X219998Y545982D01*
X219899Y546222D01*
X219758Y546461D01*
X219561Y546687D01*
X219532Y546715D01*
X219462Y546771D01*
X219335Y546870D01*
X219166Y546983D01*
X218955Y547081D01*
X218701Y547180D01*
X218419Y547237D01*
X218109Y547265D01*
D02*
G37*
G36*
X206746Y551311D02*
X206662D01*
X206605Y551297D01*
X206450Y551268D01*
X206267Y551226D01*
X206056Y551142D01*
X205830Y551015D01*
X205717Y550930D01*
X205605Y550845D01*
X205506Y550733D01*
X205407Y550606D01*
Y550592D01*
X205379Y550564D01*
X205351Y550507D01*
X205309Y550437D01*
X205266Y550324D01*
X205210Y550197D01*
X205168Y550042D01*
X205111Y549859D01*
X205055Y549647D01*
X204998Y549408D01*
X204942Y549140D01*
X204900Y548844D01*
X204858Y548505D01*
X204829Y548139D01*
X204815Y547744D01*
X204801Y547307D01*
Y547279D01*
Y547208D01*
Y547081D01*
X204815Y546912D01*
Y546729D01*
X204829Y546504D01*
X204843Y546264D01*
X204872Y546010D01*
X204942Y545460D01*
X204984Y545192D01*
X205041Y544939D01*
X205097Y544699D01*
X205182Y544474D01*
X205266Y544276D01*
X205365Y544107D01*
Y544093D01*
X205393Y544079D01*
X205464Y543980D01*
X205590Y543853D01*
X205746Y543712D01*
X205957Y543571D01*
X206197Y543445D01*
X206465Y543346D01*
X206605Y543332D01*
X206761Y543318D01*
X206845D01*
X206901Y543332D01*
X207043Y543360D01*
X207240Y543416D01*
X207451Y543515D01*
X207691Y543656D01*
X207804Y543741D01*
X207917Y543853D01*
X208029Y543966D01*
X208142Y544107D01*
Y544121D01*
X208170Y544149D01*
X208198Y544192D01*
X208227Y544262D01*
X208283Y544361D01*
X208325Y544488D01*
X208382Y544629D01*
X208438Y544798D01*
X208480Y545009D01*
X208537Y545235D01*
X208593Y545503D01*
X208635Y545785D01*
X208664Y546123D01*
X208692Y546475D01*
X208720Y546870D01*
Y547307D01*
Y547321D01*
Y547335D01*
Y547406D01*
Y547533D01*
X208706Y547702D01*
Y547885D01*
X208692Y548111D01*
X208678Y548350D01*
X208650Y548618D01*
X208579Y549154D01*
X208537Y549422D01*
X208480Y549675D01*
X208424Y549915D01*
X208339Y550141D01*
X208255Y550338D01*
X208156Y550507D01*
Y550521D01*
X208128Y550535D01*
X208100Y550578D01*
X208057Y550634D01*
X207931Y550761D01*
X207775Y550916D01*
X207564Y551057D01*
X207324Y551184D01*
X207198Y551240D01*
X207057Y551282D01*
X206901Y551297D01*
X206746Y551311D01*
D02*
G37*
G36*
X233376Y562772D02*
X233291D01*
X233235Y562758D01*
X233094Y562744D01*
X232896Y562702D01*
X232685Y562631D01*
X232445Y562519D01*
X232220Y562378D01*
X231994Y562180D01*
X231966Y562152D01*
X231910Y562081D01*
X231811Y561955D01*
X231712Y561771D01*
X231614Y561560D01*
X231515Y561292D01*
X231458Y560996D01*
X231430Y560658D01*
Y560630D01*
Y560559D01*
X231444Y560432D01*
X231458Y560277D01*
X231487Y560094D01*
X231543Y559897D01*
X231600Y559685D01*
X231684Y559474D01*
X231698Y559445D01*
X231740Y559375D01*
X231797Y559276D01*
X231881Y559149D01*
X231980Y559022D01*
X232107Y558867D01*
X232248Y558741D01*
X232417Y558614D01*
X232445Y558600D01*
X232502Y558571D01*
X232600Y558515D01*
X232727Y558473D01*
X232868Y558416D01*
X233037Y558360D01*
X233221Y558332D01*
X233418Y558318D01*
X233489D01*
X233545Y558332D01*
X233686Y558346D01*
X233869Y558388D01*
X234066Y558473D01*
X234292Y558571D01*
X234517Y558726D01*
X234630Y558811D01*
X234729Y558924D01*
Y558938D01*
X234757Y558952D01*
X234814Y559037D01*
X234898Y559178D01*
X235011Y559361D01*
X235110Y559600D01*
X235194Y559882D01*
X235251Y560207D01*
X235279Y560587D01*
Y560601D01*
Y560630D01*
Y560686D01*
X235265Y560756D01*
Y560841D01*
X235251Y560940D01*
X235208Y561165D01*
X235152Y561419D01*
X235053Y561687D01*
X234912Y561941D01*
X234729Y562180D01*
X234701Y562208D01*
X234630Y562279D01*
X234517Y562364D01*
X234363Y562476D01*
X234165Y562589D01*
X233940Y562674D01*
X233672Y562744D01*
X233376Y562772D01*
D02*
G37*
G36*
X218207D02*
X218123D01*
X218066Y562758D01*
X217925Y562744D01*
X217728Y562702D01*
X217517Y562631D01*
X217277Y562519D01*
X217051Y562378D01*
X216826Y562180D01*
X216798Y562152D01*
X216741Y562081D01*
X216642Y561955D01*
X216544Y561771D01*
X216445Y561560D01*
X216346Y561292D01*
X216290Y560996D01*
X216262Y560658D01*
Y560630D01*
Y560559D01*
X216276Y560432D01*
X216290Y560277D01*
X216318Y560094D01*
X216375Y559897D01*
X216431Y559685D01*
X216516Y559474D01*
X216530Y559445D01*
X216572Y559375D01*
X216628Y559276D01*
X216713Y559149D01*
X216812Y559022D01*
X216939Y558867D01*
X217080Y558741D01*
X217249Y558614D01*
X217277Y558600D01*
X217333Y558571D01*
X217432Y558515D01*
X217559Y558473D01*
X217700Y558416D01*
X217869Y558360D01*
X218052Y558332D01*
X218250Y558318D01*
X218320D01*
X218377Y558332D01*
X218517Y558346D01*
X218701Y558388D01*
X218898Y558473D01*
X219124Y558571D01*
X219349Y558726D01*
X219462Y558811D01*
X219561Y558924D01*
Y558938D01*
X219589Y558952D01*
X219645Y559037D01*
X219730Y559178D01*
X219843Y559361D01*
X219941Y559600D01*
X220026Y559882D01*
X220082Y560207D01*
X220110Y560587D01*
Y560601D01*
Y560630D01*
Y560686D01*
X220096Y560756D01*
Y560841D01*
X220082Y560940D01*
X220040Y561165D01*
X219984Y561419D01*
X219885Y561687D01*
X219744Y561941D01*
X219561Y562180D01*
X219532Y562208D01*
X219462Y562279D01*
X219349Y562364D01*
X219194Y562476D01*
X218997Y562589D01*
X218771Y562674D01*
X218503Y562744D01*
X218207Y562772D01*
D02*
G37*
G36*
X199811Y565310D02*
X196738Y560940D01*
X199811D01*
Y565310D01*
D02*
G37*
G36*
X576285Y-22190D02*
X573212Y-26560D01*
X576285D01*
Y-22190D01*
D02*
G37*
G36*
X575637Y-6189D02*
X575524D01*
X575397Y-6218D01*
X575228Y-6246D01*
X575045Y-6302D01*
X574847Y-6373D01*
X574664Y-6485D01*
X574481Y-6640D01*
X574467Y-6655D01*
X574410Y-6711D01*
X574340Y-6810D01*
X574269Y-6937D01*
X574185Y-7092D01*
X574114Y-7275D01*
X574058Y-7472D01*
X574044Y-7698D01*
Y-7712D01*
Y-7726D01*
X574058Y-7811D01*
X574072Y-7937D01*
X574100Y-8092D01*
X574157Y-8276D01*
X574227Y-8459D01*
X574340Y-8656D01*
X574481Y-8826D01*
X574495Y-8840D01*
X574565Y-8896D01*
X574664Y-8967D01*
X574791Y-9037D01*
X574960Y-9122D01*
X575158Y-9192D01*
X575383Y-9248D01*
X575637Y-9262D01*
X575665D01*
X575750Y-9248D01*
X575877Y-9234D01*
X576046Y-9206D01*
X576229Y-9150D01*
X576412Y-9079D01*
X576609Y-8967D01*
X576779Y-8826D01*
X576793Y-8811D01*
X576849Y-8741D01*
X576920Y-8656D01*
X577004Y-8529D01*
X577089Y-8374D01*
X577159Y-8191D01*
X577216Y-7980D01*
X577230Y-7754D01*
Y-7740D01*
Y-7726D01*
Y-7641D01*
X577202Y-7515D01*
X577173Y-7359D01*
X577117Y-7190D01*
X577032Y-7007D01*
X576920Y-6824D01*
X576765Y-6640D01*
X576750Y-6626D01*
X576680Y-6570D01*
X576581Y-6500D01*
X576454Y-6415D01*
X576285Y-6330D01*
X576102Y-6260D01*
X575877Y-6204D01*
X575637Y-6189D01*
D02*
G37*
G36*
X575594Y-10235D02*
X575510D01*
X575454Y-10249D01*
X575299Y-10263D01*
X575101Y-10306D01*
X574876Y-10376D01*
X574650Y-10475D01*
X574410Y-10616D01*
X574199Y-10799D01*
X574171Y-10827D01*
X574114Y-10898D01*
X574030Y-11025D01*
X573931Y-11180D01*
X573818Y-11391D01*
X573734Y-11631D01*
X573677Y-11899D01*
X573649Y-12195D01*
Y-12223D01*
Y-12279D01*
X573663Y-12378D01*
X573677Y-12505D01*
X573705Y-12660D01*
X573748Y-12829D01*
X573804Y-12998D01*
X573875Y-13182D01*
X573889Y-13196D01*
X573917Y-13266D01*
X573973Y-13351D01*
X574058Y-13449D01*
X574157Y-13576D01*
X574283Y-13703D01*
X574425Y-13816D01*
X574594Y-13929D01*
X574622Y-13943D01*
X574678Y-13971D01*
X574777Y-14013D01*
X574904Y-14056D01*
X575059Y-14098D01*
X575242Y-14140D01*
X575439Y-14168D01*
X575637Y-14182D01*
X575721D01*
X575778Y-14168D01*
X575947Y-14154D01*
X576144Y-14112D01*
X576370Y-14041D01*
X576609Y-13957D01*
X576835Y-13816D01*
X577061Y-13633D01*
X577089Y-13604D01*
X577145Y-13534D01*
X577244Y-13407D01*
X577343Y-13252D01*
X577441Y-13055D01*
X577540Y-12815D01*
X577596Y-12533D01*
X577625Y-12237D01*
Y-12223D01*
Y-12195D01*
Y-12152D01*
X577610Y-12096D01*
X577596Y-11941D01*
X577554Y-11730D01*
X577483Y-11518D01*
X577385Y-11278D01*
X577244Y-11039D01*
X577047Y-10813D01*
X577018Y-10785D01*
X576948Y-10729D01*
X576821Y-10630D01*
X576652Y-10517D01*
X576440Y-10418D01*
X576187Y-10320D01*
X575905Y-10263D01*
X575594Y-10235D01*
D02*
G37*
G36*
X564232Y-6189D02*
X564148D01*
X564091Y-6204D01*
X563936Y-6232D01*
X563753Y-6274D01*
X563542Y-6359D01*
X563316Y-6485D01*
X563203Y-6570D01*
X563091Y-6655D01*
X562992Y-6767D01*
X562893Y-6894D01*
Y-6908D01*
X562865Y-6937D01*
X562837Y-6993D01*
X562794Y-7063D01*
X562752Y-7176D01*
X562696Y-7303D01*
X562654Y-7458D01*
X562597Y-7641D01*
X562541Y-7853D01*
X562484Y-8092D01*
X562428Y-8360D01*
X562386Y-8656D01*
X562343Y-8995D01*
X562315Y-9361D01*
X562301Y-9756D01*
X562287Y-10193D01*
Y-10221D01*
Y-10292D01*
Y-10418D01*
X562301Y-10588D01*
Y-10771D01*
X562315Y-10997D01*
X562329Y-11236D01*
X562357Y-11490D01*
X562428Y-12040D01*
X562470Y-12307D01*
X562527Y-12561D01*
X562583Y-12801D01*
X562668Y-13026D01*
X562752Y-13224D01*
X562851Y-13393D01*
Y-13407D01*
X562879Y-13421D01*
X562949Y-13520D01*
X563076Y-13647D01*
X563232Y-13788D01*
X563443Y-13929D01*
X563683Y-14056D01*
X563950Y-14154D01*
X564091Y-14168D01*
X564246Y-14182D01*
X564331D01*
X564387Y-14168D01*
X564528Y-14140D01*
X564726Y-14084D01*
X564937Y-13985D01*
X565177Y-13844D01*
X565290Y-13759D01*
X565402Y-13647D01*
X565515Y-13534D01*
X565628Y-13393D01*
Y-13379D01*
X565656Y-13351D01*
X565684Y-13308D01*
X565713Y-13238D01*
X565769Y-13139D01*
X565811Y-13012D01*
X565868Y-12871D01*
X565924Y-12702D01*
X565966Y-12491D01*
X566023Y-12265D01*
X566079Y-11997D01*
X566121Y-11715D01*
X566149Y-11377D01*
X566178Y-11025D01*
X566206Y-10630D01*
Y-10193D01*
Y-10179D01*
Y-10165D01*
Y-10094D01*
Y-9967D01*
X566192Y-9798D01*
Y-9615D01*
X566178Y-9389D01*
X566164Y-9150D01*
X566135Y-8882D01*
X566065Y-8346D01*
X566023Y-8078D01*
X565966Y-7825D01*
X565910Y-7585D01*
X565825Y-7359D01*
X565741Y-7162D01*
X565642Y-6993D01*
Y-6979D01*
X565614Y-6965D01*
X565586Y-6922D01*
X565543Y-6866D01*
X565416Y-6739D01*
X565261Y-6584D01*
X565050Y-6443D01*
X564810Y-6316D01*
X564683Y-6260D01*
X564543Y-6218D01*
X564387Y-6204D01*
X564232Y-6189D01*
D02*
G37*
G36*
X311285Y-22190D02*
X308212Y-26560D01*
X311285D01*
Y-22190D01*
D02*
G37*
%LPD*%
M02*
