G04*
G04 #@! TF.GenerationSoftware,Altium Limited,Altium Designer,20.2.6 (244)*
G04*
G04 Layer_Color=65535*
%FSLAX44Y44*%
%MOMM*%
G71*
G04*
G04 #@! TF.SameCoordinates,9515D0E1-E452-41A6-BF4E-AEEE6F90C87A*
G04*
G04*
G04 #@! TF.FilePolarity,Positive*
G04*
G01*
G75*
%ADD10C,0.2000*%
%ADD11C,0.1000*%
%ADD12C,0.2500*%
%ADD13C,0.1270*%
D10*
X324500Y355000D02*
G03*
X324500Y355000I-1000J0D01*
G01*
X483750Y329000D02*
Y331000D01*
X471250Y329000D02*
Y331000D01*
X427000Y300750D02*
X433000D01*
X427000Y289250D02*
X433000D01*
X280750Y314500D02*
Y320500D01*
X269250Y314500D02*
Y320500D01*
X503750Y381500D02*
Y383500D01*
X516250Y381500D02*
Y383500D01*
X420000Y344250D02*
X440000D01*
X420000Y320750D02*
X440000D01*
X175260Y495300D02*
X410210D01*
X429260D01*
Y520700D01*
X175260D02*
X429260D01*
X175260Y495300D02*
Y520700D01*
X322000Y320750D02*
X328000D01*
X322000Y309250D02*
X328000D01*
X296500Y278750D02*
X298500D01*
X296500Y266250D02*
X298500D01*
X444500Y495300D02*
X647700D01*
Y520700D01*
X444500D02*
X647700D01*
X444500Y495300D02*
Y520700D01*
X488100Y12700D02*
X640500D01*
X488100Y38100D02*
X640500D01*
X488100Y12700D02*
Y38100D01*
X640500Y12700D02*
Y38100D01*
X266700D02*
X469900D01*
X266700Y12700D02*
Y38100D01*
Y12700D02*
X469900D01*
Y38100D01*
X474358Y367499D02*
Y357501D01*
Y367499D02*
X478643D01*
X480071Y367023D01*
X480547Y366547D01*
X481024Y365595D01*
Y364642D01*
X480547Y363690D01*
X480071Y363214D01*
X478643Y362738D01*
X474358D01*
X477691D02*
X481024Y357501D01*
X483261Y365595D02*
X484213Y366071D01*
X485642Y367499D01*
Y357501D01*
X403476Y297619D02*
X403000Y298571D01*
X402048Y299523D01*
X401096Y299999D01*
X399191D01*
X398239Y299523D01*
X397287Y298571D01*
X396811Y297619D01*
X396335Y296190D01*
Y293810D01*
X396811Y292381D01*
X397287Y291429D01*
X398239Y290477D01*
X399191Y290001D01*
X401096D01*
X402048Y290477D01*
X403000Y291429D01*
X403476Y292381D01*
X406285Y298095D02*
X407237Y298571D01*
X408665Y299999D01*
Y290001D01*
X299167Y384999D02*
Y377858D01*
X299643Y376429D01*
X300596Y375477D01*
X302024Y375001D01*
X302976D01*
X304404Y375477D01*
X305357Y376429D01*
X305833Y377858D01*
Y384999D01*
X253596Y320118D02*
X253120Y321071D01*
X252167Y322023D01*
X251215Y322499D01*
X249311D01*
X248359Y322023D01*
X247406Y321071D01*
X246930Y320118D01*
X246454Y318690D01*
Y316310D01*
X246930Y314881D01*
X247406Y313929D01*
X248359Y312977D01*
X249311Y312501D01*
X251215D01*
X252167Y312977D01*
X253120Y313929D01*
X253596Y314881D01*
X261165Y322499D02*
X256404Y315834D01*
X263546D01*
X261165Y322499D02*
Y312501D01*
X101334Y257619D02*
X100857Y258571D01*
X99905Y259523D01*
X98953Y259999D01*
X97049D01*
X96097Y259523D01*
X95144Y258571D01*
X94668Y257619D01*
X94192Y256190D01*
Y253810D01*
X94668Y252381D01*
X95144Y251429D01*
X96097Y250477D01*
X97049Y250001D01*
X98953D01*
X99905Y250477D01*
X100857Y251429D01*
X101334Y252381D01*
X109856Y259999D02*
X105095D01*
X104619Y255714D01*
X105095Y256190D01*
X106523Y256666D01*
X107951D01*
X109380Y256190D01*
X110332Y255238D01*
X110808Y253810D01*
Y252858D01*
X110332Y251429D01*
X109380Y250477D01*
X107951Y250001D01*
X106523D01*
X105095Y250477D01*
X104619Y250953D01*
X104143Y251905D01*
X175783Y363219D02*
X174831Y364172D01*
X173403Y364648D01*
X171498D01*
X170070Y364172D01*
X169118Y363219D01*
Y362267D01*
X169594Y361315D01*
X170070Y360839D01*
X171022Y360363D01*
X173879Y359411D01*
X174831Y358935D01*
X175307Y358459D01*
X175783Y357506D01*
Y356078D01*
X174831Y355126D01*
X173403Y354650D01*
X171498D01*
X170070Y355126D01*
X169118Y356078D01*
X178021Y358459D02*
X183734D01*
Y359411D01*
X183258Y360363D01*
X182782Y360839D01*
X181829Y361315D01*
X180401D01*
X179449Y360839D01*
X178497Y359887D01*
X178021Y358459D01*
Y357506D01*
X178497Y356078D01*
X179449Y355126D01*
X180401Y354650D01*
X181829D01*
X182782Y355126D01*
X183734Y356078D01*
X185876Y361315D02*
Y354650D01*
Y359411D02*
X187304Y360839D01*
X188257Y361315D01*
X189685D01*
X190637Y360839D01*
X191113Y359411D01*
Y354650D01*
X193732Y362743D02*
X194684Y363219D01*
X196112Y364648D01*
Y354650D01*
X503269Y419041D02*
Y409043D01*
Y419041D02*
X507554D01*
X508982Y418565D01*
X509458Y418089D01*
X509934Y417136D01*
Y416184D01*
X509458Y415232D01*
X508982Y414756D01*
X507554Y414280D01*
X503269D01*
X506602D02*
X509934Y409043D01*
X512648Y416660D02*
Y417136D01*
X513124Y418089D01*
X513600Y418565D01*
X514552Y419041D01*
X516457D01*
X517409Y418565D01*
X517885Y418089D01*
X518361Y417136D01*
Y416184D01*
X517885Y415232D01*
X516933Y413804D01*
X512172Y409043D01*
X518837D01*
X399096Y329999D02*
Y322858D01*
X399573Y321429D01*
X400525Y320477D01*
X401953Y320001D01*
X402905D01*
X404333Y320477D01*
X405286Y321429D01*
X405762Y322858D01*
Y329999D01*
X408523Y328095D02*
X409475Y328571D01*
X410904Y329999D01*
Y320001D01*
X294478Y299999D02*
Y290001D01*
Y299999D02*
X298763D01*
X300191Y299523D01*
X300667Y299047D01*
X301143Y298095D01*
Y297142D01*
X300667Y296190D01*
X300191Y295714D01*
X298763Y295238D01*
X294478D01*
X297811D02*
X301143Y290001D01*
X308142Y299999D02*
X303381Y293334D01*
X310522D01*
X308142Y299999D02*
Y290001D01*
X118266Y363378D02*
Y353380D01*
Y363378D02*
X122551D01*
X123979Y362902D01*
X124455Y362425D01*
X124931Y361473D01*
Y360521D01*
X124455Y359569D01*
X123979Y359093D01*
X122551Y358617D01*
X118266D01*
X121599D02*
X124931Y353380D01*
X128121Y363378D02*
X133358D01*
X130501Y359569D01*
X131930D01*
X132882Y359093D01*
X133358Y358617D01*
X133834Y357188D01*
Y356236D01*
X133358Y354808D01*
X132406Y353856D01*
X130977Y353380D01*
X129549D01*
X128121Y353856D01*
X127645Y354332D01*
X127169Y355284D01*
X348834Y320118D02*
X348358Y321071D01*
X347405Y322023D01*
X346453Y322499D01*
X344549D01*
X343597Y322023D01*
X342645Y321071D01*
X342168Y320118D01*
X341692Y318690D01*
Y316310D01*
X342168Y314881D01*
X342645Y313929D01*
X343597Y312977D01*
X344549Y312501D01*
X346453D01*
X347405Y312977D01*
X348358Y313929D01*
X348834Y314881D01*
X352595Y322499D02*
X357832D01*
X354975Y318690D01*
X356403D01*
X357356Y318214D01*
X357832Y317738D01*
X358308Y316310D01*
Y315358D01*
X357832Y313929D01*
X356880Y312977D01*
X355451Y312501D01*
X354023D01*
X352595Y312977D01*
X352119Y313453D01*
X351642Y314405D01*
X265053Y49762D02*
X269337D01*
X270765Y50238D01*
X271242Y50714D01*
X271718Y51666D01*
Y53095D01*
X271242Y54047D01*
X270765Y54523D01*
X269337Y54999D01*
X265053D01*
Y45001D01*
X276812Y54999D02*
X275860Y54523D01*
X274907Y53571D01*
X274431Y52618D01*
X273955Y51190D01*
Y48810D01*
X274431Y47382D01*
X274907Y46429D01*
X275860Y45477D01*
X276812Y45001D01*
X278716D01*
X279668Y45477D01*
X280620Y46429D01*
X281097Y47382D01*
X281573Y48810D01*
Y51190D01*
X281097Y52618D01*
X280620Y53571D01*
X279668Y54523D01*
X278716Y54999D01*
X276812D01*
X283906D02*
X286286Y45001D01*
X288666Y54999D02*
X286286Y45001D01*
X288666Y54999D02*
X291047Y45001D01*
X293427Y54999D02*
X291047Y45001D01*
X301616Y54999D02*
X295427D01*
Y45001D01*
X301616D01*
X295427Y50238D02*
X299236D01*
X303282Y54999D02*
Y45001D01*
Y54999D02*
X307567D01*
X308995Y54523D01*
X309471Y54047D01*
X309948Y53095D01*
Y52142D01*
X309471Y51190D01*
X308995Y50714D01*
X307567Y50238D01*
X303282D01*
X306615D02*
X309948Y45001D01*
X538621Y464999D02*
Y455001D01*
X543572Y464999D02*
X542620Y464523D01*
X541668Y463571D01*
X541192Y462618D01*
X540716Y461190D01*
Y458810D01*
X541192Y457382D01*
X541668Y456429D01*
X542620Y455477D01*
X543572Y455001D01*
X545477D01*
X546429Y455477D01*
X547381Y456429D01*
X547857Y457382D01*
X548333Y458810D01*
Y461190D01*
X547857Y462618D01*
X547381Y463571D01*
X546429Y464523D01*
X545477Y464999D01*
X543572D01*
X550666D02*
Y455001D01*
X556379D01*
X258145Y464999D02*
Y455001D01*
X263096Y464999D02*
X262144Y464523D01*
X261192Y463571D01*
X260716Y462618D01*
X260240Y461190D01*
Y458810D01*
X260716Y457382D01*
X261192Y456429D01*
X262144Y455477D01*
X263096Y455001D01*
X265001D01*
X265953Y455477D01*
X266905Y456429D01*
X267381Y457382D01*
X267857Y458810D01*
Y461190D01*
X267381Y462618D01*
X266905Y463571D01*
X265953Y464523D01*
X265001Y464999D01*
X263096D01*
X270190D02*
Y455001D01*
X276855Y464999D02*
Y455001D01*
X270190Y460238D02*
X276855D01*
X496810Y47501D02*
X493001Y57499D01*
X489192Y47501D01*
X490620Y50834D02*
X495381D01*
X499142Y57499D02*
Y47501D01*
Y57499D02*
X502475D01*
X503903Y57023D01*
X504856Y56071D01*
X505332Y55118D01*
X505808Y53690D01*
Y51310D01*
X505332Y49882D01*
X504856Y48929D01*
X503903Y47977D01*
X502475Y47501D01*
X499142D01*
X94005Y380005D02*
X93529Y380957D01*
X92577Y381910D01*
X91625Y382386D01*
X89720D01*
X88768Y381910D01*
X87816Y380957D01*
X87340Y380005D01*
X86864Y378577D01*
Y376197D01*
X87340Y374768D01*
X87816Y373816D01*
X88768Y372864D01*
X89720Y372388D01*
X91625D01*
X92577Y372864D01*
X93529Y373816D01*
X94005Y374768D01*
X97290Y380005D02*
Y380481D01*
X97766Y381433D01*
X98242Y381910D01*
X99194Y382386D01*
X101099D01*
X102051Y381910D01*
X102527Y381433D01*
X103003Y380481D01*
Y379529D01*
X102527Y378577D01*
X101575Y377149D01*
X96814Y372388D01*
X103479D01*
D11*
X202000Y319000D02*
G03*
X202000Y319000I-500J0D01*
G01*
X172750Y345500D02*
X175650D01*
X194350D02*
X197250D01*
X172750Y319500D02*
X175650D01*
X194350D02*
X197250D01*
D12*
X450000Y327500D02*
G03*
X450000Y327500I-1250J0D01*
G01*
D13*
X294700Y352000D02*
X310300D01*
X294700Y368000D02*
X310300D01*
M02*
