G04*
G04 #@! TF.GenerationSoftware,Altium Limited,Altium Designer,20.2.6 (244)*
G04*
G04 Layer_Color=32896*
%FSLAX44Y44*%
%MOMM*%
G71*
G04*
G04 #@! TF.SameCoordinates,9515D0E1-E452-41A6-BF4E-AEEE6F90C87A*
G04*
G04*
G04 #@! TF.FilePolarity,Positive*
G04*
G01*
G75*
%ADD10C,0.2000*%
%ADD11C,0.1000*%
G36*
X427624Y332491D02*
X427698D01*
X427790Y332482D01*
X427892Y332472D01*
X427994Y332463D01*
X428225Y332426D01*
X428475Y332371D01*
X428715Y332297D01*
X428946Y332195D01*
X428955D01*
X428974Y332177D01*
X429002Y332158D01*
X429039Y332140D01*
X429140Y332066D01*
X429260Y331964D01*
X429399Y331834D01*
X429529Y331687D01*
X429658Y331502D01*
X429760Y331298D01*
Y331289D01*
X429769Y331270D01*
X429778Y331233D01*
X429797Y331187D01*
X429815Y331132D01*
X429834Y331058D01*
X429861Y330975D01*
X429880Y330873D01*
X429898Y330762D01*
X429926Y330642D01*
X429945Y330512D01*
X429963Y330374D01*
X429982Y330216D01*
X429991Y330050D01*
X430000Y329874D01*
Y329689D01*
Y325991D01*
X429150D01*
Y329689D01*
Y329699D01*
Y329726D01*
Y329773D01*
Y329828D01*
X429140Y329893D01*
Y329976D01*
X429131Y330152D01*
X429113Y330355D01*
X429085Y330559D01*
X429048Y330753D01*
X429029Y330836D01*
X429002Y330919D01*
X428992Y330938D01*
X428974Y330984D01*
X428928Y331049D01*
X428872Y331141D01*
X428807Y331233D01*
X428715Y331335D01*
X428604Y331437D01*
X428475Y331520D01*
X428456Y331529D01*
X428410Y331557D01*
X428327Y331585D01*
X428216Y331622D01*
X428086Y331668D01*
X427920Y331696D01*
X427744Y331723D01*
X427550Y331733D01*
X427458D01*
X427402Y331723D01*
X427319D01*
X427236Y331714D01*
X427032Y331677D01*
X426810Y331631D01*
X426598Y331557D01*
X426394Y331455D01*
X426302Y331391D01*
X426219Y331317D01*
X426209Y331307D01*
X426200Y331298D01*
X426182Y331270D01*
X426154Y331233D01*
X426126Y331178D01*
X426089Y331123D01*
X426052Y331039D01*
X426015Y330956D01*
X425978Y330854D01*
X425951Y330734D01*
X425914Y330596D01*
X425886Y330448D01*
X425858Y330281D01*
X425840Y330106D01*
X425821Y329902D01*
Y329689D01*
Y325991D01*
X424971D01*
Y329689D01*
Y329699D01*
Y329736D01*
Y329782D01*
Y329847D01*
X424980Y329930D01*
Y330022D01*
X424989Y330133D01*
X424998Y330244D01*
X425026Y330494D01*
X425063Y330753D01*
X425118Y331002D01*
X425155Y331123D01*
X425192Y331233D01*
Y331243D01*
X425202Y331261D01*
X425220Y331289D01*
X425239Y331326D01*
X425294Y331428D01*
X425377Y331557D01*
X425488Y331705D01*
X425618Y331853D01*
X425784Y332010D01*
X425988Y332149D01*
X425997D01*
X426015Y332167D01*
X426043Y332177D01*
X426089Y332204D01*
X426145Y332232D01*
X426219Y332260D01*
X426293Y332287D01*
X426385Y332324D01*
X426487Y332361D01*
X426598Y332389D01*
X426718Y332417D01*
X426857Y332445D01*
X426995Y332463D01*
X427143Y332482D01*
X427476Y332500D01*
X427559D01*
X427624Y332491D01*
D02*
G37*
G36*
X421707Y327387D02*
X421716Y327397D01*
X421762Y327434D01*
X421818Y327489D01*
X421910Y327554D01*
X422012Y327637D01*
X422141Y327729D01*
X422289Y327831D01*
X422456Y327933D01*
X422465D01*
X422474Y327942D01*
X422530Y327979D01*
X422622Y328025D01*
X422733Y328081D01*
X422863Y328145D01*
X423001Y328210D01*
X423140Y328275D01*
X423279Y328330D01*
Y327572D01*
X423269D01*
X423251Y327554D01*
X423214Y327544D01*
X423168Y327517D01*
X423112Y327489D01*
X423047Y327452D01*
X422890Y327360D01*
X422705Y327258D01*
X422520Y327128D01*
X422326Y326980D01*
X422132Y326823D01*
X422123Y326814D01*
X422114Y326805D01*
X422086Y326777D01*
X422049Y326749D01*
X421966Y326657D01*
X421855Y326546D01*
X421744Y326417D01*
X421624Y326269D01*
X421522Y326121D01*
X421429Y325963D01*
X420921D01*
Y332389D01*
X421707D01*
Y327387D01*
D02*
G37*
D10*
X444000Y321500D02*
Y343500D01*
X416000D02*
X444000D01*
X416000Y321500D02*
Y343500D01*
Y321500D02*
X444000D01*
D11*
X195000Y325000D02*
G03*
X195000Y325000I-2500J0D01*
G01*
X172750Y320250D02*
X197250D01*
X172750D02*
Y344750D01*
X197250D01*
Y320250D02*
Y344750D01*
M02*
