G04*
G04 #@! TF.GenerationSoftware,Altium Limited,Altium Designer,20.2.6 (244)*
G04*
G04 Layer_Color=255*
%FSLAX44Y44*%
%MOMM*%
G71*
G04*
G04 #@! TF.SameCoordinates,9515D0E1-E452-41A6-BF4E-AEEE6F90C87A*
G04*
G04*
G04 #@! TF.FilePolarity,Positive*
G04*
G01*
G75*
%ADD15R,0.5500X0.3500*%
%ADD17R,1.4500X1.2000*%
%ADD18R,0.5500X1.3500*%
%ADD19R,0.5500X0.2500*%
%ADD20R,1.3500X0.5500*%
%ADD21R,1.4500X1.3000*%
G04:AMPARAMS|DCode=22|XSize=0.4mm|YSize=0.55mm|CornerRadius=0mm|HoleSize=0mm|Usage=FLASHONLY|Rotation=270.000|XOffset=0mm|YOffset=0mm|HoleType=Round|Shape=RoundedRectangle|*
%AMROUNDEDRECTD22*
21,1,0.4000,0.5500,0,0,270.0*
21,1,0.4000,0.5500,0,0,270.0*
1,1,0.0000,-0.2750,-0.2000*
1,1,0.0000,-0.2750,0.2000*
1,1,0.0000,0.2750,0.2000*
1,1,0.0000,0.2750,-0.2000*
%
%ADD22ROUNDEDRECTD22*%
%ADD23R,1.2000X1.4500*%
%ADD24R,1.3500X0.9500*%
%ADD33R,0.7000X1.6000*%
%ADD38R,0.1000X0.1000*%
%ADD39C,1.5000*%
%ADD40R,1.5000X1.5000*%
D15*
X420750Y327500D02*
D03*
Y337500D02*
D03*
X439250D02*
D03*
Y327500D02*
D03*
D17*
X477500Y340000D02*
D03*
Y320000D02*
D03*
X510000Y372500D02*
D03*
Y392500D02*
D03*
D18*
X420250Y295000D02*
D03*
X439750D02*
D03*
X315250Y315000D02*
D03*
X334750D02*
D03*
D19*
X288750Y355000D02*
D03*
Y360000D02*
D03*
Y365000D02*
D03*
X316250D02*
D03*
Y360000D02*
D03*
Y355000D02*
D03*
D20*
X275000Y327250D02*
D03*
Y307750D02*
D03*
D21*
X125000Y234000D02*
D03*
Y250000D02*
D03*
X95000Y356000D02*
D03*
Y340000D02*
D03*
D22*
X197500Y324500D02*
D03*
Y332500D02*
D03*
Y340500D02*
D03*
X172500Y324500D02*
D03*
Y332500D02*
D03*
Y340500D02*
D03*
D23*
X287500Y272500D02*
D03*
X307500D02*
D03*
D24*
X125000Y324750D02*
D03*
Y340250D02*
D03*
D33*
X430000Y332500D02*
D03*
D38*
X185000D02*
D03*
D39*
X365760Y508000D02*
D03*
X187960D02*
D03*
X213360D02*
D03*
X238760D02*
D03*
X264160D02*
D03*
X289560D02*
D03*
X314960D02*
D03*
X340360D02*
D03*
X391160D02*
D03*
X457200D02*
D03*
X482600D02*
D03*
X508000D02*
D03*
X533400D02*
D03*
X558800D02*
D03*
X584200D02*
D03*
X609600D02*
D03*
X627800Y25400D02*
D03*
X602400D02*
D03*
X577000D02*
D03*
X551600D02*
D03*
X526200D02*
D03*
X457200D02*
D03*
X431800D02*
D03*
X406400D02*
D03*
X381000D02*
D03*
X355600D02*
D03*
X330200D02*
D03*
X304800D02*
D03*
D40*
X416560Y508000D02*
D03*
X635000D02*
D03*
X500800Y25400D02*
D03*
X279400D02*
D03*
M02*
